<svg
        xmlns="http://www.w3.org/2000/svg"
        xmlns:xlink="http://www.w3.org/1999/xlink"
        width="104px" height="69px">
    <path fill-rule="evenodd"  stroke-width="1px" stroke="rgb(41, 41, 55)" fill="rgb(255, 255, 255)"
          d="M98.936,62.863 L97.395,62.863 L97.395,29.456 C98.104,29.805 98.703,30.243 99.486,29.748 C99.869,29.504 100.102,29.085 100.102,28.634 L100.102,23.332 C100.102,22.819 99.803,22.352 99.332,22.136 L94.743,20.013 L94.743,11.438 C94.743,10.709 94.147,10.118 93.411,10.118 L85.482,10.118 C84.747,10.118 84.149,10.710 84.149,11.438 L84.149,15.117 L59.289,3.629 C58.901,3.448 58.448,3.464 58.073,3.674 L34.135,16.990 C33.715,17.224 33.455,17.664 33.455,18.141 L33.455,23.443 C33.455,24.467 34.571,25.079 35.442,24.595 L36.163,24.193 L36.162,27.519 C19.631,35.354 16.496,36.837 4.370,42.587 C3.933,42.793 3.652,43.239 3.652,43.730 L3.652,48.803 C3.652,49.724 4.599,50.335 5.421,49.947 L6.178,49.589 L6.178,58.607 L4.740,58.607 L4.740,58.609 C4.053,58.609 3.497,59.175 3.497,59.872 C3.497,60.569 4.053,61.135 4.740,61.135 L36.150,61.135 L36.149,62.863 L35.021,62.863 C32.934,62.881 32.968,65.502 35.019,65.502 L36.147,65.502 L36.167,65.502 L98.937,65.502 C100.989,65.502 100.973,62.861 98.936,62.863 L98.936,62.863 ZM36.161,30.306 L36.160,32.592 L6.139,46.821 L6.139,44.535 L36.161,30.306 L36.161,30.306 ZM36.159,35.379 L36.151,58.610 L8.663,58.610 L8.663,48.411 L36.159,35.379 L36.159,35.379 ZM11.829,49.974 L31.632,40.589 C31.817,40.502 32.013,40.463 32.205,40.471 C32.903,40.448 33.490,41.022 33.490,41.733 L33.490,54.149 C33.490,54.847 32.934,55.413 32.247,55.413 L12.356,55.413 C11.668,55.413 11.112,54.847 11.112,54.149 L11.112,51.119 C11.112,50.764 11.472,49.974 11.829,49.974 L11.829,49.974 ZM31.004,43.673 L23.544,47.209 L23.544,52.888 L31.004,52.888 L31.004,43.673 L31.004,43.673 ZM21.058,52.888 L21.058,48.388 L13.599,51.924 L13.599,52.889 L21.058,52.888 L21.058,52.888 ZM65.441,18.625 C65.390,18.081 65.114,17.795 64.678,17.537 L60.068,15.406 C59.514,15.151 59.125,15.300 58.639,15.577 L42.189,24.728 C41.745,24.975 41.499,25.437 41.509,25.907 C41.509,29.441 41.508,32.974 41.508,36.506 C41.508,37.235 42.104,37.826 42.841,37.826 L64.113,37.826 C64.847,37.826 65.444,37.234 65.444,36.506 L65.444,18.732 C65.444,18.711 65.437,18.615 65.441,18.625 L65.441,18.625 ZM44.175,26.654 L52.145,22.221 L52.145,35.190 L44.175,35.190 L44.175,26.654 L44.175,26.654 ZM54.811,35.189 L54.811,20.738 L59.569,18.092 L62.782,19.577 L62.782,35.190 L54.811,35.189 L54.811,35.189 ZM91.337,29.860 L70.107,20.049 C69.908,19.956 69.697,19.916 69.491,19.925 C68.743,19.900 68.114,20.501 68.114,21.244 L68.114,36.511 C68.114,37.239 68.711,37.830 69.447,37.830 L90.774,37.830 C91.510,37.830 92.107,37.239 92.107,36.511 L92.107,31.058 C92.107,30.252 91.713,30.243 91.337,29.860 L91.337,29.860 ZM70.780,23.273 L78.778,26.970 L78.778,35.190 L70.780,35.190 L70.780,23.273 L70.780,23.273 ZM89.441,35.190 L81.443,35.190 L81.443,28.201 L89.441,31.899 L89.441,35.190 L89.441,35.190 ZM90.772,40.433 L69.446,40.433 C68.711,40.433 68.112,41.024 68.112,41.753 L68.112,58.925 C68.112,59.654 68.711,60.245 69.446,60.245 L90.772,60.245 C91.508,60.245 92.106,59.654 92.106,58.925 L92.106,41.753 C92.106,41.024 91.508,40.433 90.772,40.433 L90.772,40.433 ZM70.779,43.073 L78.776,43.073 L78.776,57.605 L70.779,57.605 L70.779,43.073 L70.779,43.073 ZM89.439,57.604 L81.441,57.604 L81.441,43.073 L89.439,43.073 L89.439,57.604 L89.439,57.604 ZM64.114,40.433 L42.841,40.433 C42.105,40.433 41.509,41.024 41.509,41.753 L41.509,58.925 C41.509,59.654 42.105,60.245 42.841,60.245 L64.114,60.245 C64.849,60.245 65.446,59.654 65.446,58.925 L65.446,41.753 C65.446,41.024 64.849,40.433 64.114,40.433 L64.114,40.433 ZM44.175,43.073 L52.145,43.073 L52.145,57.605 L44.175,57.605 L44.175,43.073 L44.175,43.073 ZM62.781,57.604 L54.811,57.604 L54.811,43.073 L62.781,43.073 L62.781,57.604 L62.781,57.604 ZM86.817,16.305 L86.817,12.761 L92.079,12.761 L92.079,18.784 C91.577,18.553 86.817,16.420 86.817,16.305 L86.817,16.305 ZM36.122,18.915 L58.783,6.311 L97.438,24.175 L97.438,26.564 L59.291,8.934 C59.111,8.851 58.919,8.810 58.727,8.810 C58.500,8.810 58.276,8.866 58.073,8.979 L36.121,21.190 L36.121,18.914 L36.122,18.915 L36.122,18.915 ZM38.829,62.864 L38.829,22.756 C38.829,22.662 57.059,12.573 58.783,11.612 L94.730,28.227 L94.730,62.866 L38.829,62.864 L38.829,62.864 Z"/>
</svg>