<?xml-stylesheet href="2K574 =0 >1J5:B.css" type="text/css"?>
<svg xmlns="http://www.w3.org/2000/svg" viewBox="0 0 54968.4 46511.7" clip-rule="evenodd" fill-rule="evenodd" image-rendering="optimizeQuality" shape-rendering="geometricPrecision" text-rendering="geometricPrecision">
  <path fill="rgb(100, 101, 103)" d="M54227 28187h-743V12315c342 166 631 374 1009 139a625 625 0 00298-529V9406c0-244-145-466-371-568l-2215-1008V3756c0-347-288-627-643-627h-3826a635 635 0 00-643 627v1748L35096 45a656 656 0 00-587 21L22957 6393a624 624 0 00-328 547v2519c0 486 538 777 959 547l348-191-6 16496h1293V9132c0-44 8797-4838 9629-5294l17347 7894v16457l-22309-1 1514 1254h22825c990 0 982-1255-1-1255zM26433 40598c-790 0-1540 309-2107 869a2942 2942 0 00-882 2094c0 791 309 1528 882 2094a2996 2996 0 002107 869c1620 0 2936-1330 2936-2963s-1317-2963-2936-2963zm0 4609c-908 0-1672-751-1672-1646s764-1646 1672-1646c896 0 1620 737 1620 1646s-724 1646-1620 1646zm764-14478a639 639 0 00-441-171h-3378a660 660 0 00-658 658v5399c0 362 296 658 658 658h5359c362 0 658-296 658-658v-3615c0-184-79-362-217-487l-1982-1784zm882 5228h-4042v-4089h2462l1580 1422v2666zm-17724 4642c-790 0-1541 309-2107 869a2942 2942 0 00-882 2094c0 791 309 1528 882 2094a2996 2996 0 002107 869c1620 0 2936-1330 2936-2963s-1317-2963-2936-2963zm0 4609c-909 0-1673-751-1673-1646s764-1646 1673-1646c895 0 1620 737 1620 1646s-724 1646-1620 1646zm-4391-3799H4641v-1751c0-362-296-659-658-659a660 660 0 00-658 659v2409c0 362 296 658 658 658h1982c362 0 658-296 658-658s-296-658-658-658zm3338-3588c0-362-296-658-658-658H658a660 660 0 00-658 658c0 362 296 658 658 658h7986c362 0 658-290 658-658zm-7308-2377l7986 46c362 0 658-290 665-652 7-369-290-665-652-665l-7986-46h-7a654 654 0 00-658 652 652 652 0 00652 665zm1343-2989h7986c362 0 658-296 658-658s-296-659-658-659H3337a660 660 0 00-658 659c0 362 296 658 658 658zm28752-889l-4714-3904a650 650 0 00-422-151h-5543v-2370c0-362-296-658-658-658H3983a660 660 0 00-658 658v4820c0 362 296 658 658 658s658-296 658-658v-4161h15459v15610h-5399a660 660 0 00-658 658c0 362 296 658 658 658h8039c362 0 658-296 658-658s-296-658-658-658h-1323V28828h5307l4293 3555-46 9013h-685a660 660 0 00-658 658c0 362 296 658 658 658h1337c362 0 658-290 658-652l53-9981c-7-197-92-389-244-514zm5975-24397c-25-258-158-394-368-517l-2224-1012c-267-121-455-50-690 81l-7938 4347a626 626 0 00-328 561l-1 5035c0 347 288 627 643 627h10265c355 0 643-281 643-627V7220zm-10262 3815l3846-2107v6162h-3846zm5133 4055V8173l2296-1257 1551 706v7417zm17626-2532L40316 7845c-96-44-197-63-297-59a638 638 0 00-665 627v7253c0 346 288 627 643 627h10292c355 0 643-281 643-627v-2590c0-383-190-387-372-569zm-9921-3130l3860 1756v3905h-3860V9376zm9005 5662h-3860v-3320l3860 1756zm643 2491H39996a635 635 0 00-643 627v8159c0 347 288 627 643 627h10292c355 0 643-281 643-627v-8159c0-347-288-627-643-627zm-9649 1255h3860v6904h-3860zm9005 6904h-3860v-6905h3860zm-12222-8159H27157a635 635 0 00-643 627v8153h439c169 0 341 26 512 76 37 9 75 20 112 33 157 56 307 135 447 235 39 26 78 54 115 84l248 205h9036c355 0 643-281 643-627v-8159c0-347-288-627-643-627zm-9622 1255h3846v6904h-3846zm8979 6904h-3846v-6905h3846zM48378 6067V4383h2540v2862c-242-110-2540-1123-2540-1178zM23914 7307l10936-5989 18654 8488v1135L35094 2565a660 660 0 00-587 21L23914 8388z"/>
</svg>
