<svg
   xmlns="http://www.w3.org/2000/svg"
   xmlns:xlink="http://www.w3.org/1999/xlink"
   width="120"
   height="120"
   version="1.1">
  <path style="fill-rule:evenodd;fill:#ffffff" d="m 43.285145,97.593265 c -1.384,-0.432 -1.986,1.625 -0.53,2.079 l 2.003,0.569995 c 1.337,0.35 2.017,-1.680995 0.341,-2.123995 -0.61,-0.163 -1.213,-0.336 -1.814,-0.525 z m 13.311,-79.886 c 1.481,0.031 1.394,-2.111 -0.02,-2.143 l -2.128,0.005 c -1.313,0.033 -1.576,2.175 0.31,2.135 z m -27.763,71.77 c -1.116,-0.951 -2.41,0.747 -1.397,1.623 l 1.692,1.397 c 1.133,0.885 2.447,-0.798 1.204,-1.779 z m 24.595,12.086995 c 1.288,0.065 1.775,-2.042995 -0.157,-2.151995 l -1.824,-0.144 c -1.349,-0.131 -1.782,1.982995 0.047,2.155995 z m 33.515,-16.724995 c -0.867,1.049 0.648,2.575 1.795,1.193 0.716,-0.863 1.812,-1.89 1.273,-2.752 -0.397,-0.633 -1.318,-0.68 -1.766,-0.075 z m 4.842,-5.664 c 0.637,0.674 1.428,0.34 1.856,-0.468 l 0.862,-1.72 c 0.628,-1.33 -1.355,-2.137 -1.973,-0.838 -0.386,0.811 -1.501,2.208 -0.745,3.026 z m 3.012,-8.938 c -0.394,1.345 1.637,2.043 2.11,0.416 0.233,-0.801 0.803,-2.201 0.327,-2.832 -0.623,-0.827 -1.707,-0.374 -1.923,0.514 z m 1.539,-8.195 c -0.119,1.485 2.025,1.515 2.142,0.089 l 0.122,-2.106 c 0.039,-1.43 -2.087,-1.522 -2.147,0.086 z m -0.141,-8.335 c 0.177,1.381 2.3,1.177 2.119,-0.333 l -0.267,-1.86 c -0.286,-1.724 -2.407,-1.421 -2.113,0.35 z m -1.828,-8.13 c 0.402,1.203 2.593,0.935 1.928,-0.987 l -0.653,-1.766 c -0.46,-1.143 -2.617,-0.833 -1.885,1.061 z m -3.447,-7.585 c 0.731,1.227 2.582,0.162 1.781,-1.197 l -1.09,-1.755 c -0.808,-1.222 -2.523,0.053 -1.792,1.174 z m -4.916,-6.733 c 0.998,1.08 2.53,-0.399 1.503,-1.533 l -1.421,-1.497 c -0.294,-0.293 -0.731,-0.395 -1.123,-0.252 -1.869,0.677 0.313,2.472 1.041,3.282 z m -6.172,-5.604 c 1.137,0.822 2.44,-0.869 1.162,-1.804 l -1.694,-1.18 c -1.118,-0.743 -2.506,0.898 -0.985,1.918 z m -7.176,-4.235 c 1.273,0.572 2.27,-1.324 0.701,-2.035 l -1.833,-0.78 c -1.343,-0.534 -2.113,1.457 -0.66,2.043 z m -7.89,-2.684 c 1.396,0.302 1.909,-1.768 0.291,-2.13 l -1.952,-0.363 c -1.49,-0.249 -1.74,1.837 -0.279,2.098 z m -50.042,41.501 c -0.074,-1.403 -2.209,-1.415 -2.131,0.324 l 0.133,1.963 c 0.042,0.435 0.344,0.804 0.764,0.926 1.817,0.531 1.282,-2.058 1.234,-3.213 z m 1.176,8.256 c -0.362,-1.428 -2.404,-0.785 -2.069,0.556 l 0.578,2.085 c 0.368,1.174 2.543,1.043 1.963,-0.91 z m 2.833,7.833 c -0.636,-1.307 -2.553,-0.346 -1.856,1.084 l 0.934,1.805 c 0.672,1.224 2.6,0.304 1.782,-1.207 z m 4.368,7.099 c -0.879,-1.126 -2.597,0.143 -1.586,1.452 0.413,0.532 0.833,1.05 1.267,1.564 0.942,1.11 2.501,-0.363 1.631,-1.389 z m 12.531,10.863 c -1.286,-0.703 -2.207,1.224 -1.037,1.875 l 1.942,1.022 c 1.29,0.635 2.233,-1.28 0.816,-1.986 z" />
  <path style="fill-rule:evenodd;fill:#ffffff" d="m 82.547078,99.542299 c 0.033,0.12 0.05,0.244 0.05,0.374 0,0.764001 -0.613,1.384001 -1.368,1.384001 -0.755,0 -1.368,-0.62 -1.368,-1.384001 0,-0.135 0.019,-0.265 0.055,-0.389 v -2.58 c 0,-2.376 1.272,-4.537 2.215,-6.624 0.353,-0.781 0.416,-1.428 0.416,-2.276 0,-0.549 -0.092,-1.089 -0.274,-1.601 l -1.608,-4.523 c -0.197,-0.551 -0.689,-0.922 -1.224,-0.922 h -5.04 c -1.311,0 -2.379,1.182 -2.379,2.635 0,2.715 3.094,2.91 4.968,3.43 l 1.514,5.032 c 0.168,0.231 0.267,0.515 0.267,0.823 0,0.765 -0.612,1.384 -1.368,1.384 -0.691,0 -1.261,-0.518 -1.354,-1.191 l -0.01,0.003 -1.088,-3.611 c -1.453,-0.403 -2.734,-0.59 -3.899,-1.751 -0.769,0.815 -1.745,1.229 -2.806,1.167 -0.288,2.176 -2.122,3.983 -4.117,3.983 -1.01,0 -2.02,-0.425 -2.79,-1.277 l -4.946,-5.479 c 0.744,4.937 3.79,7.999 3.79,13.598 v 0.196 h -0.009 v 0 c 0,0.764001 -0.612,1.384001 -1.368,1.384001 -0.756,0 -1.368,-0.62 -1.368,-1.384001 0,-0.192 0.039,-0.374 0.108,-0.54 -0.107,-3.269 -1.693,-6.411 -2.856995,-9.387 -0.72,-1.84 -1.084,-3.788 -1.084,-5.793 v -3.221 -0.115 c 0,-2.443 1.77,-4.257 3.945995,-4.256 v -0.115 c 0,-5.125 4.705,-4.706 5.262,-4.371 0,-3.689 3.881,-5.156 6.578,-3.885 v -6.928 c 0,-6.706 9.209,-6.705 9.209,0 v 16.756 h 0.84 c 1.632,0 3.073,1.086 3.672,2.768 l 1.608,4.522 c 0.366,1.029 0.458,1.901 0.458,2.99 0,1.123 -0.241,2.251 -0.695,3.255 -0.661,1.465 -1.936,3.715 -1.936,5.323 z m -66.960995,-46.205 v 0 c -0.673,0.348 -1.497,0.079 -1.842,-0.602 -0.344,-0.68 -0.078,-1.514 0.594,-1.863 v 0 l 5.386,-2.792 v 0 c 0.672,-0.348 1.497,-0.079 1.841,0.601 0.344,0.681 0.079,1.515 -0.594,1.864 v 0 z m 35.898,-13.916 c 0,-8.347 -6.709,-15.136 -14.955,-15.136 -8.247,0 -14.956,6.789 -14.956,15.136 0,5.043 2.525,9.774 6.648,12.571 v 2.65 c -1.895,0.391 -3.324,2.089 -3.324,4.119 0,1.497 0.781,2.802 1.946,3.548 -0.176,0.467 -0.284,0.968 -0.284,1.498 0,2.318 1.863,4.204 4.154,4.204 h 11.632 c 2.291,0 4.154,-1.886 4.154,-4.204 0,-0.53 -0.108,-1.031 -0.284,-1.498 1.165,-0.746 1.946,-2.051 1.946,-3.548 0,-2.032 -1.429,-3.728 -3.324,-4.119 v -2.65 c 4.123,-2.797 6.647,-7.528 6.647,-12.571 z m -14.955,-2.506 c 1.359,0 2.461,1.115 2.461,2.491 0,1.375 -1.102,2.491 -2.461,2.491 -1.359,0 -2.462,-1.116 -2.462,-2.491 0,-1.376 1.103,-2.491 2.462,-2.491 z m -7.419,23.113 v 0 c -0.756,0 -1.368,-0.62 -1.368,-1.385 0,-0.764 0.612,-1.384 1.368,-1.384 v 0 h 14.58 v 0 c 0.755,0 1.367,0.62 1.367,1.384 0,0.765 -0.612,1.385 -1.367,1.385 v 0 z m 1.31,5.604 v 0 c -0.755,0 -1.368,-0.62 -1.368,-1.384 0,-0.765 0.613,-1.385 1.368,-1.385 v 0 h 11.728 v 0 c 0.756,0 1.368,0.62 1.368,1.385 0,0.764 -0.612,1.384 -1.368,1.384 v 0 z m 11.923,-16.026 c -0.674,0.395 -0.829,0.256 -0.829,0.994 v 3.957 h -3.323 v -10.401 c 1.929,-0.696 3.323,-2.546 3.323,-4.736 0,-2.781 -2.237,-5.045 -4.985,-5.045 -2.749,0 -4.985,2.264 -4.985,5.045 0,2.19 1.394,4.04 3.323,4.736 v 10.401 h -3.323 v -3.971 c 0,-0.722 -0.169,-0.594 -0.829,-0.98 -3.588,-2.105 -5.818,-6.008 -5.818,-10.185 0,-6.49 5.219,-11.773 11.632,-11.773 6.412,0 11.631,5.283 11.631,11.773 0,4.177 -2.23,8.08 -5.817,10.185 z m 15.406995,3.731 v 0 c 0.673,0.348 1.497,0.079 1.841,-0.601 0.345,-0.681 0.079,-1.515 -0.594,-1.864 v 0 l -5.384995,-2.792 v 0 c -0.673,-0.348 -1.497,-0.079 -1.842,0.602 -0.344,0.68 -0.078,1.514 0.595,1.863 v 0 z m -7.550995,-35.467 v 0 c 0.369,-0.667 0.135,-1.511 -0.525,-1.884 -0.659,-0.374 -1.492,-0.136 -1.861,0.53 h -10e-4 l -2.958,5.343 v 0 c -0.37,0.667 -0.135,1.511 0.524,1.884 0.659,0.375 1.493,0.137 1.862,-0.53 v 0 z m 8.666995,9.547 v 0 c 0.628,-0.425 0.796,-1.286 0.376,-1.921 -0.42,-0.636 -1.27,-0.806 -1.898,-0.381 v 0 l -5.027995,3.407 v 0 c -0.628,0.425 -0.797,1.285 -0.376,1.921 0.42,0.635 1.27,0.805 1.897,0.38 v 0 z m 2.914,13.614 v 0 c 0.756,0.002 1.37,-0.615 1.373,-1.379 0.002,-0.765 -0.608,-1.387 -1.364,-1.39 v 0 l -6.051,-0.02 v 0 c -0.754995,-0.003 -1.369995,0.615 -1.371995,1.38 -0.003,0.764 0.608,1.387 1.362995,1.389 v 0 z m -26.472995,-27.318 v -10e-4 c 0,-0.764 0.612,-1.384 1.368,-1.384 0.755,0 1.368,0.62 1.368,1.385 v 0 6.124 0 c 0,0.764 -0.613,1.384 -1.368,1.384 -0.756,0 -1.368,-0.62 -1.368,-1.384 v 0 z m -12.17,4.157 v 0 c -0.37,-0.667 -0.135,-1.511 0.524,-1.884 0.659,-0.374 1.493,-0.136 1.862,0.53 v 0 l 2.959,5.343 v 0 c 0.369,0.666 0.134,1.51 -0.525,1.884 -0.658,0.374 -1.492,0.136 -1.862,-0.531 v 0 z m -8.667,9.546 v 0 c -0.628,-0.425 -0.796,-1.285 -0.376,-1.921 0.42,-0.635 1.269,-0.805 1.897,-0.38 v 0 l 5.029,3.407 v 0 c 0.628,0.425 0.796,1.285 0.376,1.92 -0.42,0.635 -1.27,0.806 -1.897,0.381 h -10e-4 z m -2.915,13.615 v 0 c -0.755,0.002 -1.369,-0.615 -1.372,-1.38 -0.003,-0.765 0.608,-1.386 1.363,-1.389 v 0 l 6.052,-0.02 v 0 c 0.755,-0.003 1.369,0.615 1.372,1.38 0.002,0.764 -0.608,1.386 -1.364,1.389 v 0 z m 51.643995,48.537 -6.608,-7.319 c -1.236995,-1.371 0.697,-3.857 2.086,-2.311 l 6.607,7.319 c 1.255,1.385 -0.843,3.686 -2.085,2.311 z m 5.895,-3.785 -0.026,0.019 c -0.48,0.353 -1.121,0.284 -1.528,-0.167 l -7.003,-7.757 c -0.228,-0.254 -0.354,-0.591 -0.354,-0.95 0,-2.678 3.189,-1.894 3.648,-1.221 l 5.538,8.169 c 0.01,0.015 0.02,0.04 0.03,0.04 0.002,0 0.002,0 0.004,0 0.001,0.003 0.128,0.946 0.165,1.105 -0.176,0.264 -0.068,0.447 -0.474,0.762 z m 2.927,-7.27 c 10e-4,0.404 -1.153,1.032 -1.696,2.488 -0.001,0 -0.002,0 -0.003,0 l -4.382,-6.895 c -1.914,-3.639 2.044,-4.108 2.792,-2.613 0.289,0.617 3.289,7.004 3.289,7.02 z m 3.948,-0.425 h -0.688 l -3.259,-6.495 v -10.261 c 0,-2.873 3.947,-2.873 3.947,0 z" />
</svg>
