<svg
   xmlns="http://www.w3.org/2000/svg"
   xmlns:xlink="http://www.w3.org/1999/xlink"
   width="120"
   height="120"
   version="1.1">
  <path style="fill-rule:evenodd;fill:#ffffff" d="m 61.487646,17.125806 c 1.498,0.031 1.41,-2.111 -0.02,-2.143 l -2.152,0.005 c -1.329,0.033 -1.594,2.175 0.313,2.135 z m 38.211,27.869 c 0.406004,1.204 2.622004,0.936 1.950004,-0.986 l -0.66,-1.766 c -0.466,-1.144 -2.647004,-0.833 -1.907004,1.061 z m -3.488,-7.585 c 0.74,1.228 2.612,0.163 1.802,-1.197 l -1.103,-1.754 c -0.816,-1.222 -2.552,0.053 -1.812,1.174 z m -4.972,-6.732 c 1.009,1.081 2.559,-0.399 1.52,-1.532 l -1.437,-1.498 c -0.298,-0.294 -0.741,-0.395 -1.137,-0.252 -1.891,0.677 0.317,2.472 1.054,3.282 z m -6.244,-5.603 c 1.149,0.821 2.468,-0.87 1.175,-1.805 l -1.713,-1.18 c -1.132,-0.743 -2.535,0.898 -0.997,1.917 z m -7.259,-4.236 c 1.287,0.572 2.296,-1.323 0.709,-2.035 l -1.855,-0.78 c -1.359,-0.534 -2.137,1.458 -0.668,2.043 z m -7.983,-2.684 c 1.413,0.302 1.931,-1.768 0.295,-2.13 l -1.975,-0.363 c -1.507,-0.249 -1.76,1.837 -0.283,2.098 z m -16.78,-0.369 c 1.473,-0.271 0.946,-2.351 -0.461,-2.094 l -2.106,0.439 c -1.294,0.3 -1.113,2.45 0.747,2.027 z m -8.088,2.334 c 0.983,-0.412 0.848,-1.818 -0.199,-2.039 -0.66,-0.132 -1.989,0.626 -2.664,0.94 -1.277,0.593 -0.409,2.551 1.03,1.888 z m -7.448,3.918 c 1.094,-0.725 0.179,-2.713 -1.452,-1.615 l -1.573,1.11 c -1.117,0.838 0.123,2.579 1.376,1.657 z m -6.491,5.324 c 0.925,-0.936 -0.381,-2.69 -1.746,-1.298 l -1.319001,1.405 c -0.969,1.097 0.682,2.462 1.691001,1.344 z m -5.268001,6.508 c 0.706,-1.083 -0.911,-2.581 -1.985,-0.909 l -0.996,1.628 c -0.736,1.27 1.193,2.241 1.918,1.001 z m -3.821,7.424 c 0.514,-1.339 -1.503,-2.116 -2.078999,-0.623 l -0.691,1.929 c -0.44,1.324 1.578999,2.095 2.117999,0.493 z" />
  <path style="fill-rule:evenodd;fill:#ffffff" d="m 88.549899,109.89328 c -0.078,0.873 -0.793,1.555 -1.664,1.555 -0.677,0 -1.259,-0.411 -1.522,-1.003 l -0.05,0.009 c -0.002,-0.049 -0.002,-0.096 -0.003,-0.144 -0.062,-0.18 -0.097,-0.374 -0.097,-0.574 0,-0.224 0.042,-0.438 0.119,-0.633 0.541,-8.27501 8.915,-15.841982 12.488,-22.528982 1.083,-2.027 0.893,-2.446 0.888,-4.662 v -12.954 c -0.165,0 0.449,-17.177 -0.189,-18.841 -0.835,-2.176 -3.115,-2.437 -4.125,-0.357 l -0.142,17.95 c -0.096,6.261 -5.535,13.665 -9.036,18.54 -3.218,4.483 -9.983,1.112 -8.396,-1.852 0.517,-1.022 2.004,-3.404 3.658,-5.909 1.458,-2.207 3.084,-4.568 4.321,-6.222 0.046,-0.122 0.346,-3.07 -1.932,-2.76 -0.565,0.077 -1.185,0.347 -1.795,0.806 -1.037,1.65 -2.693,3.977 -4.517,6.539 -4.342,6.103 -9.695,13.624 -9.403,15.407 0.021,0.13 0.027,0.259 0.02,0.385 l 0.041,17.383982 -0.03,-0.002 c -0.135,0.807 -0.821,1.422 -1.648,1.422 -0.923,0 -1.671,-0.767 -1.671,-1.712 0,-0.135 0.015,-0.266 0.044,-0.392 l -0.04,-16.673982 c -0.258,-5.086 10.926,-18.313 14.54,-24.377 1.095,-1.838 7.19,-4.148 9.23,0.803 0.443,1.075 0.612,2.432 0.393,4.059 h -0.003 c -0.098,0.735 -3.428,5.151 -4.804,7.233 -1.167,1.767 -2.229,3.432 -2.891,4.54 0.821,0.53 1.885,-0.224 2.544,-1.139 3.179,-4.424 7.994,-11.121 8.072,-16.132 l 0.16,-18.422 h 0.003 c 0.139,-2.001 3.453,-5.479 7.244,-3.877 1.368,0.578 2.568021,1.759 3.245011,3.524 0.715,1.86 0.417,14.752 0.417,20.076 l -0.003,13.717 c 0.013,2.633 0.015,3.071 -1.29299,5.519 -2.709021,5.067 -11.723021,15.048982 -11.971021,19.567982 l -0.136,2.12 z m -30.619,-58.961982 -12.371,-8.502 c -0.765,-0.526 -0.719,-2.092 0.103,-3.497 0.419,-0.718 0.96,-1.256 1.491,-1.539 l 13.599,-8.614 c 0.631,-0.4 1.26,-0.468 1.874,0 l 11.318,8.614 c 0.448,0.283 0.888,0.766 1.501,1.428 1.323,1.089 0.983,2.75 -0.703,3.608 l -12.442,8.502 c -1.922,1.394 -4.15,0.152 -4.37,0 z m -0.659,-4.968 1.294,-10.951 -8.785,5.544 z m -11.623,-0.964 11.561,8.524 c 1.04,0.766 1.89,2.35 1.89,3.518 v 12.226 c 0,1.168 -0.85,1.497 -1.89,0.73 l -11.561,-8.524 c -1.04,-0.767 -1.891,-2.35 -1.891,-3.518 v -12.227 c 0,-1.168 0.851,-1.496 1.891,-0.729 z m 29.776,0 -11.561,8.524 c -1.04,0.766 -1.891,2.35 -1.891,3.518 v 12.226 c 0,1.168 0.851,1.497 1.891,0.73 l 11.561,-8.524 c 1.04,-0.767 1.891,-2.35 1.891,-3.518 v -12.227 c 0,-1.168 -0.851,-1.496 -1.891,-0.729 z m -26.819,5.791 5.646,4.163 c 0.394,0.291 0.716,0.89 0.716,1.333 v 4.63 c 0,0.442 -0.322,0.566 -0.716,0.276 l -5.646,-4.164 c -0.393,-0.29 -0.716,-0.889 -0.716,-1.331 v -4.631 c 0,-0.443 0.323,-0.566 0.716,-0.276 z m -16.019,59.102982 c 0.078,0.873 0.793,1.555 1.664,1.555 0.676,0 1.258,-0.411 1.522,-1.003 l 0.049,0.009 c 0.003,-0.049 0.003,-0.096 0.004,-0.144 0.062,-0.18 0.096,-0.374 0.096,-0.574 0,-0.224 -0.042,-0.438 -0.118,-0.633 -0.541,-8.27501 -8.915,-15.841982 -12.489,-22.528982 -1.083,-2.027 -0.892,-2.446 -0.887,-4.662 v -12.954 c 0.165,0 -0.449,-17.177 0.189,-18.841 0.835,-2.176 3.114,-2.437 4.124,-0.357 l 0.142,17.95 c 0.098,6.261 5.535,13.665 9.036,18.54 3.218,4.483 9.984,1.112 8.396,-1.852 -0.517,-1.022 -2.003,-3.404 -3.658,-5.909 -1.457,-2.207 -3.083,-4.568 -4.32,-6.222 -0.045,-0.122 -0.347,-3.07 1.931,-2.76 0.566,0.077 1.187,0.347 1.796,0.806 1.036,1.65 2.693,3.977 4.516,6.539 4.343,6.103 9.695,13.624 9.403,15.407 -0.021,0.13 -0.027,0.259 -0.019,0.385 l -0.041,17.383982 0.03,-0.002 c 0.135,0.807 0.821,1.422 1.648,1.422 0.922,0 1.671,-0.767 1.671,-1.712 0,-0.135 -0.016,-0.266 -0.044,-0.392 l 0.039,-16.673982 c 0.259,-5.086 -10.925,-18.313 -14.54,-24.377 -1.095,-1.838 -7.189,-4.148 -9.229,0.803 -0.442,1.075 -0.612,2.432 -0.393,4.059 h 0.002 c 0.098,0.735 3.429,5.151 4.804,7.233 1.168,1.767 2.23,3.432 2.892,4.54 -0.82,0.53 -1.886,-0.224 -2.544,-1.139 -3.18,-4.424 -7.994,-11.121 -8.072,-16.132 l -0.16,-18.422 h -0.003 c -0.139,-2.001 -3.454,-5.479 -7.244,-3.877 -1.369,0.578 -2.569,1.759 -3.246,3.524 -0.714,1.86 -0.416,14.752 -0.416,20.076 l 0.004,13.717 c -0.014,2.633 -0.016,3.071 1.291,5.519 2.709,5.067 11.723,15.048982 11.972,19.567982 l 0.135,2.12 z" />
</svg>
