<svg
   xmlns="http://www.w3.org/2000/svg"
   xmlns:xlink="http://www.w3.org/1999/xlink"
   width="120"
   height="120"
   version="1.1">
  <path style="fill-rule:evenodd;fill:#ffffff" d="m 48.022646,97.011806 c -1.4,-0.431 -2.01,1.626 -0.537,2.079 l 2.027,0.571 c 1.353,0.349004 2.04,-1.681 0.344,-2.125 -0.616,-0.163 -1.226,-0.336 -1.834,-0.525 z m 38.146,-6.908 c -1.074,0.85 0.111,2.653 1.531,1.533 0.886,-0.698 2.185,-1.48 1.829,-2.434 -0.263,-0.701 -1.165,-0.934 -1.733,-0.435 z m -24.681,-72.978 c 1.498,0.031 1.41,-2.111 -0.02,-2.143 l -2.152,0.005 c -1.329,0.033 -1.594,2.175 0.313,2.135 z m -28.086,71.77 c -1.128,-0.951 -2.438,0.747 -1.413,1.623 l 1.712,1.396 c 1.147,0.886 2.476,-0.796 1.218,-1.778 z m 24.882,12.087004 c 1.303,0.065 1.795,-2.044004 -0.159,-2.153004 l -1.845,-0.143 c -1.365,-0.13 -1.803,1.983004 0.047,2.156004 z m 4.548,-2.151004 c -1.252,0.083 -1.651,2.252004 0.458,2.119004 l 1.88,-0.159 c 1.361,-0.146 1.356,-2.290004 -0.46,-2.106004 z m 8.325,-1.313 c -1.345,0.357 -0.871,2.451 0.672,2.039 l 2.023,-0.592 c 1.322,-0.429 0.832,-2.507 -0.886,-1.968 z m 7.877,-2.964 c -1.27,0.641 -0.376,2.595 1.183,1.809 l 1.757,-0.937 c 1.247,-0.708 0.215,-2.579 -1.203,-1.788 z m 13.154,-10.296 c -0.876,1.048 0.656,2.574 1.816,1.191 0.724,-0.862 1.834,-1.889 1.288,-2.75 -0.401,-0.634 -1.334,-0.68 -1.787,-0.077 z m 4.898,-5.665 c 0.645,0.674 1.446,0.34 1.879,-0.468 l 0.872,-1.72 c 0.635004,-1.33 -1.371,-2.137 -1.997,-0.838 -0.39,0.811 -1.518,2.207 -0.754,3.026 z m 3.047004,-8.938 c -0.398004,1.345 1.656,2.043 2.135,0.416 0.236,-0.801 0.812,-2.201 0.331,-2.832 -0.63,-0.827 -1.727,-0.374 -1.946,0.514 z m 1.557,-8.194 c -0.12,1.484 2.049,1.514 2.167,0.088 l 0.123,-2.105 c 0.04,-1.431 -2.11,-1.523 -2.171,0.085 z m -0.142,-8.336 c 0.178,1.381 2.326,1.177 2.143,-0.333 l -0.27,-1.86 c -0.289,-1.724 -2.435,-1.421 -2.138,0.35 z m -1.849004,-8.131 c 0.406004,1.204 2.622004,0.936 1.950004,-0.986 l -0.66,-1.766 c -0.466,-1.144 -2.647004,-0.833 -1.907004,1.061 z m -3.488,-7.585 c 0.74,1.228 2.612,0.163 1.802,-1.197 l -1.103,-1.754 c -0.816,-1.222 -2.552,0.053 -1.812,1.174 z m -4.972,-6.732 c 1.009,1.081 2.559,-0.399 1.52,-1.532 l -1.437,-1.498 c -0.298,-0.294 -0.741,-0.395 -1.137,-0.252 -1.891,0.677 0.317,2.472 1.054,3.282 z m -6.244,-5.603 c 1.149,0.821 2.468,-0.87 1.175,-1.805 l -1.713,-1.18 c -1.132,-0.743 -2.535,0.898 -0.997,1.917 z m -7.259,-4.236 c 1.287,0.572 2.296,-1.323 0.709,-2.035 l -1.855,-0.78 c -1.359,-0.534 -2.137,1.458 -0.668,2.043 z m -7.983,-2.684 c 1.413,0.302 1.931,-1.768 0.295,-2.13 l -1.975,-0.363 c -1.507,-0.249 -1.76,1.837 -0.283,2.098 z m -16.78,-0.369 c 1.473,-0.271 0.946,-2.351 -0.461,-2.094 l -2.106,0.439 c -1.294,0.3 -1.113,2.45 0.747,2.027 z m -8.088,2.334 c 0.983,-0.412 0.848,-1.818 -0.199,-2.039 -0.66,-0.132 -1.989,0.626 -2.664,0.94 -1.277,0.593 -0.409,2.551 1.03,1.888 z m -7.448,3.918 c 1.094,-0.725 0.179,-2.713 -1.452,-1.615 l -1.573,1.11 c -1.117,0.838 0.123,2.579 1.376,1.657 z m -6.491,5.324 c 0.925,-0.936 -0.381,-2.69 -1.746,-1.298 l -1.319,1.405 c -0.969,1.097 0.682,2.462 1.691,1.344 z m -5.268,6.508 c 0.706,-1.083 -0.911,-2.581 -1.985,-0.909 l -0.996,1.628 c -0.736,1.27 1.193,2.241 1.918,1.001 z m -3.821,7.424 c 0.514,-1.339 -1.503,-2.116 -2.079,-0.623 l -0.691,1.929 c -0.44,1.324 1.579,2.095 2.118,0.493 z m -2.208,8.042 c 0.218,-1.401 -1.903,-1.814 -2.173,-0.138 l -0.271,1.977 c -0.163,1.46 1.999,1.577 2.163,0.161 z m -0.52,8.321 c -0.074,-1.404 -2.234,-1.417 -2.155,0.323 l 0.134,1.963 c 0.043,0.435 0.349,0.804 0.773,0.926 1.839,0.531 1.297,-2.057 1.248,-3.212 z m 1.19,8.255 c -0.366,-1.428 -2.432,-0.784 -2.093,0.556 l 0.585,2.085 c 0.372,1.175 2.572,1.043 1.986,-0.911 z m 2.866,7.833 c -0.643,-1.307 -2.582,-0.346 -1.877,1.084 l 0.944,1.805 c 0.681,1.223 2.63,0.305 1.803,-1.207 z m 4.419,7.099 c -0.89,-1.125 -2.628,0.143 -1.604,1.452 0.417,0.531 0.842,1.049 1.281,1.563 0.953,1.111 2.531,-0.362 1.651,-1.388 z m 12.676,10.864 c -1.3,-0.704 -2.232,1.223 -1.048,1.874 l 1.964,1.022 c 1.305,0.635 2.259,-1.28 0.825,-1.986 z" />
  <path style="fill-rule:evenodd;fill-opacity:0;stroke:#ffffff;stroke-width:2px" d="m 82.820288,48.832505 -29.741,29.984001 -15.247,-15.237 6.829,-7.237 8.256,8.251 22.66,-22.791001 z" />
</svg>
