<?xml-stylesheet href="<>=B06.css" type="text/css"?>
<svg xmlns="http://www.w3.org/2000/svg" viewBox="0 0 36765 45721.5" clip-rule="evenodd" fill-rule="evenodd" image-rendering="optimizeQuality" shape-rendering="geometricPrecision" text-rendering="geometricPrecision">
  <path fill="rgb(100, 101, 103)" d="M35852 20784c471-628-484-1347-957-718-4 6-570 762-1692 1872h-615v590a31295 31295 0 01-9040 5834c-7586 3216-22164 3994-22206 3996-786 44-719 1239 66 1195 7 0 411-22 1113-72v400h-614a868 868 0 00-808 1176 866 866 0 00288 1581v546A3133 3133 0 000 39776a3124 3124 0 003121 3121 3124 3124 0 003121-3121c0-1040-527-2015-1387-2592v-546a866 866 0 00288-1581 868 868 0 00-808-1176h-614v-492c2021-166 5154-473 8526-990v1903c-37 119-59 251-59 395-817 178-659 1003-659 1637h2637c0-634 157-1460-659-1637 0-145-22-280-60-400v-2088c3191-530 6501-1252 9217-2221v428h-614a868 868 0 00-808 1176 866 866 0 00288 1581v546a3133 3133 0 00-1387 2592 3124 3124 0 003121 3121 3124 3124 0 003121-3121c0-1040-527-2015-1387-2592v-546a866 866 0 00288-1581 868 868 0 00-808-1176h-614v-889l150-62a32651 32651 0 008576-5337v791c-37 119-59 251-59 395-817 178-659 1003-659 1637h2637c0-634 157-1460-659-1637 0-145-22-280-60-400v-1880c1368-1317 2060-2242 2064-2249zM191 1022c-566-544 261-1407 829-862 13 12 4583 4425 12532 6367 8004 1956 22517 384 22559 380 783-83 909 1107 126 1190-10 1-933 101-2440 219v686h614a868 868 0 01808 1176 866 866 0 01-288 1581v546a3133 3133 0 011387 2592 3124 3124 0 01-3121 3121 3124 3124 0 01-3121-3121c0-1040 527-2015 1387-2592v-546a866 866 0 01-288-1581 868 868 0 01808-1176h614v-598c-2300 159-5450 316-8731 294v2499c37 119 59 251 59 395 817 178 659 1003 659 1637h-2637c0-634-157-1460 659-1637 0-145 22-280 60-400V8683c-3223-65-6487-322-9126-931v666h614a868 868 0 01808 1176 866 866 0 01-288 1581v546a3133 3133 0 011387 2592 3124 3124 0 01-3121 3121 3124 3124 0 01-3121-3121c0-1040 527-2015 1387-2592v-546a866 866 0 01-288-1581 868 868 0 01808-1176h614v-972a32646 32646 0 01-8546-3743v1760c37 119 59 251 59 395 817 178 659 1003 659 1637H1875c0-634-157-1460 659-1637 0-145 22-280 60-400V2916C1028 1833 194 1028 188 1022zm23076 21607c-1121 0-3099-6256-1803-8263 442-684 802-647 1502-647v2776l-967 972-17 18a301 301 0 00421 430l865-868 865 868a302 302 0 00500-226c0-76-28-145-74-198-305-343-664-668-990-995v-2776c700 0 1060-37 1502 647 1300 2014-686 8263-1803 8263zM3196 16894c-1121 0-3099-6256-1803-8263 442-684 802-647 1502-647v2776l-967 972-17 18a301 301 0 00421 430l865-868 865 868a302 302 0 00500-226c0-76-28-145-74-198-305-343-664-668-990-995V7985c700 0 1060-37 1502 647 1300 2014-686 8263-1803 8263zm9746-2065a514 514 0 10-1-1027 514 514 0 001 1027zm-1548-4766a285 285 0 100 571h3042a286 286 0 100-571zm274-1155a286 286 0 100 571h2447a285 285 0 100-571zm2488 3305c-140-81-173-53-173-205v-816h-694v2144c403 144 694 525 694 976a1041 1041 0 01-2080 0c0-451 291-833 694-976v-2144h-694v819c0 149-35 123-173 202a2437 2437 0 00-1214 2100 2430 2430 0 002427 2427 2430 2430 0 002427-2427c0-861-466-1666-1214-2100zm19043 3201a514 514 0 10-1-1027 514 514 0 001 1027zm-1548-4766a285 285 0 100 571h3042a286 286 0 100-571zm274-1155a286 286 0 100 571h2447a285 285 0 100-571zm2488 3305c-140-81-173-53-173-205v-816h-694v2144c403 144 694 525 694 976a1041 1041 0 01-2080 0c0-451 291-833 694-976v-2144h-694v819c0 149-35 123-173 202a2437 2437 0 00-1214 2100 2430 2430 0 002427 2427 2430 2430 0 002427-2427c0-861-466-1666-1214-2100zM3124 40293a514 514 0 111-1027 514 514 0 01-1 1027zm1548-4766a285 285 0 110 571H1630a286 286 0 110-571zm-274-1155a286 286 0 110 571H1951a285 285 0 110-571zm-2488 3305c140-81 173-53 173-205v-816h694v2144a1039 1039 0 00-694 976 1041 1041 0 002080 0c0-451-291-833-694-976v-2144h694v819c0 149 35 123 173 202a2437 2437 0 011214 2100 2430 2430 0 01-2427 2427 2430 2430 0 01-2427-2427c0-861 466-1666 1214-2100zm10939 8057c1121 0 3099-6256 1803-8263-442-684-802-647-1502-647v2776l967 972 17 18a301 301 0 01-421 430l-865-868-865 868a302 302 0 01-500-226c0-76 28-145 74-198 305-343 664-668 990-995v-2776c-700 0-1060-37-1502 647-1300 2014 686 8263 1803 8263zm10415-8906a514 514 0 111-1027 514 514 0 01-1 1027zm1548-4766a285 285 0 110 571h-3042a286 286 0 110-571zm-274-1155a286 286 0 110 571h-2447a285 285 0 110-571zm-2488 3305c140-81 173-53 173-205v-816h694v2144a1039 1039 0 00-694 976 1041 1041 0 002080 0c0-451-291-833-694-976v-2144h694v819c0 149 35 123 173 202a2437 2437 0 011214 2100 2430 2430 0 01-2427 2427 2430 2430 0 01-2427-2427c0-861 466-1666 1214-2100zm11139 2139c1121 0 3099-6256 1803-8263-442-684-802-647-1502-647v2776l967 972 17 18a301 301 0 01-421 430l-865-868-865 868a302 302 0 01-500-226c0-76 28-145 74-198 305-343 664-668 990-995v-2776c-700 0-1060-37-1502 647-1300 2014 686 8263 1803 8263z"/>
</svg>
