<svg
   xmlns="http://www.w3.org/2000/svg"
   xmlns:xlink="http://www.w3.org/1999/xlink"
   width="120"
   height="120"
   version="1.1">
  <path style="fill-rule:evenodd;fill:#ffffff" d="m 45.338966,48.713178 h -26.598 c -5.535,0 -9.417,4.07 -9.521,9.924 1.694,0.867 3.605,1.366 5.635,1.366 h 14.792 c 0.525,-2.573 2.805,-4.516 5.531,-4.516 h 19.193 c 2.491,0 4.517,2.025 4.517,4.516 v 15.806 c 0,2.491 -2.026,4.517 -4.517,4.517 h -19.193 c -2.727,0 -5.006,-1.944 -5.531,-4.517 h -14.792 c -8.0929999,0 -14.6769999,-6.584 -14.6769999,-14.677 v -13.548 c 0,-8.093 6.584,-14.678 14.6769999,-14.678 h 5.646 v -10.161 c 0,-7.197 10.445,-12.419 24.838,-12.419 v 0 c 14.393,0 24.839,5.222 24.839,12.419 v 13.548 c 0,7.197 -10.446,12.42 -24.839,12.42 z m -13.34,11.29 h 2.05 v -1.129 c 0,-0.34 0.065,-0.661 0.159,-0.97 -1.031,0.311 -1.849,1.091 -2.209,2.099 z m 6.566,-1.129 c 0,-0.622 -0.506,-1.129 -1.129,-1.129 -0.623,0 -1.129,0.507 -1.129,1.129 v 1.129 h 2.258 z m 2.05,19.193 h 13.756 c 1.246,0 2.258,-1.012 2.258,-2.258 v -15.806 c 0,-1.245 -1.012,-2.258 -2.258,-2.258 h -13.756 c 0.127,0.355 0.208,0.732 0.208,1.129 v 18.064 c 0,0.398 -0.081,0.775 -0.208,1.129 z m -4.308,-1.129 c 0,0.623 0.506,1.129 1.129,1.129 0.623,0 1.129,-0.506 1.129,-1.129 v -1.129 h -2.258 z m -2.099,0.97 c -0.094,-0.309 -0.159,-0.629 -0.159,-0.97 v -1.129 h -2.05 c 0.36,1.009 1.178,1.788 2.209,2.099 z m -31.7719999,-16.776 c 0,6.848 5.5719999,12.42 12.4189999,12.42 h 23.71 v -11.291 h -4.516 v 4.516 h -2.258 v -4.516 h -2.258 v 4.516 h -2.258 v -4.516 h -2.258 v 9.032 h -2.258 v -9.032 h -2.258 v 4.516 h -2.259 v -4.516 h -2.258 v 4.516 h -2.258 v -4.573 c -4.759,-0.365 -8.8799999,-3.004 -11.2899999,-6.834 z m 42.9029999,-48.549 c -12.662,0 -22.58,4.464 -22.58,10.162 0,5.698 9.918,10.161 22.58,10.161 12.662,0 22.581,-4.463 22.581,-10.161 0,-5.698 -9.919,-10.162 -22.581,-10.162 z m -22.58,15.574 v 4.749 h 7.78 c -3.383,-1.194 -6.048,-2.814 -7.78,-4.749 z m 45.161,0 c -2.626,2.933 -7.406,5.145 -13.549,6.237 v 5.287 h -2.258 v -4.944 c -0.737,0.095 -1.489,0.174 -2.258,0.237 v 4.707 h -2.258 v -4.568 c -0.743,0.029 -1.491,0.051 -2.258,0.051 v 9.032 h -2.258 v -9.032 h -2.258 v 4.517 h -2.258 v -4.517 h -2.258 v 4.517 h -2.258 v -4.517 h -2.258 v 9.032 h -2.258 v -9.032 h -2.258 v 4.517 h -2.258 v -4.517 h -2.258 v 4.517 h -2.258 v -4.517 h -2.259 v 9.032 h -2.258 v -9.032 h -1.129 c -0.381,0 -0.756,0.024 -1.129,0.058 v 4.459 h -2.258 v -4.036 c -5.2049999,1.48 -9.0319999,6.267 -9.0319999,11.939 0,3.89 1.802,7.365 4.611,9.645 0.674,-6.42 5.2869999,-10.775 11.6929999,-10.775 h 26.599 c 12.662,0 22.581,-4.463 22.581,-10.161 z m -22.581,-2.025 c -5.064,0 -9.032,-2.479 -9.032,-5.645 0,-3.166 3.968,-5.645 9.032,-5.645 5.065,0 9.032,2.479 9.032,5.645 0,3.166 -3.967,5.645 -9.032,5.645 z m 0,-9.032 c -3.992,0 -6.774,1.785 -6.774,3.387 0,1.602 2.782,3.387 6.774,3.387 3.992,0 6.774,-1.785 6.774,-3.387 0,-1.602 -2.782,-3.387 -6.774,-3.387 z m 2.258,56.452 h -2.258 v -11.291 h 2.258 z m 4.516,0 h -2.258 v -11.291 h 2.258 z" />
  <path style="fill-rule:evenodd;fill:#ffffff" d="m 43.853999,99.546002 c -1.384,-0.432 -1.986,1.624998 -0.53,2.078998 l 2.003,0.57 c 1.337,0.35 2.017,-1.681 0.341,-2.124 -0.61,-0.162998 -1.213,-0.335998 -1.814,-0.524998 z m 37.708,-6.908 c -1.062,0.85 0.11,2.653 1.514,1.533 0.875,-0.698 2.16,-1.48 1.807,-2.434 -0.259,-0.701 -1.152,-0.934 -1.713,-0.435 z m -52.16,-1.208 c -1.116,-0.951 -2.41,0.747 -1.398,1.623 l 1.693,1.397 c 1.133,0.885 2.447,-0.798 1.204,-1.779 z m 24.595,12.086998 c 1.288,0.065 1.775,-2.043 -0.157,-2.152 l -1.824,-0.144 c -1.349,-0.131 -1.782,1.983 0.047,2.156 z m 4.497,-2.151 c -1.238,0.083 -1.633,2.252 0.451,2.119 l 1.86,-0.159 c 1.345,-0.145 1.339,-2.289 -0.456,-2.106 z m 8.229,-1.313 c -1.33,0.357 -0.862,2.45 0.664,2.039 l 1.999,-0.592 c 1.307,-0.428 0.823,-2.507998 -0.875,-1.968998 z m 7.786,-2.963998 c -1.256,0.641 -0.372,2.594 1.17,1.808 l 1.736,-0.937 c 1.232,-0.707 0.213,-2.578 -1.189,-1.787 z M 87.511999,86.792 c -0.867,1.049 0.648,2.575002 1.795,1.193 0.716,-0.863 1.812,-1.89 1.273,-2.752 -0.397,-0.633 -1.318,-0.68 -1.766,-0.075 z m 4.842,-5.664 c 0.637,0.674 1.428,0.34 1.857,-0.468 l 0.861,-1.72 c 0.628,-1.33 -1.355,-2.137 -1.973,-0.838 -0.386,0.811 -1.501,2.208 -0.745,3.026 z m 3.012,-8.938 c -0.394,1.345 1.637,2.043 2.11,0.416 0.233,-0.801 0.803,-2.201 0.327,-2.832 -0.623,-0.827 -1.707,-0.374 -1.923,0.514 z m 1.539,-8.195 c -0.119,1.485 2.025,1.515 2.142,0.089 l 0.121995,-2.106 c 0.039,-1.43 -2.086995,-1.522 -2.146995,0.086 z m -0.141,-8.335 c 0.177,1.381 2.299,1.177 2.119,-0.333 l -0.267,-1.86 c -0.286,-1.724 -2.407,-1.421 -2.113,0.35 z m -1.828,-8.13 c 0.402,1.203 2.593,0.935 1.928,-0.987 l -0.652,-1.766 c -0.461,-1.143 -2.618,-0.833 -1.886,1.061 z m -3.447,-7.585 c 0.731,1.227 2.582,0.162 1.781,-1.197 l -1.09,-1.755 c -0.808,-1.222 -2.523,0.053 -1.792,1.174 z m -4.915,-6.733 c 0.997,1.08 2.529,-0.399 1.502,-1.533 l -1.421,-1.497 c -0.294,-0.293 -0.731,-0.395 -1.123,-0.252 -1.869,0.677 0.313,2.472 1.042,3.282 z m -6.173,-5.604 c 1.137,0.822001 2.44,-0.869 1.162,-1.804 l -1.694,-1.18 c -1.118,-0.743 -2.506,0.898 -0.985,1.918 z m -7.176,-4.235 c 1.273,0.572 2.27,-1.324 0.701,-2.035 l -1.833,-0.78 c -1.343,-0.534 -2.113,1.457 -0.66,2.043 z M 15.806,53.87 c 0.215999,-1.4 -1.881,-1.813 -2.147,-0.139 l -0.268,1.978 c -0.161,1.461 1.975,1.577 2.137,0.161 z m 3.495999,24.409 c -0.636,-1.307 -2.553,-0.346 -1.855,1.084 l 0.933,1.805 c 0.672,1.224 2.6,0.304 1.782,-1.207 z m 4.368,7.099 c -0.879,-1.126 -2.597,0.143 -1.586,1.452 0.413,0.532 0.833,1.05 1.267,1.564 0.942,1.110002 2.501,-0.363 1.631,-1.389 z m 12.531,10.863002 c -1.286,-0.703 -2.207,1.224 -1.037,1.875 l 1.942,1.022 c 1.29,0.635 2.233,-1.28 0.816,-1.986 z" />
</svg>
