<?xml version="1.0" encoding="UTF-8" standalone="no"?>
<!-- Creator: CorelDRAW X6 -->

<?xml-stylesheet href="s-light-;>3>.css" type="text/css"?><svg
   xmlns:dc="http://purl.org/dc/elements/1.1/"
   xmlns:cc="http://creativecommons.org/ns#"
   xmlns:rdf="http://www.w3.org/1999/02/22-rdf-syntax-ns#"
   xmlns:svg="http://www.w3.org/2000/svg"
   xmlns="http://www.w3.org/2000/svg"
   xmlns:sodipodi="http://sodipodi.sourceforge.net/DTD/sodipodi-0.dtd"
   xmlns:inkscape="http://www.inkscape.org/namespaces/inkscape"
   xml:space="preserve"
   width="436.21292"
   height="213.78917"
   version="1.1"
   style="clip-rule:evenodd;fill-rule:evenodd;image-rendering:optimizeQuality;shape-rendering:geometricPrecision;text-rendering:geometricPrecision"
   viewBox="0 0 436212.92 213662.22"
   id="svg24"
   sodipodi:docname="logo.svg"
   inkscape:version="0.92.4 (5da689c313, 2019-01-14)"><metadata
   id="metadata30"><rdf:RDF><cc:Work
       rdf:about=""><dc:format>image/svg+xml</dc:format><dc:type
         rdf:resource="http://purl.org/dc/dcmitype/StillImage" /><dc:title></dc:title></cc:Work></rdf:RDF></metadata><defs
   id="defs28" /><sodipodi:namedview
   pagecolor="#ffffff"
   bordercolor="#666666"
   borderopacity="1"
   objecttolerance="10"
   gridtolerance="10"
   guidetolerance="10"
   inkscape:pageopacity="0"
   inkscape:pageshadow="2"
   inkscape:window-width="2560"
   inkscape:window-height="1027"
   id="namedview26"
   showgrid="false"
   fit-margin-top="0"
   fit-margin-left="0"
   fit-margin-right="0"
   fit-margin-bottom="0"
   inkscape:zoom="1.5855316"
   inkscape:cx="395.38308"
   inkscape:cy="97.255605"
   inkscape:window-x="-8"
   inkscape:window-y="-8"
   inkscape:window-maximized="1"
   inkscape:current-layer="Слой_x0020_1" />
 <g
   id="Слой_x0020_1"
   transform="translate(-65450,-479972.47)">
  <metadata
   id="CorelCorpID_0Corel-Layer" />
  <path
   d="m 327885,547784 c -2736,-2378 -3380,-6729 -7569,-7078 -1297,2452 -3715,4817 -4358,7581 -96,0 -5522,-5928 -5574,-5964 -4112,1642 -20938,19669 0,18319 0,-1954 -12883,-2670 -1268,-14272 3693,2472 3536,6431 7581,6767 649,-2784 1746,-5087 3822,-6478 1522,2273 4659,7047 7216,7730 1011,-1509 2481,-3413 2955,-5450 7456,9807 2302,15443 1233,18053 -5907,8668 -9929,11886 -18469,16970 -14240,6518 -4647,10299 2601,11550 2957,496 9881,1331 12857,1738 22174,3030 -11307,3871 -16291,4590 -32585,4707 -1133,11969 17335,11733 11967,1576 -13346,2868 -15167,2871 -14579,18 -9812,7560 1730,9003 11801,1476 16251,1612 15629,3577 -2192,6918 -12154,8181 -17358,8454 -29132,1524 -83250,-40181 -106500,-56345 -4495,-3357 -2017,-3413 -6616,55 -7706,5589 -37363,26402 -37331,26402 l 91,-19572 -52462,-75 v 56158 l -46522,31800 h 23798 c 2081,0 30444,-23035 34073,-25890 l -685,-50739 32154,-28 95,30275 50033,-35098 c 21256,20686 92605,60072 119352,50926 14625,-7018 19392,-21322 1803,-21564 -7090,-1095 -12173,-160 -12696,-1295 -600,-1303 3475,-1599 8506,-1700 10675,-214 24242,-4086 15263,-7924 -2240,-957 -7857,-2488 -15912,-3196 -4300,-378 -10656,102 -15255,-1030 -8569,-2108 58803,-90 32572,-11873 -18581,-7011 -42038,995 -15538,-16511 8568,-6697 16948,-12797 16982,-25954 19,-7342 -4170,-9660 -8511,-12567 -1408,943 -2234,2863 -3598,6050 z m 6344,144682 h 18787 v -34534 l 9921,191 864,18 c 991,0 1487,-318 1487,-962 0,-1195 -1511,-1044 -2372,-1044 h -18993 v -12 h -28755 c -861,0 -2372,-151 -2372,1044 0,645 496,962 1487,962 l 864,-18 9921,-191 v 34534 h 9161 z m -208882,-5450 c 3149,2954 7930,4784 12240,4784 9084,0 -1643,-8634 -3690,-10531 -4006,-3740 -6684,-6518 -8023,-8325 -8456,-11511 4436,-17911 14654,-17911 3871,0 8943,907 12093,3359 2399,1868 720,3168 -1360,1489 -2288,-1839 -13041,-5374 -13041,-1053 0,2149 3787,5499 5250,6836 6041,5547 9741,9287 11101,11221 2302,3327 3037,7012 612,10486 -5415,7671 -21236,7483 -28603,3150 -692,-408 -4760,-2724 -3279,-3940 692,-625 1496,-98 2045,436 z m 79587,-32092 6747,19800 6189,17730 h -18787 l -5946,-18783 -12683,16496 -13063,-15624 c -1265,3813 -2646,8488 -4143,14026 -538,2124 -917,3377 -1159,3777 -477,821 -2794,888 -2794,-191 0,-154 285,-1044 864,-2678 l 11755,-34552 16953,21017 16067,-21017 z m 39166,-980 24702,38510 h -21423 l -2984,-4848 -21001,-54 c -809,1272 -2370,4082 -3310,5039 -553,539 -1950,543 -1950,-445 0,-767 4372,-6836 4829,-7499 l 21138,-30703 z m -9615,17512 -5366,7780 -4301,6409 h 18387 l -8719,-14190 z m 62803,14952 c 4259,2478 8917,4086 13758,4957 1436,248 1307,1689 -464,1689 -6072,0 -15279,-5442 -20221,-8797 l 32,8198 h -18756 l 63,-36332 c 8132,0 16953,-346 24986,399 8482,788 17585,5227 17585,15079 0,9156 -8530,14449 -16984,14807 z m -2920,-1634 c 13493,248 24061,-11353 14296,-21534 -4580,-4878 -11837,-5196 -18112,-5265 l -190,23912 c 1255,1035 2594,1997 4006,2887 z"
   id="path3"
   inkscape:connector-curvature="0"
   style="fill:#FEFFFE" />
  
  
  
  
  
  
  
  <polygon
   points="379578,492896 379578,493494 "
   id="polygon19"
   style="fill:#0b2c63" />
  <path
   d="m 359113,656067 v 36332 h -15663 l 126,-36332 h 15538 z M 276004,527110 c 1074,-3167 -12712,-5178 -16172,-5886 2814,1793 14774,10006 16172,5886 z m 46728,-17173 c 28257,-509 55321,33420 22243,76769 5261,-2356 14197,-12001 18535,-25082 5926,-17872 4051,-41252 -20334,-52867 -23284,-11091 -43958,-4752 -55341,7999 -15861,17767 -11771,46632 3118,60826 -20605,-30766 -4103,-66998 31779,-67644 z m 43680,18593 c -1282,-3092 15162,-6062 19289,-7011 -3356,1988 -17621,11034 -19289,7011 z m -10732,-15462 c -3156,-3018 11675,-11452 14963,-13752 -2591,2899 -11200,17350 -14963,13752 z m -15567,-10702 c -3366,-1758 6572,-14606 8726,-17992 -1281,3671 -4847,20018 -8726,17992 z m -17738,-3664 c 3862,2 546,-15097 58,-18793 -269,3529 -4124,18791 -58,18793 z m -18298,4866 c 3500,-1475 -4708,-13882 -6575,-17434 973,3764 2541,19134 6575,17434 z m -16366,9080 c 2372,-2613 -9102,-9971 -12065,-12233 1851,2996 9332,15244 12065,12233 z m 90972,141350 c 5409,0 8114,1226 8114,3677 0,1189 -710,2115 -2131,2787 -1430,663 -3425,998 -6014,998 -5138,0 -7707,-1262 -7707,-3786 0,-2415 2579,-3641 7738,-3677 z m 8051,9369 -126,29033 h -15664 v -29033 h 15789 z m 31003,1153 c 5371,2293 8847,7688 5378,13055 -898,1380 -2151,2542 -3759,3477 -2976,1752 -6568,2633 -10766,2633 -3333,0 -6749,-442 -9816,-1807 -4958,2905 3107,3406 5023,3169 2446,-14 24333,-1098 16875,6772 -1805,1865 -4009,1981 -6411,1834 998,-1344 374,-1852 -1222,-1852 -3791,0 -7693,926 -11580,926 -8753,0 -12618,-6608 -4636,-11811 -1452,-799 -2569,-1834 -3363,-3123 -3239,-5156 130,-10234 5002,-12737 3091,-1598 6850,-2397 11278,-2397 3057,0 7951,1412 9711,-1562 1426,-2448 4527,-310 1608,1897 -804,608 -1911,1117 -3320,1525 z m -12071,2914 v 11239 c 0,1344 125,2179 376,2496 811,1029 4133,1061 4971,45 407,-490 605,-1453 605,-2887 v -10839 c 0,-1208 -199,-2016 -605,-2424 -807,-831 -3934,-831 -4741,0 -407,408 -605,1198 -605,2369 z m 38971,-309 c 5914,-3473 12962,-6081 19767,-3459 6396,2479 5386,8632 5294,14435 l -63,5238 250,9060 h -15789 v -24820 c -199,-917 -950,-1380 -2256,-1380 -2457,0 -5201,1669 -7142,3050 l -63,6673 104,11557 83,4920 h -15726 c 67,-12014 -306,-24394 0,-36332 h 15538 c 0,3686 0,7371 0,11057 z m 48828,-13182 -334,8597 c -64,1662 4118,617 5440,617 898,0 1347,354 1347,1062 0,1676 -5358,781 -6798,781 l 157,21089 c 0,1112 -90,3486 1514,3486 1888,0 3631,-2292 4313,-3858 1151,-2759 4120,-1726 1525,1979 -4040,5851 -15122,7456 -20289,2515 -2428,-2307 -2694,-4911 -2694,-8116 l 31,-17122 c -1220,-78 -4636,665 -4636,-944 0,-1546 3519,-894 4636,-826 v -3005 c 6036,-1897 11299,-3985 15789,-6255 z"
   id="path21"
   inkscape:connector-curvature="0"
   style="fill:#ff8b00;fill-rule:nonzero" />
 </g>
</svg>