<svg
        xmlns="http://www.w3.org/2000/svg"
        xmlns:xlink="http://www.w3.org/1999/xlink"
        width="82px" height="89px">
    <path fill-rule="evenodd"  stroke-width="1px" stroke="rgb(7, 10, 23)" fill="rgb(255, 255, 255)"
          d="M77.113,85.487 L4.874,85.487 C4.108,85.487 3.486,84.871 3.486,84.107 C3.486,83.344 4.108,82.725 4.874,82.725 L7.191,82.725 L7.191,30.685 C7.191,29.921 7.812,29.303 8.579,29.303 L20.156,29.303 L20.156,17.789 C20.156,17.026 20.778,16.408 21.545,16.408 L25.713,16.408 L25.713,10.421 C25.713,9.658 26.335,9.039 27.103,9.039 L33.122,9.039 L33.122,4.895 C33.122,4.131 33.744,3.513 34.511,3.513 C35.278,3.513 35.901,4.131 35.901,4.895 L35.901,9.039 L41.920,9.039 C42.687,9.039 43.309,9.658 43.309,10.421 L43.309,16.408 L46.088,16.408 L46.088,10.421 C46.088,9.658 46.709,9.039 47.477,9.039 L73.408,9.039 C74.175,9.039 74.797,9.658 74.797,10.421 L74.797,82.725 L77.113,82.725 C77.880,82.725 78.502,83.344 78.502,84.107 C78.502,84.871 77.880,85.487 77.113,85.487 ZM19.229,82.725 L20.156,82.725 L20.156,80.421 C20.156,79.658 20.778,79.039 21.545,79.039 C22.312,79.039 22.935,79.658 22.935,80.421 L22.935,82.725 L23.861,82.725 L23.861,78.119 L19.229,78.119 L19.229,82.725 ZM9.969,32.066 L9.969,82.725 L16.452,82.725 L16.452,76.738 C16.452,75.975 17.073,75.356 17.841,75.356 L25.249,75.356 C26.017,75.356 26.639,75.975 26.639,76.738 L26.639,82.725 L33.122,82.725 L33.122,49.639 L33.122,47.263 L33.122,32.066 L9.969,32.066 ZM40.531,11.802 L28.491,11.802 L28.491,16.408 L40.531,16.408 L40.531,11.802 ZM46.087,19.171 L22.935,19.171 L22.935,29.303 L34.511,29.303 C35.278,29.303 35.901,29.921 35.901,30.685 L35.901,31.145 L40.068,31.145 C40.835,31.145 41.458,31.764 41.458,32.527 C41.458,33.290 40.835,33.908 40.068,33.908 L35.901,33.908 L35.901,38.514 L40.068,38.514 C40.835,38.514 41.458,39.132 41.458,39.895 C41.458,40.658 40.835,41.277 40.068,41.277 L35.901,41.277 L35.901,45.883 L46.087,45.883 L46.087,19.171 ZM35.901,48.644 L35.901,49.639 L35.901,82.725 L59.052,82.725 L59.052,48.644 L35.901,48.644 ZM72.019,11.802 L48.866,11.802 L48.866,17.790 L48.866,45.883 L53.497,45.883 L53.497,45.420 C53.497,44.657 54.119,44.039 54.887,44.039 C55.653,44.039 56.275,44.657 56.275,45.420 L56.275,45.883 L59.054,45.883 L59.054,45.420 C59.054,44.657 59.676,44.039 60.442,44.039 C61.210,44.039 61.832,44.657 61.832,45.420 L61.832,47.263 L61.832,82.725 L72.019,82.725 L72.019,11.802 ZM65.999,16.408 C66.766,16.408 67.389,17.027 67.389,17.790 L67.389,19.632 C67.389,20.395 66.766,21.013 65.999,21.013 C65.232,21.013 64.611,20.395 64.611,19.632 L64.611,17.790 C64.611,17.027 65.232,16.408 65.999,16.408 ZM65.999,25.618 C66.766,25.618 67.389,26.237 67.389,27.000 L67.389,28.842 C67.389,29.605 66.766,30.224 65.999,30.224 C65.232,30.224 64.611,29.605 64.611,28.842 L64.611,27.000 C64.611,26.237 65.232,25.618 65.999,25.618 ZM65.999,34.829 C66.766,34.829 67.389,35.447 67.389,36.211 L67.389,38.053 C67.389,38.817 66.766,39.435 65.999,39.435 C65.232,39.435 64.611,38.817 64.611,38.053 L64.611,36.211 C64.611,35.447 65.232,34.829 65.999,34.829 ZM65.999,44.039 C66.766,44.039 67.389,44.657 67.389,45.420 L67.389,47.263 C67.389,48.026 66.766,48.644 65.999,48.644 C65.232,48.644 64.611,48.026 64.611,47.263 L64.611,45.420 C64.611,44.657 65.232,44.039 65.999,44.039 ZM65.999,53.250 C66.766,53.250 67.389,53.869 67.389,54.632 L67.389,56.474 C67.389,57.237 66.766,57.856 65.999,57.856 C65.232,57.856 64.611,57.237 64.611,56.474 L64.611,54.632 C64.611,53.869 65.232,53.250 65.999,53.250 ZM65.999,62.462 C66.766,62.462 67.389,63.080 67.389,63.843 L67.389,65.685 C67.389,66.448 66.766,67.066 65.999,67.066 C65.232,67.066 64.611,66.448 64.611,65.685 L64.611,63.843 C64.611,63.080 65.232,62.462 65.999,62.462 ZM65.999,71.672 C66.766,71.672 67.389,72.291 67.389,73.055 L67.389,74.896 C67.389,75.659 66.766,76.278 65.999,76.278 C65.232,76.278 64.611,75.659 64.611,74.896 L64.611,73.055 C64.611,72.291 65.232,71.672 65.999,71.672 ZM60.442,39.435 C59.676,39.435 59.052,38.817 59.054,38.053 L59.054,36.211 C59.054,35.447 59.676,34.829 60.442,34.829 C61.210,34.829 61.832,35.447 61.832,36.211 L61.832,38.053 C61.832,38.817 61.210,39.435 60.442,39.435 ZM60.442,30.224 C59.676,30.224 59.052,29.605 59.054,28.842 L59.054,27.000 C59.054,26.237 59.676,25.618 60.442,25.618 C61.210,25.618 61.832,26.237 61.832,27.000 L61.832,28.842 C61.832,29.605 61.210,30.224 60.442,30.224 ZM60.442,21.013 C59.676,21.013 59.052,20.395 59.054,19.632 L59.054,17.790 C59.054,17.027 59.676,16.408 60.442,16.408 C61.210,16.408 61.832,17.027 61.832,17.790 L61.832,19.632 C61.832,20.395 61.210,21.013 60.442,21.013 ZM54.887,39.435 C54.119,39.435 53.497,38.817 53.497,38.053 L53.497,36.211 C53.497,35.447 54.119,34.829 54.887,34.829 C55.653,34.829 56.275,35.447 56.275,36.211 L56.275,38.053 C56.275,38.817 55.653,39.435 54.887,39.435 ZM54.887,30.224 C54.119,30.224 53.497,29.605 53.497,28.842 L53.497,27.000 C53.497,26.237 54.119,25.618 54.887,25.618 C55.653,25.618 56.275,26.237 56.275,27.000 L56.275,28.842 C56.275,29.605 55.653,30.224 54.887,30.224 ZM54.887,21.013 C54.119,21.013 53.497,20.395 53.497,19.632 L53.497,17.790 C53.497,17.027 54.119,16.408 54.887,16.408 C55.653,16.408 56.275,17.027 56.275,17.790 L56.275,19.632 C56.275,20.395 55.653,21.013 54.887,21.013 ZM53.034,79.961 C52.266,79.961 51.644,79.343 51.644,78.579 L51.644,52.790 C51.644,52.027 52.266,51.409 53.034,51.409 C53.801,51.409 54.423,52.027 54.423,52.790 L54.423,78.579 C54.423,79.343 53.801,79.961 53.034,79.961 ZM47.477,79.961 C46.709,79.961 46.087,79.343 46.088,78.579 L46.088,52.790 C46.088,52.027 46.709,51.409 47.477,51.409 C48.244,51.409 48.866,52.027 48.866,52.790 L48.866,78.579 C48.866,79.343 48.244,79.961 47.477,79.961 ZM41.920,79.961 C41.152,79.961 40.531,79.343 40.531,78.579 L40.531,52.790 C40.531,52.027 41.154,51.409 41.920,51.409 C42.687,51.409 43.309,52.027 43.309,52.790 L43.309,78.579 C43.309,79.343 42.687,79.961 41.920,79.961 ZM40.067,26.540 L28.954,26.540 C28.187,26.540 27.565,25.921 27.565,25.158 C27.565,24.394 28.187,23.776 28.954,23.776 L40.067,23.776 C40.835,23.776 41.458,24.394 41.458,25.158 C41.458,25.921 40.835,26.540 40.067,26.540 ZM27.102,70.750 C26.335,70.750 25.713,70.132 25.713,69.368 L25.713,67.526 C25.713,66.763 26.335,66.145 27.102,66.145 C27.869,66.145 28.491,66.763 28.491,67.526 L28.491,69.368 C28.491,70.132 27.869,70.750 27.102,70.750 ZM27.102,61.539 C26.335,61.539 25.713,60.923 25.713,60.160 L25.713,58.315 C25.713,57.552 26.335,56.934 27.102,56.934 C27.869,56.934 28.491,57.552 28.491,58.315 L28.491,60.160 C28.491,60.923 27.869,61.539 27.102,61.539 ZM27.102,52.330 C26.335,52.330 25.713,51.712 25.713,50.949 L25.713,49.107 C25.713,48.344 26.335,47.725 27.102,47.725 C27.869,47.725 28.491,48.344 28.491,49.107 L28.491,50.949 C28.491,51.712 27.869,52.330 27.102,52.330 ZM27.102,43.118 C26.335,43.118 25.713,42.500 25.713,41.738 L25.713,39.895 C25.713,39.132 26.335,38.514 27.102,38.514 C27.869,38.514 28.491,39.132 28.491,39.895 L28.491,41.738 C28.491,42.501 27.869,43.118 27.102,43.118 ZM21.545,70.750 C20.778,70.750 20.156,70.132 20.156,69.368 L20.156,67.526 C20.156,66.763 20.778,66.145 21.545,66.145 C22.312,66.145 22.935,66.763 22.935,67.526 L22.934,69.368 C22.934,70.132 22.312,70.750 21.545,70.750 ZM21.545,61.539 C20.778,61.539 20.156,60.923 20.156,60.160 L20.156,58.315 C20.156,57.552 20.778,56.934 21.545,56.934 C22.312,56.934 22.934,57.552 22.934,58.315 L22.934,60.160 C22.934,60.923 22.312,61.539 21.545,61.539 ZM21.545,52.330 C20.778,52.330 20.156,51.712 20.156,50.949 L20.156,49.107 C20.156,48.344 20.778,47.725 21.545,47.725 C22.312,47.725 22.934,48.344 22.934,49.107 L22.934,50.949 C22.934,51.712 22.312,52.330 21.545,52.330 ZM21.545,43.118 C20.778,43.118 20.156,42.500 20.156,41.738 L20.156,39.895 C20.156,39.132 20.778,38.514 21.545,38.514 C22.312,38.514 22.934,39.132 22.934,39.895 L22.934,41.738 C22.934,42.501 22.312,43.118 21.545,43.118 ZM15.989,70.750 C15.221,70.750 14.599,70.132 14.599,69.368 L14.599,67.526 C14.599,66.763 15.221,66.145 15.989,66.145 C16.755,66.145 17.378,66.763 17.378,67.526 L17.378,69.368 C17.378,70.132 16.755,70.750 15.989,70.750 ZM15.989,61.539 C15.221,61.539 14.599,60.923 14.599,60.160 L14.599,58.315 C14.599,57.552 15.221,56.934 15.989,56.934 C16.755,56.934 17.378,57.552 17.378,58.315 L17.378,60.160 C17.378,60.923 16.755,61.539 15.989,61.539 ZM15.989,52.330 C15.221,52.330 14.599,51.712 14.599,50.949 L14.599,49.107 C14.599,48.344 15.221,47.725 15.989,47.725 C16.755,47.725 17.378,48.344 17.378,49.107 L17.378,50.949 C17.378,51.712 16.755,52.330 15.989,52.330 ZM15.989,43.118 C15.221,43.118 14.599,42.500 14.599,41.738 L14.599,39.895 C14.599,39.132 15.221,38.514 15.989,38.514 C16.755,38.514 17.378,39.132 17.378,39.895 L17.378,41.738 C17.378,42.501 16.755,43.118 15.989,43.118 Z"/>
</svg>