<?xml version="1.0" encoding="UTF-8" standalone="no"?>
<!-- Created with Inkscape (http://www.inkscape.org/) -->

<svg
   xmlns:dc="http://purl.org/dc/elements/1.1/"
   xmlns:cc="http://creativecommons.org/ns#"
   xmlns:rdf="http://www.w3.org/1999/02/22-rdf-syntax-ns#"
   xmlns:svg="http://www.w3.org/2000/svg"
   xmlns="http://www.w3.org/2000/svg"
   xmlns:sodipodi="http://sodipodi.sourceforge.net/DTD/sodipodi-0.dtd"
   xmlns:inkscape="http://www.inkscape.org/namespaces/inkscape"
   width="150"
   height="150"
   viewBox="0 0 39.6875 39.6875"
   version="1.1"
   id="svg8"
   inkscape:version="0.92.4 (5da689c313, 2019-01-14)"
   sodipodi:docname="principe-2.svg">
  <defs
     id="defs2" />
  <sodipodi:namedview
     id="base"
     pagecolor="#ffffff"
     bordercolor="#666666"
     borderopacity="1.0"
     inkscape:pageopacity="0.0"
     inkscape:pageshadow="2"
     inkscape:zoom="2"
     inkscape:cx="217.14118"
     inkscape:cy="9.6290433"
     inkscape:document-units="mm"
     inkscape:current-layer="layer1"
     showgrid="false"
     inkscape:pagecheckerboard="true"
     units="px"
     showguides="true"
     inkscape:guide-bbox="true"
     inkscape:window-width="1366"
     inkscape:window-height="715"
     inkscape:window-x="565"
     inkscape:window-y="1072"
     inkscape:window-maximized="1">
    <sodipodi:guide
       position="19.84375,19.84375"
       orientation="0,1"
       id="guide3735"
       inkscape:locked="false"
       inkscape:label=""
       inkscape:color="rgb(0,0,255)" />
    <sodipodi:guide
       position="19.84375,19.84375"
       orientation="1,0"
       id="guide3737"
       inkscape:locked="false"
       inkscape:label=""
       inkscape:color="rgb(0,0,255)" />
  </sodipodi:namedview>
  <metadata
     id="metadata5">
    <rdf:RDF>
      <cc:Work
         rdf:about="">
        <dc:format>image/svg+xml</dc:format>
        <dc:type
           rdf:resource="http://purl.org/dc/dcmitype/StillImage" />
        <dc:title></dc:title>
      </cc:Work>
    </rdf:RDF>
  </metadata>
  <g
     inkscape:label="Layer 1"
     inkscape:groupmode="layer"
     id="layer1"
     transform="translate(0,-257.3125)">
    <path
       id="path3773"
       d="m 37.904619,269.38723 -9.182893,9.36784 c -0.102923,0.10557 -0.220663,0.18547 -0.346075,0.24024 0.155839,0.80619 -0.04445,1.70762 -0.867834,2.57149 -1.763712,1.85235 -5.25727,1.6465 -7.530306,0.95197 0,0 1.173427,-0.55774 1.770063,-1.30493 0.596635,-0.74718 0.172243,-1.8362 1.089289,-3.50281 0.731309,-1.32821 2.117461,-1.60735 3.232415,-1.27053 0.04763,-0.0823 0.105569,-0.16034 0.174889,-0.23125 l 9.182893,-9.36731 c 0.413809,-0.42201 1.071563,-0.44238 1.459706,-0.0452 l 1.06733,1.09696 c 0.386291,0.39741 0.364595,1.07183 -0.04948,1.49357 z m -0.677334,-0.75168 -1.067329,-1.09722 c -0.0079,-0.008 -0.01588,-0.0111 -0.02778,-0.0106 -0.0336,10e-4 -8.237272,8.39047 -9.179453,9.3517 0.416718,0.30215 0.801423,0.71173 1.072885,1.18824 0.0056,-0.002 0.01085,-0.005 0.0164,-0.0111 l 9.183422,-9.3681 c 0.0079,-0.008 0.01191,-0.0172 0.01191,-0.0251 0,-0.0116 -0.004,-0.0198 -0.01005,-0.0278 z m -10.997405,-0.33126 -0.354013,0.36169 3.296973,3.38772 -0.772583,0.78846 -3.297237,-3.38799 -0.413015,0.42122 3.296973,3.38799 -0.772848,0.78846 -3.296444,-3.38746 -0.450056,0.45879 3.296973,3.38772 -0.726811,0.7411 -5.055658,-5.19404 c -0.586846,-0.60272 -0.584729,-1.5912 0.004,-2.19207 l 2.071423,-2.11349 c 0.588698,-0.60087 1.554162,-0.59928 2.141008,0.003 l 5.055657,5.19536 -0.727339,0.74162 z m -1.758156,-1.80657 c -0.190765,-0.19579 -0.49874,-0.19632 -0.68924,-0.001 l -2.071952,2.11349 c -0.191294,0.195 -0.191823,0.51038 -0.0016,0.70565 l 0.988747,1.01573 2.76225,-2.81808 z m -3.828521,0.17674 -0.491861,-7.9e-4 c -0.50456,0.0106 -0.434445,-0.55642 -0.08281,-0.56489 l 0.569383,-0.001 c 0.378354,0.008 0.401638,0.57494 0.0053,0.567 z m -0.847725,22.18717 -0.51779,-0.037 c -0.489479,-0.046 -0.373591,-0.6051 -0.0127,-0.57044 l 0.488421,0.0378 c 0.516996,0.0288 0.386821,0.58684 0.04207,0.56965 z m -1.405203,-22.01254 -0.481541,0.0984 c -0.492125,0.11192 -0.540015,-0.45693 -0.197644,-0.53631 l 0.557213,-0.11615 c 0.372268,-0.068 0.511704,0.48233 0.121972,0.55404 z m -0.915458,21.66276 -0.53631,-0.15108 c -0.389732,-0.11986 -0.228336,-0.66384 0.141816,-0.5498 0.161132,0.05 0.322527,0.0958 0.485511,0.1389 0.448733,0.11721 0.266964,0.65458 -0.09102,0.56198 z m -1.224492,-21.04549 -0.484981,0.20902 c -0.380735,0.17515 -0.610394,-0.34264 -0.272521,-0.4998 0.178594,-0.0828 0.530225,-0.28363 0.70485,-0.24871 0.277019,0.0585 0.312738,0.43075 0.05265,0.53949 z m -0.976047,20.23666 -0.519907,-0.27041 c -0.313002,-0.17251 -0.06641,-0.68209 0.277548,-0.49609 l 0.46064,0.24103 c 0.379412,0.1868 0.127,0.69348 -0.218281,0.52547 z m -1.430867,-18.89496 c -0.331523,0.24368 -0.659606,-0.21669 -0.364067,-0.43841 l 0.41619,-0.29369 c 0.431535,-0.29051 0.673629,0.23548 0.384175,0.4273 z m -0.552186,17.65432 -0.452966,-0.36935 c -0.271198,-0.23178 0.07541,-0.68131 0.373856,-0.42969 l 0.401373,0.32861 c 0.332846,0.25983 -0.01878,0.70485 -0.322263,0.47043 z m -1.092464,-16.16657 c -0.266965,0.29581 -0.704056,-0.0654 -0.447411,-0.3556 l 0.348986,-0.37174 c 0.361156,-0.3683 0.706702,0.0958 0.461962,0.34343 z m -0.169598,14.19702 c 0.233098,0.27119 -0.184415,0.66119 -0.436563,0.36724 -0.116152,-0.136 -0.2286,-0.27305 -0.338931,-0.41355 -0.270933,-0.34634 0.188913,-0.68209 0.424127,-0.38417 z m -1.141942,-12.40394 c -0.191822,0.32809 -0.702204,0.0712 -0.50747,-0.26484 l 0.263525,-0.43075 c 0.284162,-0.44238 0.711993,-0.046 0.525197,0.24051 z m -0.378354,10.09492 0.230188,0.44503 c 0.21881,0.40031 -0.296863,0.6432 -0.477044,0.31935 l -0.249767,-0.47731 c -0.1865309,-0.37835 0.326496,-0.63262 0.496623,-0.28707 z M 9.9849919,274.0738 c -0.1426101,0.42413 -0.6768035,0.22013 -0.5603875,-0.13018 l 0.1828274,-0.51038 c 0.1524,-0.39502 0.6860652,-0.1897 0.5500692,0.16484 z m -0.4116913,1.65206 -0.074612,0.52916 c -0.04339,0.37465 -0.615157,0.3437 -0.572029,-0.0426 l 0.0717,-0.52309 c 0.07144,-0.44344 0.6326184,-0.33416 0.5749392,0.0365 z m -0.1375832,2.20133 c 0.01296,0.30559 0.1563686,0.9906 -0.3302,0.85011 -0.112448,-0.0323 -0.193146,-0.12991 -0.204523,-0.24501 l -0.03545,-0.51937 c -0.0209,-0.46038 0.550333,-0.45694 0.570177,-0.0857 z m 0.314854,2.1844 0.1264709,0.45773 c 0.1550457,0.517 -0.4270379,0.55166 -0.5254629,0.24103 l -0.154781,-0.55165 c -0.08969,-0.35454 0.4569355,-0.52493 0.553773,-0.14711 z m 11.2482316,8.18092 0.496623,-0.0386 c 0.480748,-0.0487 0.482071,0.51858 0.121973,0.55695 l -0.497682,0.0423 c -0.557741,0.0352 -0.452172,-0.53896 -0.120914,-0.56065 z m 2.202656,-0.34767 0.478631,-0.13784 c 0.454555,-0.14261 0.5842,0.40745 0.234421,0.5207 l -0.535252,0.15689 c -0.408252,0.10875 -0.533929,-0.44502 -0.1778,-0.53975 z m 2.084123,-0.78396 0.459581,-0.24235 c 0.375179,-0.20929 0.648229,0.28575 0.318294,0.47281 l -0.464873,0.24791 c -0.41275,0.20796 -0.649023,-0.30877 -0.313002,-0.47837 z m 2.318279,-1.53114 c 0.150019,-0.13229 0.388938,-0.0706 0.458523,0.11509 0.09419,0.25242 -0.249502,0.45932 -0.483923,0.644 -0.375708,0.29633 -0.689239,-0.18071 -0.405077,-0.40561 z m 1.510506,-1.62586 c 0.119857,-0.15955 0.366448,-0.14738 0.472545,0.0204 0.144463,0.2278 -0.148959,0.49927 -0.340517,0.7276 -0.306917,0.36592 -0.712523,-0.0381 -0.480484,-0.31538 z m 1.675341,-1.64492 -0.230717,0.45508 c -0.114564,0.21379 -0.326495,0.30216 -0.497152,0.12383 -0.202406,-0.21669 0.09631,-0.58605 0.199496,-0.80063 0.165629,-0.34369 0.696384,-0.13017 0.528373,0.22172 z m -0.493977,-4.2201 2.115079,2.17355 c 0.25744,0.26564 0.822061,0.14208 1.067594,0.17648 l -2.733146,-2.80856 0.772319,-0.78872 2.035969,2.0918 -0.09499,-0.94404 -1.52691,-1.56845 0.772319,-0.78872 1.392237,1.43034 0.79031,0.0873 -1.828006,-1.87986 0.726811,-0.7411 2.115079,2.17381 c 0.677333,2.14445 1.196181,4.38918 1.770591,6.55585 l -6.020593,-2.28838 -2.082007,-2.13942 z m 5.139267,0.24421 -0.855398,-0.0945 0.207962,2.03703 c 0.04339,0.43418 -0.316971,0.6305 -0.683418,0.63976 3.188493,1.18639 2.366697,1.15702 1.330854,-2.58233 z"
       inkscape:connector-curvature="0"
       style="fill:#ffffff;fill-rule:evenodd;stroke-width:0.26458332" />
  </g>
</svg>
