<?xml-stylesheet href="48709=-?@>5:B.css" type="text/css"?>
<svg xmlns="http://www.w3.org/2000/svg" viewBox="0 0 35468 37160.9" clip-rule="evenodd" fill-rule="evenodd" image-rendering="optimizeQuality" shape-rendering="geometricPrecision" text-rendering="geometricPrecision">
  <path fill="rgb(100, 101, 103)" d="M31295 36574h-840c-667 0-1218-551-1218-1218V8186c0-670 557-1426 1034-2082 422-580 758-1099 1024-1121 266 22 602 541 1024 1121 477 656 1034 1412 1034 2082v23929l4 5c2 2 7 3 12 3h881c5 0 9-2 13-6 3-3 5-8 5-12V20900a600 600 0 011200 0v11205c0 670-547 1218-1218 1218h-897v2033c0 667-551 1218-1218 1218zM18340 19987a873 873 0 01-813-1183 868 868 0 01-408-736c0-422 300-774 698-855v-550a3152 3152 0 01-1395-2608 3144 3144 0 013140-3141 3144 3144 0 013140 3141c0 1046-531 2028-1396 2608v550a871 871 0 01289 1591c37 97 60 201 60 311 0 481-391 872-872 872zm1221-6452a517 517 0 100 1034 517 517 0 000-1034zm1558 4795a287 287 0 000-575h-3062a288 288 0 100 575zm-276 1163a288 288 0 100-575h-2462a288 288 0 000 575zm-2503-3326c141 82 174 54 174 207v821h698v-2158a1046 1046 0 01-698-982 1047 1047 0 012094 0c0 454-293 837-698 982v2158h698v-824c0-150 35-123 175-203a2450 2450 0 001221-2112 2446 2446 0 00-2443-2443 2446 2446 0 00-2443 2443c0 866 469 1676 1222 2112zm-6644 4663c-268 0-659-414-659-1021-817-178-659-1003-659-1637h2637c0 634 158 1460-659 1637 0 607-391 1021-659 1021zm1565-15743c813 0 813 1235 0 1235H8313c-813 0-813-1235 0-1235zm8941 0c813 0 813 1235 0 1235h-4948c-813 0-813-1235 0-1235zM11696 8772c-1121 0-3099 6256-1803 8263 442 684 802 647 1502 647v-2776l-967-972-17-18c-51-58-79-126-79-204 0-166 180-301 301-301s146 28 199 75l865 868 865-868c53-46 77-75 199-75 121 0 301 180 301 301s-28 145-74 198c-305 343-664 668-990 995v2776c700 0 1060 37 1502-647 1300-2014-686-8263-1803-8263zM4622-11h21270a2230 2230 0 012224 2224v32735a2230 2230 0 01-2224 2224H4622a2230 2230 0 01-2224-2224v-5048h1200v5048c0 563 462 1025 1025 1025h21270c563 0 1025-462 1025-1025v-6026H1218c-670 0-1218-547-1218-1218v-4004c0-668 550-1218 1218-1218h25700V2213c0-563-462-1025-1025-1025H4623c-563 0-1025 462-1025 1025v19291H2398V2213A2230 2230 0 014622-11zm22295 27734v-4041c-5888-4-25718-18-25718 19v4004c0 5 2 9 5 12s8 6 13 6h4180v-1346a600 600 0 011200 0v1346h2549v-1773a600 600 0 011200 0v1773h2549v-1346a600 600 0 011200 0v1346h2549v-1773a600 600 0 011200 0v1773h2549v-1346a600 600 0 011200 0v1346h2549v-1773a600 600 0 011200 0v1773h1579zm5235 4448l-2-67v-702h-1715v3952c0 7 1 10 6 15 2 2 7 3 12 3h1680c6 0 10-1 12-3 5-5 6-8 6-15v-3184zm-2-1967v-9304h2V8185c0-5-2-9-6-13-3-3-8-5-12-5l-840-1639-840 1639c-5 0-9 2-12 5s-6 8-6 13v22019h1715z"/>
</svg>
