<?xml-stylesheet href="A40G0.css" type="text/css"?>
<svg xmlns="http://www.w3.org/2000/svg" viewBox="0 0 49230.4 48114.2" clip-rule="evenodd" fill-rule="evenodd" image-rendering="optimizeQuality" shape-rendering="geometricPrecision" text-rendering="geometricPrecision">
  <path fill="rgb(100, 101, 103)" d="M740 28189h744V12317c-343 166-632 374-1009 139a624 624 0 01-298-530V9407c0-243 145-466 371-569l2215-1008V3756c0-347 288-627 643-627h3826c355 0 643 281 643 627v1748L19872 45c188-85 406-78 587 22l11551 6327a624 624 0 01328 547v2519c0 486-538 777-958 547l-348-191v1580c7978 3723 9490 4427 15342 7159a599 599 0 01347 544v1357l-1200-558v-416l-14488-6761 5 13448h13265v-1374h1200v1372h693v1a600 600 0 110 1200H31039l1 821h544c1007 8 991 1254 1 1254H739c-990 0-982-1255 1-1254zm31583-9077v4937c0 332 269 600 601 600h9599c59 0 116-9 171-25l-2211-1175h-2160v-1148l-1200-638v1786h-3599v-3699l-1200-638zm-3869-5714v2268c0 346-288 627-643 627H17545a636 636 0 01-643-627v-5458l1285-583v5416h3847V9833l1287 715v4494h3846v-2357l1287 715zm-12839-2606v4876c0 347-288 628-643 628H4680a648 648 0 01-545-294l2117-961h2931v-1330l1286-583v1914h3860v-3665l1286-583zM4680 17531h10292c355 0 643 281 643 628v8158c0 347-288 628-643 628H4680a636 636 0 01-643-628v-8158c0-347 289-628 643-628zm9649 1255h-3860v6905h3860zm-9005 6904h3860v-6905H5324zm12222-8159h10265c355 0 643 281 643 628v8158c0 347-288 628-643 628H17546a636 636 0 01-643-628v-8158c0-347 288-628 643-628zm9622 1255h-3846v6905h3846zm-8979 6904h3846v-6905h-3846zM6590 6067V4383H4050v2862c242-110 2540-1123 2540-1178zm24464 1240L20118 1318 1464 9806v1135l18409-8376a663 663 0 01588 21l10594 5802V7307zm-1307 20881V9132c0-44-8797-4838-9629-5294L2771 11732v16457h26976z"/>
  <path fill="rgb(100, 101, 103)" d="M49010 32808a512 512 0 00-470-62l-4189 1523a2040 2040 0 00-1164 1071c-43 94-72 192-100 289-719-205-2056-632-3384-1316-2007-1034-3541-524-4856 480-666 13-1585 92-2488 171-576 51-1120 98-1562 125-11-265-73-528-187-777a2040 2040 0 00-1164-1071l-4189-1523a512 512 0 00-689 483v10276c0 284 230 514 514 514h1501c638 0 1232-301 1616-787 204 156 447 337 700 528 600 451 1256 944 1544 1185 1913 1601 4213 3331 4671 3632 428 281 1199 580 1785 580 229 0 807 0 1212-343 418 164 868 156 1287-29 418-184 756-532 953-953 401 82 862 22 1280-188 392-196 681-493 835-841 371 34 768-87 1123-358 507-388 739-960 673-1524l1303-721c382 517 988 846 1650 846h1501c284 0 514-230 514-514V33228c0-168-82-325-219-421zm-21466 8489a1032 1032 0 01-962 667h-987v-9029l3499 1272c260 95 467 285 582 536 116 251 126 532 29 790l-2161 5763zm15421 3305c-174 133-418 208-526 99-6-6-14-5-20-10-10-9-15-21-25-30-367-290-2013-1974-3030-3035a513 513 0 10-742 710c239 249 2155 2245 2922 2943-57 226-267 365-373 418-329 165-672 137-801 18-4-4-9-3-13-7-6-6-9-14-16-19-616-492-2162-2135-2512-2515a515 515 0 00-757 695c17 18 1532 1652 2383 2411a906 906 0 01-473 536c-162 72-414 109-702-105-738-626-2219-2202-2510-2514a515 515 0 00-751 702c345 370 1366 1451 2142 2184-87 10-178 17-264 17-340 0-925-217-1220-412-360-237-2622-1925-4576-3560-296-248-970-755-1587-1219-331-248-636-477-860-650l1924-5131c500-22 1165-79 1870-141 399-35 798-69 1179-99-586 602-1457 1679-1342 2689 53 460 304 842 728 1107 839 526 2393 85 3142-836 483-70 810-193 1166-370 602 566 1410 1231 2258 1930 1476 1216 3150 2595 3592 3368 246 430-95 739-206 823zm881-1652c-685-916-2168-2141-3614-3333-964-794-1874-1544-2457-2127a515 515 0 00-605-90c-524 281-759 396-1350 456a512 512 0 00-383 237c-403 639-1523 943-1878 721-202-126-241-255-252-353-50-437 393-1194 1127-1928 1818-1818 3118-2174 4799-1307 1597 824 3174 1289 3836 1465 19 77 33 155 61 230l1995 5320-1278 707zm4355 42h-987c-426 0-813-268-962-667l-2161-5763c-97-259-87-540 29-791 115-251 322-441 582-536l3499-1272v9028z"/>
  <path fill="rgb(100, 101, 103)" d="M33143 13320c316 69 255 388 255 634h-1020c0-245-61-565 255-634zm-255 4269c-434 0-1199-2420-698-3196 171-265 310-250 581-250h233c271 0 410-14 581 250 503 779-265 3196-698 3196zm4387-1566a335 335 0 01312 455 334 334 0 01-111 612v211a1208 1208 0 11-1878 1002c0-402 204-779 537-1002v-211a336 336 0 01-111-612 335 335 0 01312-455h237zm3665 1140c316 69 255 388 255 634h-1020c0-245-61-565 255-634zm-255 4269c-434 0-1199-2420-698-3196 171-265 310-250 581-250h233c271 0 410-14 581 250 503 779-265 3196-698 3196zm4447-1140a335 335 0 01312 455 334 334 0 01-111 612v211a1208 1208 0 11-1878 1002c0-402 204-779 537-1002v-211a336 336 0 01-111-612 335 335 0 01312-455h237zM28117 8824h237a335 335 0 01312 455 334 334 0 01-111 612v211a1208 1208 0 11-1878 1002c0-402 204-779 537-1002v-211a336 336 0 01-111-612 335 335 0 01312-455h701zm-3406-2728c316 69 255 388 255 634h-1020c0-245-61-565 255-634zm-255 4269c-434 0-1199-2420-698-3196 171-265 310-250 581-250h233c271 0 410-14 581 250 503 779-265 3196-698 3196zm-3134-5359h237a335 335 0 01312 455 334 334 0 01-111 612v211a1208 1208 0 11-1878 1002c0-402 204-779 537-1002v-211a336 336 0 01-111-612 335 335 0 01312-455h701zm-3906 220c316 69 255 388 255 634h-1020c0-245-61-565 255-634zm-255 4269c-434 0-1199-2420-698-3196 171-265 310-250 581-250h233c271 0 410-14 581 250 503 779-265 3196-698 3196zm-3697-2072h237a335 335 0 01312 455 334 334 0 01-111 612v211a1208 1208 0 11-1878 1002c0-402 204-779 537-1002v-211a336 336 0 01-111-612 335 335 0 01312-455h701zM9558 8826c316 69 255 388 255 634H8793c0-245-61-565 255-634zm-255 4269c-434 0-1199-2420-698-3196 171-265 310-250 581-250h233c271 0 410-14 581 250 503 779-265 3196-698 3196zm-3697-2135h237a335 335 0 01312 455 334 334 0 01-111 612v211a1208 1208 0 11-1878 1002c0-402 204-779 537-1002v-211a336 336 0 01-111-612 335 335 0 01312-455h701z"/>
</svg>
