<svg
   xmlns="http://www.w3.org/2000/svg"
   xmlns:xlink="http://www.w3.org/1999/xlink"
   width="120"
   height="120"
   version="1.1">
  <path style="fill-rule:evenodd;fill:#ffffff" d="m 57.839647,100.60581 c 1.139,0.057 2.063,-1.996004 -0.421,-2.153004 l -1.56,-0.127 c -1.45,-0.138 -1.659,1.981004 0.047,2.141004 z m 17.762,-56.337004 c 6.092,-7.788 0.57,-19.345 -9.554,-19.345 0,-2.635 0.187,-5.973 -0.107,-8.558 -1.178,-6.5420004 -10.707,-6.5430004 -11.884,0 -0.118,2.303 -0.108,3.842 -0.108,8.559 -10.123,0 -15.645,11.555 -9.555,19.342 -5.659,18.375 -11.096,36.03 -16.091,52.254 l -0.065,7.941004 8.864,-6.597004 c 2.271,-7.373 4.564,-14.824 7.673,-24.917 h 30.446 c 2.507,8.142 4.482,14.56 6.344,20.608 -0.322,-0.378 -0.902,-0.572 -1.496,-0.239 l -1.718,0.909 c -1.367,0.694 -0.221,2.499 1.17,1.795 l 1.737,-0.93 c 0.342,-0.195 0.513,-0.457 0.556,-0.727 l 1.078,3.502 8.867,6.596004 v -7.726004 c -5.015,-16.284 -10.387,-33.731 -16.157,-52.467 z m -9.553,-16.343 c 8.631,0 12.463,10.789 5.548,16.113 -0.886,-2.973 -2.902,-5.463 -5.555,-6.989 0,-0.041 0.007,-0.08 0.007,-0.12 0,-3.239 -1.306,-6.175 -3.414,-8.338 1.056,-0.426 2.207,-0.666 3.414,-0.666 z m -0.502,12.401 c 1.645,1.266 2.84,3.078 3.305,5.162 -2.035,0.66 -4.233,0.58 -6.217,-0.221 1.34,-1.375 2.352,-3.061 2.912,-4.941 z m -5.548,3.296 c -1.386,-1.235 -2.39,-2.88 -2.806,-4.747 1.826,-0.591 3.786,-0.591 5.611,0 -0.416,1.867 -1.42,3.512 -2.805,4.747 z m -2.946,-7.819 c 0.278,-2.201 1.361,-4.153 2.946,-5.567 1.585,1.412 2.668,3.365 2.946,5.566 -1.998,-0.495 -3.895,-0.496 -5.892,0.001 z m 0.31,9.464 c -1.986,0.802 -4.183,0.881 -6.219,0.221 0.466,-2.084 1.66,-3.896 3.306,-5.162 0.561,1.879 1.573,3.566 2.913,4.941 z m 2.636,2.044 c 2.763,1.592 5.911,2.017 8.996,1.249 -0.562,4.434 -4.377,7.879 -8.996,7.879 -4.619,0 -8.435,-3.445 -8.996,-7.879 3.083,0.768 6.234,0.342 8.996,-1.249 z m -3.025,-29.891 c 0,-3.947 6.05,-3.947 6.05,0 v 7.898 c -1.074,0.276 -2.089,0.69 -3.025,1.23 -0.937,-0.541 -1.951,-0.954 -3.025,-1.23 z m -3.025,10.505 c 1.207,0 2.358,0.24 3.414,0.666 -2.109,2.163 -3.414,5.099 -3.414,8.338 0,0.04 0.006,0.079 0.006,0.12 -2.653,1.526 -4.669,4.016 -5.555,6.989 -6.768,-5.212 -3.115,-16.113 5.549,-16.113 z m -19.451,68.125 -3.235,2.409 v -1.278 l 15.57,-50.565 c 0.345,0.251 0.702,0.483 1.073,0.697 0,0.041 -0.006,0.081 -0.006,0.121 0,1.195 0.183,2.346 0.511,3.435 z m 11.203,-26.105 4.693,-15.24 c 2.212,2.871 5.689,4.735 9.605,4.735 3.916,0 7.392,-1.864 9.605,-4.735 l 4.693,15.24 z m 43.034,28.514 v 0 l -3.236,-2.407 -13.912,-45.182 c 0.328,-1.09 0.511,-2.241 0.511,-3.436 0,-0.041 -0.006,-0.08 -0.006,-0.12 0.371,-0.213 0.727,-0.447 1.072,-0.697 l 15.571,50.564 z m -26.399,0.011 c -1.454,0.097 -1.377,2.219004 0.452,2.103004 0.823,-0.053 2.493,0.093 2.777,-0.934004 0.511,-1.838 -2.277,-1.218 -3.229,-1.169 z m 8.229,-1.303 c -1.324,0.353 -1.003,2.482 0.919,1.954 l 1.744,-0.518 c 1.407,-0.457 0.702,-2.451 -0.875,-1.954 z m 20.789,-13.159 c -0.816,0.979 0.527,2.719 1.959,0.985 0.53,-0.642 1.674,-1.637 1.109,-2.533 -1.003,-1.59 -2.419,0.776 -3.068,1.548 z m 4.841,-5.622 c 1.343,1.41 2.347,-1.391 2.719,-2.172 0.595,-1.251 -1.253,-2.308 -2.081,-0.608 -0.374,0.76 -1.355,2.01 -0.638,2.78 z m 3.013,-8.87 c -0.362,1.225 1.579003,2.268 2.184003,0.158 0.202,-0.707 0.771,-1.873 0.253,-2.556 -0.622,-0.82 -1.707003,-0.371 -1.924003,0.51 z m 1.538003,-8.133 c -0.086,1.076 1.997,2.225 2.184,-0.46 l 0.08,-1.541 c 0.041,-1.47 -2.089,-1.437 -2.146,0.085 z m -0.14,-8.272 c 0.182,1.412 2.321,1.243 2.085,-0.595 -0.069,-0.528 -0.147,-1.055 -0.233,-1.581 -0.306,-1.829 -2.379,-1.242 -2.113,0.348 z m -1.828003,-8.068 c 0.47,1.397 2.508003,0.686 1.927003,-0.979 l -0.652,-1.752 c -0.557003,-1.375 -2.458003,-0.396 -1.975003,0.822 z m -3.448,-7.528 c 0.774,1.289 2.525,0.064 1.781,-1.188 l -1.089,-1.741 c -0.805,-1.209 -2.505,0.08 -1.792,1.166 z m -4.915,-6.681 c 0.932,1.001 2.689,-0.235 1.329,-1.71 -0.562,-0.61 -1.38,-1.903 -2.37,-1.547 -1.874,0.673 0.324,2.466 1.041,3.257 z m -6.172,-5.561 c 1.112,0.798 2.584,-0.771 0.952,-1.942 l -1.484,-1.019 c -1.264,-0.834 -2.317,1.017 -0.985,1.903 z m -7.176,-4.203 c 1.221,0.544 2.441,-1.251 0.462,-2.127 l -1.594,-0.666 c -1.392,-0.549 -2.042,1.474 -0.66,2.026 z m -7.89,-2.664 c 1.29,0.277 2.147,-1.714 0.028,-2.172 -0.548,-0.117 -1.085,-0.202 -1.689,-0.302 -1.489,-0.247 -1.741,1.823 -0.279,2.082 z m -16.586,-0.366 c 1.478,-0.273 0.861,-2.32 -0.457,-2.078 l -2.082,0.435 c -1.413,0.329 -0.937,2.395 0.739,2.012 z m -7.996,2.316 c 0.972,-0.408 0.838,-1.804 -0.196,-2.023 -0.52,-0.105 -3.278,0.794 -3.247,1.918 0.054,1.975 2.599,0.449 3.443,0.105 z m -7.362,3.889 c 1.222,-0.812 -0.022,-2.558 -1.435,-1.603 -0.661,0.446 -2.116,1.116 -1.97,2.108 0.168,1.133 1.272,1.004 1.973,0.493 z m -6.416,5.283 c 0.844,-0.858 -0.227,-2.842 -1.905,-1.104 l -1.124,1.211 c -0.666,0.756 0.16,2.97 2,0.971 z m -5.208001,6.458 c 0.653,-1.004 -0.797,-2.746 -2.1,-0.684 l -0.846,1.398 c -0.692,1.197 1.065,2.4 2.02,0.781 z m -3.777,7.369 c 0.475,-1.242 -1.415,-2.317 -2.148,-0.374 l -0.589,1.669 c -0.396,1.196 1.467,2.318 2.173,0.252 z m -2.183,7.98 c 0.234,-1.506 -1.906,-1.642 -2.147,-0.137 l -0.268,1.962 c -0.109,0.982 1.854,2.35 2.2,-0.353 z m -0.513,8.258 c -0.076,-1.437 -2.205,-1.333 -2.13,0.32 0.037,0.838 -0.187,2.554 0.896,2.868 1.834,0.531 1.281,-2.08 1.234,-3.188 z m 1.176,8.192 c -0.364,-1.425 -2.39,-0.726 -2.069,0.552 l 0.578,2.069 c 0.324,1.025 2.609,1.31 1.893,-1.142 z m 2.833,7.773 c -0.591,-1.204 -2.666,-0.547 -1.74,1.308 l 0.818,1.56 c 0.731,1.319 2.522,0.159 1.782,-1.197 z m 4.368001,7.045 c -0.947001,-1.202 -2.507001,0.259 -1.586001,1.442 0.413,0.526 0.833,1.042 1.267001,1.551 0.94,1.099 2.479,-0.386 1.632,-1.378 z m 12.531,10.782 c -1.283,-0.697 -2.178,1.23 -1.037,1.86 l 1.942,1.014 c 1.193,0.583 2.441,-1.153 0.593,-2.082 z m 7.653,3.279 c -1.424,-0.441 -1.926,1.631 -0.53,2.063 l 2.003,0.566 c 1.454,0.378 1.861,-1.709 0.34,-2.109 -0.609,-0.161 -1.212,-0.333 -1.813,-0.52 z" />
</svg>
