<svg
        xmlns="http://www.w3.org/2000/svg"
        xmlns:xlink="http://www.w3.org/1999/xlink"
        width="116px" height="86px">
    <path fill-rule="evenodd"  fill="rgb(255, 255, 255)"
          d="M57.987,29.234 L49.189,22.234 L51.785,19.635 C52.244,19.175 52.244,18.427 51.785,17.968 L50.813,16.992 C48.478,14.659 44.025,14.659 41.693,16.992 L40.961,17.727 L35.673,12.429 L35.673,1.271 C35.814,-0.340 33.317,-0.448 33.317,1.167 C33.317,6.260 33.321,11.355 33.321,16.447 L30.970,16.447 C30.970,11.355 30.989,6.260 30.989,1.172 C30.989,-0.370 28.662,-0.392 28.630,1.146 L28.619,1.146 L28.619,12.429 L27.443,13.606 C27.443,10.878 26.392,10.199 24.607,8.408 C23.656,7.458 23.656,5.426 24.607,4.472 L27.100,1.975 L25.437,0.313 C22.912,2.839 19.282,6.405 22.944,10.075 C25.581,12.717 25.092,12.146 25.092,15.961 L23.086,17.968 C22.627,18.427 22.627,19.175 23.086,19.635 L31.071,27.631 L30.341,28.361 C28.007,30.699 28.007,35.154 30.341,37.492 L31.313,38.467 C31.534,38.690 31.833,38.810 32.146,38.810 C32.457,38.810 32.757,38.690 32.978,38.467 L36.670,34.767 L41.710,42.222 L1.295,71.924 C-1.635,73.411 0.926,77.781 3.505,75.293 L43.660,45.049 L55.800,63.224 L49.869,71.031 C47.415,73.356 51.872,76.423 53.226,73.429 L57.987,66.378 L62.747,73.429 C64.099,76.423 68.561,73.356 66.107,71.031 L60.173,63.224 L72.316,45.049 L112.469,75.293 C115.047,77.781 117.609,73.411 114.678,71.924 L74.264,42.222 L79.301,34.767 L83.000,38.467 C83.219,38.690 83.515,38.810 83.828,38.810 C84.141,38.810 84.441,38.690 84.660,38.467 L85.634,37.492 C87.968,35.154 87.968,30.699 85.634,28.361 L84.905,27.631 L92.886,19.635 C93.349,19.175 93.349,18.427 92.886,17.968 L90.882,15.961 C90.882,12.146 90.393,12.717 93.032,10.075 C96.692,6.405 93.061,2.839 90.539,0.313 L88.874,1.975 L91.367,4.472 C92.319,5.426 92.315,7.458 91.367,8.408 C89.582,10.199 88.531,10.878 88.531,13.606 L87.355,12.429 L87.355,1.146 L87.342,1.146 C87.312,-0.392 84.986,-0.370 84.986,1.172 C84.986,6.260 85.003,11.355 85.003,16.447 L82.652,16.447 C82.652,11.355 82.657,6.260 82.657,1.167 C82.657,-0.448 80.159,-0.340 80.301,1.271 L80.301,12.429 L75.010,17.727 L74.281,16.992 C71.951,14.659 67.493,14.659 65.163,16.992 L64.189,17.968 C63.730,18.427 63.730,19.175 64.189,19.635 L66.785,22.234 L57.987,29.234 L57.987,29.234 ZM96.078,72.427 L95.576,70.889 L92.456,71.903 L93.538,69.785 L92.096,69.050 L90.281,72.612 L88.792,73.098 L89.479,69.102 L88.308,68.246 L84.857,70.060 L84.857,68.663 L87.681,65.836 L86.539,64.693 L84.857,66.373 L84.857,63.091 L83.240,63.091 L83.240,66.373 L81.562,64.693 L80.417,65.836 L83.240,68.663 L83.240,70.051 L79.807,68.242 L78.632,69.093 L79.314,73.098 L77.817,72.612 L76.006,69.050 L74.564,69.785 L75.641,71.903 L72.522,70.889 L72.024,72.427 L75.139,73.445 L73.024,74.524 L73.758,75.967 L77.319,74.155 L78.666,74.592 L75.997,77.188 L76.448,78.571 L80.395,79.147 L79.387,80.535 L75.444,81.162 L75.697,82.761 L78.044,82.391 L76.117,85.046 L77.426,85.996 L79.353,83.341 L79.726,85.691 L81.322,85.438 L80.696,81.489 L81.648,80.179 L83.321,83.577 L84.772,83.581 L86.449,80.179 L87.402,81.489 L86.776,85.438 L88.376,85.691 L88.745,83.341 L90.672,85.996 L91.985,85.046 L90.054,82.391 L92.401,82.761 L92.654,81.162 L88.711,80.535 L87.707,79.152 L91.650,78.580 L92.101,77.197 L89.431,74.592 L90.783,74.155 L94.340,75.967 L95.074,74.524 L92.959,73.445 L96.078,72.427 L96.078,72.427 ZM84.857,71.890 L87.608,70.442 L87.054,73.661 L84.857,74.378 L84.857,71.890 L84.857,71.890 ZM83.240,71.882 L83.240,74.378 L81.052,73.665 L80.502,70.442 L83.240,71.882 L83.240,71.882 ZM81.472,77.669 L78.301,77.205 L80.404,75.156 L82.742,75.916 L81.472,77.669 L81.472,77.669 ZM84.047,81.390 L82.721,78.696 L84.047,76.870 L85.377,78.696 L84.047,81.390 L84.047,81.390 ZM89.796,77.213 L86.630,77.669 L85.360,75.916 L87.694,75.156 L89.796,77.213 L89.796,77.213 ZM40.075,66.743 L39.792,65.866 L38.020,66.446 L38.631,65.239 L37.812,64.822 L36.782,66.846 L35.935,67.121 L36.325,64.852 L35.658,64.367 L33.701,65.393 L33.701,64.603 L35.304,62.996 L34.656,62.347 L33.701,63.301 L33.701,61.436 L32.781,61.436 L32.781,63.301 L31.826,62.347 L31.176,62.996 L32.781,64.603 L32.781,65.393 L30.829,64.362 L30.161,64.848 L30.550,67.121 L29.700,66.846 L28.668,64.822 L27.851,65.239 L28.462,66.446 L26.692,65.866 L26.405,66.743 L28.179,67.319 L26.975,67.933 L27.391,68.754 L29.415,67.722 L30.181,67.972 L28.666,69.446 L28.919,70.232 L31.165,70.562 L30.592,71.349 L28.351,71.706 L28.494,72.616 L29.826,72.402 L28.732,73.914 L29.477,74.456 L30.571,72.943 L30.781,74.279 L31.691,74.137 L31.335,71.890 L31.875,71.147 L32.826,73.081 L33.652,73.081 L34.604,71.147 L35.145,71.890 L34.791,74.137 L35.699,74.279 L35.909,72.943 L37.005,74.456 L37.750,73.914 L36.653,72.402 L37.986,72.616 L38.131,71.706 L35.889,71.349 L35.316,70.562 L37.561,70.236 L37.816,69.454 L36.299,67.972 L37.065,67.722 L39.088,68.754 L39.507,67.933 L38.303,67.319 L40.075,66.743 L40.075,66.743 ZM33.701,66.438 L35.261,65.613 L34.948,67.443 L33.701,67.851 L33.701,66.438 L33.701,66.438 ZM32.781,66.433 L32.781,67.851 L31.536,67.443 L31.223,65.613 L32.781,66.433 L32.781,66.433 ZM31.775,69.720 L29.975,69.454 L31.167,68.294 L32.495,68.724 L31.775,69.720 L31.775,69.720 ZM33.238,71.835 L32.487,70.305 L33.240,69.265 L33.995,70.305 L33.238,71.835 L33.238,71.835 ZM36.507,69.458 L34.707,69.720 L33.982,68.724 L35.312,68.294 L36.507,69.458 L36.507,69.458 ZM57.869,61.264 L45.348,43.657 L57.987,33.281 L70.625,43.657 L57.869,61.264 L57.869,61.264 ZM90.397,18.801 L87.355,15.759 L87.355,17.624 C87.355,18.273 86.831,18.801 86.179,18.801 L81.477,18.801 C80.828,18.801 80.301,18.273 80.301,17.624 L80.301,15.759 L76.675,19.390 L83.240,25.963 L90.397,18.801 L90.397,18.801 ZM83.828,35.971 L83.970,35.829 C85.385,34.411 85.385,31.442 83.970,30.024 L72.621,18.655 C71.204,17.242 68.239,17.237 66.823,18.655 L66.682,18.801 L83.828,35.971 L83.828,35.971 ZM77.610,33.070 L68.458,23.905 L59.855,30.755 L72.419,40.752 L77.610,33.070 L77.610,33.070 ZM25.579,18.801 L28.619,15.759 L28.619,17.624 C28.619,18.273 29.145,18.801 29.794,18.801 L34.497,18.801 C35.147,18.801 35.673,18.273 35.673,17.624 L35.673,15.759 L39.301,19.390 L32.733,25.963 L25.579,18.801 L25.579,18.801 ZM32.146,35.971 L32.004,35.829 C30.588,34.411 30.588,31.442 32.004,30.024 L43.353,18.655 C44.771,17.242 47.734,17.237 49.150,18.655 L49.292,18.801 L32.146,35.971 L32.146,35.971 ZM38.365,33.070 L47.517,23.905 L56.118,30.755 L43.553,40.752 L38.365,33.070 L38.365,33.070 Z"/>
</svg>