<svg
        xmlns="http://www.w3.org/2000/svg"
        xmlns:xlink="http://www.w3.org/1999/xlink"
        width="72px" height="89px">
    <path fill-rule="evenodd"  fill="rgb(255, 255, 255)"
          d="M70.233,40.454 C71.157,39.232 69.285,37.835 68.359,39.058 C68.350,39.069 67.243,40.541 65.044,42.700 L63.839,42.700 L63.839,43.847 C60.166,47.238 54.258,51.777 46.131,55.197 C31.271,61.452 2.715,62.965 2.633,62.971 C1.094,63.057 1.224,65.381 2.763,65.295 C2.777,65.295 3.567,65.251 4.943,65.155 L4.943,65.933 L3.740,65.933 C2.803,65.933 2.042,66.689 2.042,67.619 C2.042,67.832 2.086,68.033 2.158,68.219 C1.682,68.519 1.362,69.044 1.362,69.644 C1.362,70.458 1.947,71.138 2.721,71.296 L2.721,72.359 C1.036,73.479 0.004,75.378 0.004,77.401 C0.004,80.748 2.747,83.472 6.117,83.472 C9.488,83.472 12.231,80.748 12.231,77.401 C12.231,75.378 11.198,73.479 9.514,72.359 L9.514,71.296 C10.288,71.138 10.872,70.456 10.872,69.644 C10.872,69.044 10.553,68.519 10.077,68.219 C10.149,68.033 10.193,67.832 10.193,67.619 C10.193,66.689 9.431,65.933 8.495,65.933 L7.293,65.933 L7.293,64.974 C11.252,64.653 17.389,64.055 23.993,63.049 L23.993,66.750 C23.920,66.981 23.879,67.240 23.879,67.519 C22.278,67.864 22.587,69.469 22.587,70.703 L27.752,70.703 C27.752,69.469 28.060,67.864 26.461,67.519 C26.461,67.236 26.417,66.973 26.342,66.740 L26.342,62.676 C32.594,61.645 39.076,60.242 44.397,58.356 L44.397,59.190 L43.194,59.190 C42.257,59.190 41.496,59.946 41.496,60.876 C41.496,61.089 41.540,61.290 41.611,61.476 C41.135,61.777 40.816,62.300 40.816,62.901 C40.816,63.715 41.401,64.395 42.175,64.553 L42.175,65.616 C40.491,66.736 39.458,68.635 39.458,70.658 C39.458,74.006 42.200,76.728 45.571,76.728 C48.942,76.728 51.684,74.006 51.684,70.658 C51.684,68.635 50.653,66.736 48.967,65.616 L48.967,64.553 C49.743,64.395 50.327,63.715 50.327,62.901 C50.327,62.300 50.007,61.777 49.531,61.476 C49.602,61.290 49.648,61.089 49.648,60.876 C49.648,59.946 48.885,59.190 47.950,59.190 L46.747,59.190 L46.747,57.460 L47.040,57.340 C54.365,54.257 59.973,50.278 63.839,46.957 L63.839,48.498 C63.768,48.729 63.724,48.985 63.724,49.264 C62.124,49.610 62.434,51.214 62.434,52.449 L67.598,52.449 C67.598,51.214 67.906,49.610 66.308,49.264 C66.308,48.981 66.264,48.719 66.189,48.486 L66.189,44.828 C68.870,42.267 70.224,40.468 70.233,40.454 L70.233,40.454 ZM0.376,2.009 C-0.733,0.951 0.888,-0.728 2.000,0.333 C2.026,0.357 10.979,8.940 26.548,12.718 C42.227,16.524 70.658,13.466 70.738,13.458 C72.271,13.297 72.520,15.612 70.986,15.773 C70.965,15.775 69.158,15.969 66.208,16.200 L66.208,17.534 L67.411,17.534 C68.348,17.534 69.109,18.290 69.109,19.221 C69.109,19.433 69.065,19.633 68.992,19.822 C69.468,20.120 69.788,20.644 69.788,21.244 C69.788,22.058 69.203,22.740 68.430,22.897 L68.430,23.959 C70.115,25.082 71.145,26.979 71.145,29.002 C71.145,32.350 68.403,35.073 65.032,35.073 C61.661,35.073 58.919,32.350 58.919,29.002 C58.919,26.979 59.952,25.082 61.636,23.959 L61.636,22.897 C60.862,22.740 60.279,22.058 60.279,21.244 C60.279,20.644 60.598,20.120 61.074,19.822 C61.002,19.633 60.958,19.433 60.958,19.221 C60.958,18.290 61.719,17.534 62.655,17.534 L63.858,17.534 L63.858,16.371 C59.353,16.681 53.183,16.985 46.755,16.944 L46.755,21.806 C46.827,22.037 46.869,22.295 46.869,22.574 C48.470,22.919 48.162,24.525 48.162,25.760 L42.995,25.760 C42.995,24.525 42.688,22.919 44.288,22.574 C44.288,22.291 44.332,22.029 44.406,21.795 L44.406,16.915 C38.091,16.787 31.698,16.289 26.529,15.103 L26.529,16.397 L27.731,16.397 C28.668,16.397 29.429,17.155 29.429,18.085 C29.429,18.296 29.385,18.498 29.313,18.685 C29.791,18.984 30.109,19.508 30.109,20.108 C30.109,20.923 29.525,21.603 28.750,21.760 L28.750,22.824 C30.436,23.945 31.467,25.843 31.467,27.865 C31.467,31.214 28.725,33.937 25.355,33.937 C21.983,33.937 19.241,31.214 19.241,27.865 C19.241,25.843 20.273,23.945 21.959,22.824 L21.959,21.760 C21.183,21.603 20.599,20.923 20.599,20.108 C20.599,19.508 20.919,18.984 21.394,18.685 C21.324,18.498 21.279,18.296 21.279,18.085 C21.279,17.155 22.041,16.397 22.977,16.397 L24.180,16.397 L24.180,14.507 C17.125,12.573 11.465,9.719 7.439,7.226 L7.439,10.650 C7.511,10.880 7.554,11.138 7.554,11.417 C9.154,11.762 8.845,13.368 8.845,14.602 L3.680,14.602 C3.680,13.368 3.371,11.762 4.972,11.417 C4.972,11.134 5.016,10.873 5.089,10.638 L5.089,5.694 C2.021,3.586 0.387,2.021 0.376,2.009 L0.376,2.009 ZM45.579,44.044 C43.382,44.044 39.508,31.875 42.047,27.970 C42.911,26.638 43.619,26.711 44.988,26.711 L44.988,32.111 L43.095,34.001 C43.084,34.013 43.072,34.024 43.060,34.036 C42.961,34.148 42.905,34.281 42.905,34.432 C42.905,34.756 43.169,35.019 43.496,35.019 C43.646,35.019 43.781,34.964 43.885,34.873 L45.579,33.185 L47.273,34.873 C47.376,34.964 47.514,35.019 47.663,35.019 C47.988,35.019 48.254,34.756 48.254,34.432 C48.254,34.285 48.198,34.151 48.108,34.047 C47.512,33.380 46.806,32.747 46.169,32.111 L46.169,26.711 C47.538,26.711 48.246,26.638 49.110,27.970 C51.659,31.888 47.768,44.044 45.579,44.044 L45.579,44.044 ZM6.262,32.888 C4.066,32.888 0.192,20.718 2.730,16.813 C3.595,15.481 4.302,15.554 5.672,15.554 L5.672,20.955 L3.778,22.844 C3.766,22.856 3.754,22.868 3.744,22.879 C3.644,22.992 3.589,23.124 3.589,23.276 C3.589,23.599 3.853,23.861 4.179,23.861 C4.328,23.861 4.465,23.807 4.568,23.716 L6.262,22.028 L7.956,23.716 C8.061,23.807 8.196,23.861 8.346,23.861 C8.672,23.861 8.936,23.599 8.936,23.276 C8.936,23.129 8.882,22.994 8.792,22.891 C8.194,22.223 7.490,21.591 6.853,20.955 L6.853,15.554 C8.223,15.554 8.930,15.481 9.795,16.813 C12.342,20.731 8.451,32.888 6.262,32.888 L6.262,32.888 ZM25.355,28.871 C25.909,28.871 26.360,28.423 26.360,27.872 C26.360,27.320 25.909,26.873 25.355,26.873 C24.799,26.873 24.348,27.320 24.348,27.872 C24.348,28.423 24.799,28.871 25.355,28.871 L25.355,28.871 ZM22.321,19.600 L22.321,19.600 C22.012,19.600 21.763,19.849 21.763,20.155 C21.763,20.462 22.012,20.710 22.321,20.711 L22.321,20.711 L28.281,20.711 L28.281,20.711 C28.590,20.711 28.840,20.462 28.840,20.155 C28.840,19.849 28.590,19.600 28.281,19.600 L28.281,19.600 L22.321,19.600 L22.321,19.600 ZM22.857,17.352 L22.857,17.352 C22.549,17.352 22.298,17.601 22.298,17.907 C22.298,18.214 22.549,18.463 22.857,18.463 L22.857,18.463 L27.651,18.463 L27.651,18.463 C27.960,18.463 28.210,18.214 28.210,17.907 C28.210,17.601 27.960,17.352 27.651,17.352 L27.651,17.352 L22.857,17.352 L22.857,17.352 ZM27.730,23.781 C27.456,23.623 27.392,23.678 27.392,23.382 L27.392,21.794 L26.033,21.794 L26.033,25.966 C26.822,26.246 27.392,26.988 27.392,27.865 C27.392,28.982 26.478,29.890 25.355,29.890 C24.230,29.890 23.316,28.982 23.316,27.865 C23.316,26.988 23.886,26.246 24.675,25.966 L24.675,21.794 L23.316,21.794 L23.316,23.388 C23.316,23.677 23.247,23.626 22.977,23.781 C21.511,24.625 20.599,26.190 20.599,27.865 C20.599,30.469 22.733,32.587 25.355,32.587 C27.975,32.587 30.109,30.469 30.109,27.865 C30.109,26.190 29.198,24.625 27.730,23.781 L27.730,23.781 ZM65.032,30.007 C65.589,30.007 66.038,29.559 66.038,29.008 C66.038,28.456 65.589,28.009 65.032,28.009 C64.478,28.009 64.026,28.456 64.026,29.008 C64.026,29.559 64.478,30.007 65.032,30.007 L65.032,30.007 ZM62.000,20.736 L62.000,20.736 C61.692,20.736 61.441,20.985 61.441,21.291 C61.441,21.598 61.692,21.846 62.000,21.848 L62.000,21.848 L67.960,21.848 L67.960,21.848 C68.268,21.848 68.520,21.598 68.520,21.291 C68.520,20.985 68.268,20.736 67.960,20.736 L67.960,20.736 L62.000,20.736 L62.000,20.736 ZM62.537,18.488 L62.537,18.488 C62.227,18.488 61.977,18.737 61.977,19.044 C61.977,19.351 62.227,19.599 62.537,19.599 L62.537,19.599 L67.330,19.599 L67.330,19.599 C67.638,19.599 67.889,19.351 67.889,19.044 C67.889,18.737 67.638,18.488 67.330,18.488 L67.330,18.488 L62.537,18.488 L62.537,18.488 ZM67.409,24.916 C67.134,24.759 67.070,24.814 67.070,24.518 L67.070,22.931 L65.711,22.931 L65.711,27.102 C66.501,27.382 67.070,28.123 67.070,29.002 C67.070,30.117 66.157,31.025 65.032,31.025 C63.910,31.025 62.996,30.117 62.996,29.002 C62.996,28.123 63.566,27.382 64.353,27.102 L64.353,22.931 L62.996,22.931 L62.996,24.523 C62.996,24.814 62.927,24.763 62.655,24.916 C61.191,25.760 60.279,27.326 60.279,29.002 C60.279,31.605 62.411,33.723 65.032,33.723 C67.654,33.723 69.788,31.605 69.788,29.002 C69.788,27.326 68.876,25.760 67.409,24.916 L67.409,24.916 ZM6.117,78.407 C5.562,78.407 5.111,77.959 5.111,77.406 C5.111,76.856 5.562,76.408 6.117,76.408 C6.673,76.408 7.124,76.856 7.124,77.406 C7.124,77.959 6.673,78.407 6.117,78.407 L6.117,78.407 ZM9.150,69.135 L9.150,69.135 C9.459,69.135 9.710,69.384 9.710,69.689 C9.710,69.997 9.459,70.245 9.150,70.245 L9.150,70.245 L3.190,70.245 L3.190,70.245 C2.882,70.245 2.631,69.997 2.631,69.689 C2.631,69.384 2.882,69.135 3.190,69.135 L3.190,69.135 L9.150,69.135 L9.150,69.135 ZM8.614,66.886 L8.614,66.886 C8.923,66.886 9.174,67.135 9.174,67.443 C9.174,67.748 8.923,67.997 8.614,67.997 L8.614,67.997 L3.820,67.997 L3.820,67.997 C3.513,67.997 3.262,67.748 3.262,67.443 C3.262,67.135 3.513,66.886 3.820,66.886 L3.820,66.886 L8.614,66.886 L8.614,66.886 ZM3.741,73.316 C4.015,73.159 4.080,73.214 4.080,72.918 L4.080,71.330 L5.438,71.330 L5.438,75.502 C4.650,75.781 4.080,76.523 4.080,77.401 C4.080,78.517 4.995,79.425 6.117,79.425 C7.241,79.425 8.155,78.517 8.155,77.401 C8.155,76.523 7.585,75.781 6.797,75.502 L6.797,71.330 L8.155,71.330 L8.155,72.923 C8.155,73.211 8.224,73.161 8.495,73.316 C9.960,74.159 10.872,75.726 10.872,77.401 C10.872,80.004 8.738,82.121 6.117,82.121 C3.496,82.121 1.362,80.004 1.362,77.401 C1.362,75.726 2.275,74.159 3.741,73.316 L3.741,73.316 ZM25.169,88.990 C27.366,88.990 31.240,76.820 28.702,72.914 C27.836,71.582 27.130,71.654 25.760,71.654 L25.760,77.057 L27.654,78.946 C27.665,78.957 27.677,78.969 27.687,78.981 C27.789,79.093 27.843,79.225 27.843,79.378 C27.843,79.700 27.579,79.962 27.252,79.962 C27.103,79.962 26.967,79.907 26.863,79.818 L25.169,78.130 L23.475,79.818 C23.372,79.907 23.235,79.962 23.086,79.962 C22.760,79.962 22.496,79.700 22.496,79.378 C22.496,79.229 22.550,79.094 22.640,78.992 C23.237,78.323 23.941,77.693 24.579,77.057 L24.579,71.654 C23.209,71.654 22.502,71.582 21.636,72.914 C19.090,76.833 22.982,88.990 25.169,88.990 L25.169,88.990 ZM45.571,71.664 C45.017,71.664 44.565,71.216 44.565,70.663 C44.565,70.113 45.017,69.664 45.571,69.664 C46.127,69.664 46.577,70.113 46.577,70.663 C46.577,71.216 46.127,71.664 45.571,71.664 L45.571,71.664 ZM48.606,62.392 L48.606,62.392 C48.913,62.392 49.164,62.640 49.164,62.948 C49.164,63.253 48.913,63.503 48.606,63.504 L48.606,63.504 L42.645,63.504 L42.645,63.504 C42.336,63.504 42.085,63.253 42.085,62.948 C42.085,62.640 42.336,62.392 42.645,62.392 L42.645,62.392 L48.606,62.392 L48.606,62.392 ZM48.068,60.145 L48.068,60.145 C48.376,60.145 48.629,60.394 48.629,60.700 C48.629,61.005 48.376,61.256 48.068,61.256 L48.068,61.256 L43.275,61.256 L43.275,61.256 C42.967,61.256 42.716,61.005 42.716,60.700 C42.716,60.394 42.967,60.145 43.275,60.145 L43.275,60.145 L48.068,60.145 L48.068,60.145 ZM43.196,66.573 C43.470,66.415 43.535,66.471 43.535,66.174 L43.535,64.587 L44.892,64.587 L44.892,68.759 C44.104,69.038 43.535,69.780 43.535,70.658 C43.535,71.774 44.449,72.682 45.571,72.682 C46.695,72.682 47.609,71.774 47.609,70.658 C47.609,69.780 47.040,69.038 46.250,68.759 L46.250,64.587 L47.609,64.587 L47.609,66.180 C47.609,66.468 47.678,66.417 47.948,66.573 C49.414,67.416 50.327,68.983 50.327,70.658 C50.327,73.261 48.192,75.380 45.571,75.380 C42.952,75.380 40.816,73.261 40.816,70.658 C40.816,68.983 41.728,67.416 43.196,66.573 L43.196,66.573 ZM65.015,70.736 C67.212,70.736 71.086,58.566 68.549,54.659 C67.682,53.328 66.977,53.400 65.606,53.400 L65.606,58.803 L67.501,60.692 C67.512,60.703 67.524,60.715 67.535,60.726 C67.635,60.838 67.690,60.971 67.690,61.123 C67.690,61.446 67.426,61.708 67.099,61.708 C66.950,61.708 66.814,61.655 66.711,61.563 L65.015,59.875 L63.323,61.563 C63.218,61.655 63.082,61.708 62.933,61.708 C62.606,61.708 62.342,61.446 62.342,61.123 C62.342,60.975 62.397,60.840 62.487,60.738 C63.084,60.071 63.789,59.439 64.426,58.803 L64.426,53.400 C63.055,53.400 62.350,53.328 61.483,54.659 C58.936,58.579 62.827,70.736 65.015,70.736 L65.015,70.736 Z"/>
</svg>