<svg
        xmlns="http://www.w3.org/2000/svg"
        xmlns:xlink="http://www.w3.org/1999/xlink"
        width="128px" height="113px">
    <path fill-rule="evenodd"  fill="rgb(255, 255, 255)"
          d="M98.271,81.621 L59.453,81.699 C58.483,81.699 57.692,82.464 57.692,83.408 L57.697,86.123 L57.702,86.123 C57.702,86.809 58.137,87.437 58.791,87.697 L58.791,87.702 L58.791,87.697 C59.003,87.784 59.231,87.826 59.467,87.826 L74.274,87.798 C74.672,87.798 75.003,88.114 75.003,88.503 C75.003,89.496 75.406,90.431 76.139,91.131 C77.650,92.573 80.107,92.573 81.613,91.122 C82.314,90.453 82.745,89.524 82.740,88.508 C82.537,88.306 82.712,87.711 83.403,87.784 C84.634,87.908 87.991,87.798 96.949,87.748 C98.242,87.748 100.060,87.839 100.056,86.040 L100.051,83.330 C100.041,82.386 99.251,81.621 98.271,81.621 L98.271,81.621 ZM47.020,14.151 L46.433,12.405 L42.772,13.556 L44.036,11.153 L42.341,10.317 L40.215,14.358 L38.468,14.907 L39.273,10.376 L37.895,9.408 L33.847,11.462 L33.847,9.882 L37.162,6.675 L35.817,5.377 L33.847,7.284 L33.847,3.564 L31.948,3.564 L31.948,7.284 L29.973,5.377 L28.629,6.677 L31.948,9.882 L31.948,11.457 L27.914,9.401 L26.531,10.370 L27.336,14.909 L25.575,14.358 L23.449,10.317 L21.754,11.153 L23.022,13.556 L19.363,12.405 L18.776,14.151 L22.436,15.303 L19.950,16.526 L20.812,18.162 L24.992,16.104 L26.574,16.603 L23.439,19.547 L23.970,21.118 L28.605,21.772 L27.422,23.343 L22.791,24.052 L23.089,25.870 L25.845,25.449 L23.582,28.457 L25.121,29.538 L27.379,26.527 L27.814,29.189 L29.694,28.903 L28.961,24.423 L30.078,22.940 L32.038,26.795 L33.743,26.795 L35.717,22.937 L36.835,24.423 L36.096,28.903 L37.976,29.189 L38.411,26.527 L40.675,29.538 L42.214,28.457 L39.950,25.449 L42.706,25.870 L43.000,24.052 L38.369,23.343 L37.190,21.775 L41.825,21.126 L42.351,19.558 L39.216,16.603 L40.802,16.104 L44.979,18.162 L45.845,16.526 L43.359,15.303 L47.020,14.151 L47.020,14.151 ZM33.847,13.538 L37.071,11.901 L36.423,15.548 L33.847,16.358 L33.847,13.538 L33.847,13.538 ZM31.948,13.531 L31.948,16.358 L29.377,15.550 L28.728,11.894 L31.948,13.531 L31.948,13.531 ZM29.870,20.092 L26.148,19.566 L28.615,17.242 L31.361,18.105 L29.870,20.092 L29.870,20.092 ZM32.895,24.313 L31.337,21.259 L32.895,19.185 L34.453,21.259 L32.895,24.313 L32.895,24.313 ZM39.647,19.575 L35.926,20.094 L34.434,18.105 L37.175,17.244 L39.647,19.575 L39.647,19.575 ZM58.521,75.331 L56.925,75.835 C56.442,75.986 55.926,75.734 55.770,75.267 C55.694,75.038 55.718,74.795 55.827,74.594 L55.827,74.594 L58.350,69.800 L56.049,68.669 L51.522,77.259 C51.404,77.492 51.186,77.648 50.949,77.711 L46.925,78.976 C46.447,79.126 45.931,78.875 45.774,78.408 C45.727,78.265 45.717,78.123 45.741,77.986 L45.741,77.986 L47.517,68.005 L45.234,66.403 L36.342,70.917 C35.892,71.146 35.343,70.977 35.111,70.546 C35.035,70.414 35.002,70.272 35.002,70.139 L35.002,66.467 C35.002,66.220 35.102,66.000 35.267,65.840 L42.322,59.022 L40.499,57.259 L36.565,61.060 C36.210,61.408 35.627,61.408 35.267,61.060 C35.092,60.886 35.002,60.662 35.002,60.433 L35.002,52.677 L32.422,52.677 L32.422,60.437 C32.422,60.923 32.010,61.321 31.503,61.321 C31.252,61.321 31.025,61.220 30.859,61.060 L26.924,57.259 L25.102,59.022 L32.152,65.840 C32.332,66.013 32.422,66.238 32.422,66.467 L32.422,70.121 C32.422,70.611 32.010,71.009 31.503,71.009 C31.328,71.009 31.162,70.959 31.020,70.872 L22.213,66.389 L19.931,67.991 L21.697,77.991 C21.782,78.472 21.451,78.929 20.949,79.012 C20.793,79.040 20.636,79.021 20.494,78.976 L16.432,77.698 C16.195,77.625 16.006,77.460 15.901,77.259 L11.375,68.669 L9.074,69.800 L11.597,74.594 C11.830,75.029 11.649,75.564 11.195,75.784 C10.958,75.899 10.693,75.908 10.461,75.826 L2.866,73.435 L2.071,75.812 L9.703,78.211 C10.182,78.362 10.447,78.861 10.291,79.323 C10.210,79.557 10.044,79.736 9.831,79.840 L4.879,82.281 L6.052,84.502 L14.936,80.129 C15.172,80.010 15.442,80.001 15.674,80.088 L19.310,81.228 C19.789,81.379 20.049,81.878 19.898,82.345 C19.846,82.496 19.756,82.629 19.637,82.725 L12.800,89.162 L13.671,91.754 L23.880,93.196 C24.377,93.265 24.727,93.713 24.656,94.199 C24.633,94.345 24.576,94.478 24.491,94.592 L21.744,98.246 C21.579,98.461 21.342,98.585 21.086,98.608 L11.289,100.109 L11.697,102.578 L17.194,101.735 C17.691,101.657 18.160,101.987 18.236,102.472 C18.278,102.710 18.212,102.943 18.075,103.126 L18.075,103.126 L13.359,109.404 L15.447,110.869 L20.163,104.596 C20.461,104.198 21.029,104.111 21.441,104.399 C21.664,104.555 21.791,104.788 21.815,105.031 L22.677,110.292 L25.229,109.898 L23.667,100.370 C23.629,100.132 23.695,99.899 23.832,99.716 L23.828,99.716 L26.417,96.264 C26.716,95.870 27.289,95.782 27.696,96.072 C27.833,96.163 27.937,96.291 27.999,96.428 L32.289,104.853 L35.111,104.853 L39.439,96.392 C39.661,95.952 40.211,95.774 40.660,95.989 C40.699,96.007 41.002,96.264 41.002,96.264 L43.591,99.716 C43.752,99.926 43.800,100.188 43.748,100.426 L42.194,109.898 L44.747,110.292 L45.618,104.977 C45.698,104.496 46.167,104.166 46.664,104.244 C46.911,104.280 47.119,104.414 47.256,104.596 L47.261,104.596 L51.977,110.869 L54.065,109.404 L49.349,103.126 C49.051,102.733 49.141,102.179 49.553,101.891 C49.770,101.739 50.040,101.694 50.287,101.744 L55.727,102.578 L56.130,100.109 L46.281,98.598 C46.030,98.562 45.822,98.429 45.684,98.246 L45.679,98.246 L42.938,94.602 C42.644,94.203 42.734,93.654 43.142,93.366 C43.279,93.269 43.430,93.214 43.587,93.201 L53.748,91.776 L54.382,89.895 C54.491,90.028 54.610,90.156 54.733,90.279 C55.079,90.609 55.471,90.884 55.902,91.086 L55.315,92.839 C55.211,93.155 54.932,93.402 54.567,93.452 L45.310,94.748 L46.939,96.914 L57.323,98.502 C57.820,98.580 58.156,99.033 58.080,99.514 L57.389,103.726 C57.308,104.207 56.840,104.537 56.343,104.459 L52.129,103.813 L56.082,109.084 C56.380,109.477 56.291,110.031 55.878,110.319 L52.308,112.824 C51.901,113.112 51.328,113.021 51.035,112.627 L47.076,107.362 L46.409,111.441 C46.328,111.922 45.859,112.251 45.362,112.174 L41.006,111.505 C40.509,111.432 40.168,110.979 40.249,110.493 L41.891,100.462 L40.405,98.489 L36.498,106.130 L36.498,106.130 C36.347,106.418 36.034,106.620 35.679,106.620 L31.778,106.620 C31.418,106.638 31.067,106.455 30.901,106.130 L27.009,98.493 L25.532,100.462 L27.175,110.493 C27.256,110.979 26.915,111.428 26.417,111.505 L22.062,112.174 C21.564,112.251 21.096,111.922 21.015,111.441 L20.348,107.362 L16.389,112.627 C16.091,113.021 15.523,113.112 15.111,112.824 L11.540,110.319 C11.133,110.031 11.043,109.477 11.337,109.084 L15.295,103.813 L11.081,104.459 C10.584,104.537 10.115,104.207 10.035,103.726 L9.344,99.514 C9.267,99.033 9.604,98.580 10.101,98.502 L20.480,96.914 L22.118,94.734 L12.847,93.425 C12.847,93.425 12.166,92.990 12.109,92.821 L10.897,89.217 C10.778,88.901 10.854,88.531 11.119,88.279 L17.303,82.459 L15.433,81.869 L6.067,86.484 C5.617,86.704 5.063,86.530 4.836,86.095 L2.833,82.295 C2.601,81.860 2.781,81.329 3.231,81.104 L7.033,79.232 L0.636,77.222 C0.153,77.070 -0.108,76.572 0.044,76.105 L1.407,72.048 C1.568,71.586 2.080,71.329 2.563,71.480 L8.960,73.491 L7.023,69.814 C6.796,69.379 6.976,68.843 7.426,68.624 L11.356,66.687 C11.810,66.467 12.359,66.641 12.587,67.076 L17.360,76.132 L19.642,76.847 L18.037,67.768 C17.971,67.442 18.098,67.090 18.396,66.884 L21.597,64.636 C21.597,64.636 22.398,64.485 22.563,64.567 L30.589,68.655 L30.589,66.833 L23.160,59.649 C22.800,59.302 22.800,58.743 23.160,58.395 L26.275,55.378 C26.636,55.035 27.218,55.035 27.573,55.378 L30.589,58.294 L30.589,51.793 C30.589,51.301 31.001,50.905 31.503,50.905 L35.916,50.905 C36.423,50.905 36.835,51.301 36.835,51.793 L36.835,58.294 L39.851,55.378 C39.851,55.378 40.798,55.044 41.139,55.378 L44.212,58.350 C44.609,58.702 44.657,59.270 44.264,59.649 L36.835,66.833 L36.835,68.674 L44.832,64.617 C45.140,64.430 45.542,64.434 45.855,64.649 L49.046,66.893 L49.051,66.893 L49.056,66.897 C49.326,67.090 49.477,67.419 49.420,67.763 L47.801,76.842 L50.064,76.132 L54.832,67.076 C55.064,66.641 55.613,66.467 56.068,66.687 L59.998,68.624 C60.045,68.647 60.088,68.674 60.131,68.706 C60.036,69.539 59.912,70.304 59.775,71.000 L58.459,73.491 L59.226,73.253 C58.984,74.076 58.734,74.763 58.521,75.331 L58.521,75.331 ZM53.554,88.178 L47.753,82.707 C47.389,82.368 47.384,81.805 47.734,81.457 C47.843,81.352 47.971,81.274 48.109,81.233 L51.788,80.075 C52.029,80.001 52.276,80.024 52.484,80.129 L52.484,80.129 L54.719,81.228 L54.719,81.228 C54.288,81.649 53.942,82.157 53.724,82.725 L51.991,81.869 L50.112,82.464 L53.459,85.623 L53.464,87.318 L53.459,87.318 C53.459,87.606 53.488,87.894 53.554,88.178 L53.554,88.178 ZM35.570,74.136 L42.985,70.368 C43.435,70.143 43.984,70.313 44.221,70.743 C44.316,70.922 44.344,71.119 44.311,71.302 L44.311,71.302 L42.805,79.772 C42.744,80.120 42.478,80.386 42.152,80.477 L36.200,82.345 C35.722,82.496 35.206,82.244 35.045,81.777 C35.016,81.691 35.002,81.595 35.002,81.502 L35.002,81.502 L35.002,74.956 C35.002,74.585 35.239,74.269 35.570,74.136 L35.570,74.136 ZM42.194,72.767 L36.835,75.487 L36.835,80.290 L41.091,78.948 L42.194,72.767 L42.194,72.767 ZM32.422,74.942 L32.422,81.502 C32.422,81.993 32.010,82.391 31.503,82.391 C31.385,82.391 31.266,82.368 31.162,82.327 L25.253,80.468 C24.917,80.367 24.689,80.093 24.633,79.777 L23.132,71.288 C23.051,70.807 23.383,70.349 23.885,70.267 C24.097,70.230 24.306,70.272 24.486,70.368 L31.929,74.159 C32.043,74.214 32.422,74.942 32.422,74.942 L32.422,74.942 ZM30.589,80.290 L30.589,75.477 L25.248,72.758 L26.347,78.953 L30.589,80.290 L30.589,80.290 ZM26.513,91.044 L17.909,89.831 C17.407,89.762 17.062,89.314 17.132,88.828 C17.161,88.617 17.270,88.435 17.421,88.301 L23.132,82.927 C23.383,82.689 23.738,82.620 24.050,82.720 L30.423,84.722 C30.906,84.872 31.167,85.371 31.011,85.834 C31.006,85.857 30.882,86.081 30.882,86.081 L27.417,90.692 C27.204,90.980 26.849,91.104 26.513,91.044 L26.513,91.044 ZM20.002,88.338 L26.261,89.222 L28.662,86.026 L24.012,84.566 L20.002,88.338 L20.002,88.338 ZM32.886,100.366 L29.273,93.274 C29.117,92.971 29.159,92.624 29.353,92.367 L29.353,92.367 L32.971,87.551 C33.269,87.152 33.842,87.066 34.249,87.354 C34.320,87.404 34.406,87.482 34.457,87.556 L34.457,87.560 L38.071,92.363 C38.283,92.651 38.297,93.018 38.132,93.310 L34.524,100.366 C34.301,100.805 33.752,100.984 33.302,100.764 C33.113,100.677 32.971,100.535 32.886,100.366 L32.886,100.366 ZM31.158,92.976 L33.705,97.976 L36.262,92.971 L33.709,89.575 L31.158,92.976 L31.158,92.976 ZM49.515,89.849 L40.878,91.058 C40.533,91.104 40.201,90.957 40.012,90.701 L36.536,86.081 C36.243,85.683 36.333,85.134 36.740,84.845 C37.232,84.502 42.375,83.032 43.369,82.720 C43.714,82.611 44.074,82.712 44.311,82.949 L50.021,88.338 C50.386,88.677 50.396,89.240 50.040,89.589 C50.002,89.625 49.515,89.844 49.515,89.849 L49.515,89.849 ZM41.167,89.227 L47.422,88.352 L43.406,84.566 L38.762,86.026 L41.167,89.227 L41.167,89.227 ZM59.453,80.290 L98.271,80.212 C100.056,80.212 101.490,81.598 101.514,83.316 L101.514,83.325 L101.514,86.040 C101.519,88.828 99.146,89.158 96.949,89.158 L84.151,89.222 C83.985,90.344 83.441,91.360 82.645,92.125 C80.571,94.121 77.200,94.130 75.112,92.138 C74.307,91.369 73.753,90.349 73.592,89.208 L59.467,89.240 L59.467,89.240 C57.702,89.240 56.234,87.849 56.234,86.123 L56.238,86.123 L56.234,83.408 C56.234,81.681 57.673,80.294 59.453,80.290 L59.453,80.290 ZM72.953,32.380 L72.953,38.463 C72.953,39.420 73.355,40.283 73.999,40.908 L73.999,40.908 C75.495,42.352 79.823,42.352 81.315,40.908 C81.963,40.283 82.361,39.418 82.361,38.463 L82.361,32.380 C82.361,31.426 81.963,30.558 81.315,29.933 C79.818,28.487 75.495,28.487 73.999,29.933 L73.999,29.933 C73.355,30.558 72.953,31.426 72.953,32.380 L72.953,32.380 ZM71.490,38.463 L71.490,32.380 C71.490,31.035 72.053,29.814 72.963,28.933 L72.967,28.933 L72.967,28.933 C75.036,26.932 80.278,26.930 82.352,28.933 C83.261,29.814 83.824,31.035 83.824,32.380 L83.824,38.463 C83.824,39.809 83.261,41.029 82.352,41.908 C80.278,43.911 75.036,43.911 72.967,41.908 L72.967,41.908 C72.053,41.025 71.490,39.807 71.490,38.463 L71.490,38.463 ZM98.507,26.328 L87.281,29.100 C88.289,31.467 88.322,39.120 87.408,41.519 C89.710,42.087 97.475,44.353 99.270,44.353 C100.610,44.353 101.784,43.456 102.120,42.201 L102.115,42.201 C102.589,40.406 102.210,31.611 102.210,29.111 C102.219,28.883 102.172,28.615 102.115,28.393 C101.779,27.138 100.581,26.225 99.237,26.232 C99.175,26.232 98.498,26.287 98.507,26.328 L98.507,26.328 ZM86.059,27.939 L98.143,24.956 C98.143,24.956 99.137,24.821 99.232,24.821 C101.254,24.810 103.020,26.152 103.527,28.040 C103.611,28.356 103.664,28.690 103.669,29.041 C103.673,29.064 103.673,29.089 103.673,29.111 C103.673,31.911 104.104,40.383 103.536,42.549 L103.531,42.549 L103.531,42.549 C103.034,44.426 101.277,45.770 99.270,45.770 C97.021,45.770 88.943,43.360 86.225,42.689 L86.225,42.687 C86.177,42.677 86.135,42.659 86.092,42.641 C85.728,42.476 85.571,42.053 85.742,41.700 C86.954,39.230 86.925,31.396 85.605,28.974 C85.368,28.571 85.595,28.054 86.059,27.939 L86.059,27.939 ZM67.981,41.516 C67.124,39.189 67.152,31.389 68.104,29.100 L56.844,26.323 C54.974,25.866 53.113,27.218 53.113,29.111 L53.113,41.475 L53.109,41.475 C53.109,41.725 53.142,41.968 53.204,42.194 C53.535,43.447 54.747,44.348 56.087,44.353 C56.333,44.353 56.579,44.324 56.830,44.262 L56.830,44.262 L67.981,41.516 L67.981,41.516 ZM69.160,42.687 L57.195,45.631 L57.190,45.628 C56.821,45.720 56.447,45.764 56.087,45.764 C54.074,45.761 52.290,44.426 51.788,42.542 C51.698,42.204 51.650,41.844 51.650,41.475 L51.646,41.475 L51.646,29.111 C51.646,28.452 51.811,27.807 52.105,27.228 C52.403,26.644 52.834,26.126 53.374,25.721 L53.374,25.724 C54.454,24.913 55.878,24.627 57.205,24.952 L69.316,27.939 C69.316,27.939 69.463,27.992 69.477,28.001 C69.837,28.182 69.974,28.608 69.785,28.956 C68.526,31.259 68.483,39.338 69.638,41.689 C69.662,41.732 69.676,41.778 69.690,41.826 C69.790,42.206 69.553,42.591 69.160,42.687 L69.160,42.687 ZM62.195,48.469 L59.089,55.245 C59.061,55.305 59.051,55.364 59.051,55.424 C59.051,55.511 59.075,55.593 59.122,55.666 L59.122,55.666 C59.174,55.735 59.241,55.799 59.321,55.832 L59.321,55.827 C59.373,55.854 59.439,55.863 59.506,55.863 C59.534,55.863 59.562,55.863 59.586,55.859 L59.586,55.859 C59.624,55.850 59.652,55.840 59.676,55.836 L62.820,54.609 L62.825,54.604 L62.825,54.604 C63.066,54.513 63.312,54.471 63.564,54.476 C64.354,54.490 65.050,54.961 65.329,55.680 L65.334,55.689 L65.334,55.689 L66.509,58.766 C66.551,58.885 66.641,58.968 66.736,59.013 L66.760,59.022 C66.807,59.041 66.864,59.050 66.916,59.050 C66.977,59.050 67.043,59.041 67.105,59.022 C67.209,58.986 67.299,58.908 67.351,58.793 L67.351,58.793 L72.929,46.615 C72.565,46.459 72.210,46.285 71.869,46.088 L62.195,48.469 L62.195,48.469 ZM57.749,54.673 L60.992,47.604 C61.078,47.400 61.258,47.238 61.489,47.180 L71.807,44.642 L71.807,44.642 C71.996,44.596 72.205,44.623 72.380,44.733 C72.939,45.079 73.511,45.349 74.141,45.550 L74.141,45.550 C74.548,45.676 74.752,46.129 74.581,46.507 L68.687,59.361 L68.687,59.361 L68.687,59.361 C67.986,60.895 65.723,60.794 65.135,59.251 L63.961,56.175 L63.961,56.175 C63.937,56.120 63.904,56.069 63.867,56.028 C63.829,55.987 63.781,55.955 63.734,55.932 C63.668,55.909 63.611,55.886 63.540,55.886 C63.483,55.886 63.421,55.900 63.355,55.923 L63.355,55.923 L60.216,57.145 C59.003,57.617 57.583,56.775 57.583,55.424 C57.583,55.177 57.635,54.920 57.749,54.673 L57.749,54.673 ZM88.005,58.816 C88.180,59.151 88.701,59.114 88.843,58.771 L90.017,55.685 C90.382,54.696 91.519,54.243 92.513,54.600 L95.676,55.832 L95.685,55.836 L95.685,55.836 C96.059,55.982 96.434,55.602 96.268,55.250 L96.268,55.245 L96.268,55.245 L93.157,48.474 L83.483,46.084 C83.143,46.283 82.782,46.462 82.418,46.615 L88.005,58.816 L88.005,58.816 ZM86.675,59.398 L80.770,46.505 L80.770,46.505 C80.614,46.111 80.784,45.685 81.211,45.550 C81.821,45.354 82.413,45.077 82.953,44.736 C83.119,44.628 83.332,44.587 83.540,44.637 L93.862,47.185 L93.862,47.185 C94.075,47.238 94.260,47.380 94.355,47.586 L97.608,54.678 L97.603,54.678 C98.304,56.193 96.713,57.777 95.126,57.141 L91.987,55.919 C91.987,55.872 91.542,55.836 91.400,56.147 L90.212,59.256 C89.421,60.790 87.399,60.909 86.675,59.398 L86.675,59.398 ZM63.810,63.757 L63.776,64.535 C63.587,68.811 63.488,72.428 61.811,76.782 L61.627,77.286 L96.040,77.593 C95.439,75.615 94.123,70.858 94.161,66.966 C94.170,65.854 94.047,64.759 93.810,63.702 C93.668,63.088 93.489,62.488 93.270,61.903 C92.589,62.813 91.717,63.464 90.766,63.866 C89.260,64.507 87.494,64.526 85.979,63.894 C84.691,63.358 83.578,62.365 82.929,60.936 L77.673,49.479 C75.922,53.304 74.170,57.132 72.408,60.959 C71.712,62.420 70.619,63.642 69.084,64.315 C67.711,64.919 66.173,64.975 64.761,64.366 L64.733,64.352 L64.681,64.329 L64.681,64.329 L64.681,64.329 L64.624,64.301 L64.596,64.283 C64.435,64.187 64.132,63.981 63.810,63.757 L63.810,63.757 ZM62.314,64.480 C62.351,63.633 62.394,62.640 62.408,62.402 C62.451,60.625 64.771,62.818 65.292,63.047 L65.344,63.070 L65.387,63.075 C66.395,63.514 67.484,63.468 68.483,63.029 C69.515,62.575 70.438,61.701 71.026,60.492 L71.026,60.487 L71.068,60.396 L71.073,60.383 C73.071,56.047 74.501,52.915 76.012,49.623 L77.001,47.451 C77.001,47.451 77.333,47.112 77.380,47.091 C77.745,46.936 78.175,47.096 78.341,47.451 L84.241,60.313 C84.776,61.371 85.415,62.118 86.557,62.594 C87.711,63.075 89.028,63.061 90.174,62.575 C91.216,62.131 92.139,61.284 92.702,60.021 C92.702,60.021 93.024,59.682 93.062,59.663 C93.427,59.494 93.862,59.645 94.037,59.998 C94.563,61.078 94.970,62.219 95.240,63.404 C95.501,64.549 95.629,65.744 95.619,66.975 C95.571,71.778 97.726,78.073 97.731,78.087 L97.731,78.087 C97.754,78.161 97.764,78.234 97.764,78.316 C97.759,78.705 97.432,79.017 97.030,79.012 L60.699,78.687 C60.306,78.682 59.984,78.380 59.974,77.996 C59.960,77.547 60.159,77.039 60.443,76.297 L60.443,76.297 C61.655,73.175 62.218,70.056 62.218,66.724 C62.223,66.641 62.247,65.734 62.261,65.734 L62.314,64.480 L62.314,64.480 ZM123.953,4.342 C123.115,4.141 122.177,4.301 121.448,4.733 L108.100,12.776 C107.518,13.126 106.812,12.572 107.016,11.956 L109.242,4.264 C110.056,1.416 105.595,0.182 104.758,3.044 L100.733,16.993 C100.680,17.169 100.562,17.313 100.416,17.402 L92.205,22.349 L97.139,21.131 C99.639,20.513 102.428,21.079 104.464,22.610 C104.980,23.032 105.383,23.380 105.818,23.890 L121.079,24.034 L121.107,24.030 C121.747,24.030 122.324,23.784 122.745,23.382 C123.650,22.516 123.664,21.088 122.769,20.208 C122.353,19.797 121.770,19.538 121.131,19.533 L112.210,19.447 C111.481,19.442 111.216,18.512 111.832,18.144 L124.957,10.230 C125.714,9.777 126.250,9.058 126.453,8.220 C126.870,6.485 125.748,4.745 123.953,4.342 L123.953,4.342 ZM127.878,8.540 C127.599,9.694 126.865,10.747 125.743,11.425 L114.729,18.061 L121.141,18.123 C122.187,18.132 123.134,18.552 123.811,19.218 C125.260,20.646 125.246,22.974 123.773,24.384 C123.044,25.080 122.097,25.449 121.079,25.449 L105.506,25.298 C105.269,25.312 105.027,25.213 104.876,25.018 C104.506,24.544 104.090,24.121 103.607,23.755 L103.564,23.727 C101.879,22.459 99.568,21.992 97.499,22.505 L83.607,25.932 L83.607,25.932 C83.474,25.964 83.327,25.962 83.190,25.916 C82.806,25.790 82.602,25.389 82.731,25.018 L88.460,8.765 C88.810,7.829 89.435,7.103 90.373,6.659 C93.365,5.230 96.722,8.026 95.629,11.128 L92.281,20.637 L99.402,16.347 L103.347,2.691 C103.593,1.758 104.275,0.936 105.141,0.464 C106.964,-0.529 109.275,0.098 110.302,1.860 C110.776,2.676 110.932,3.665 110.653,4.633 L108.924,10.612 L120.615,3.571 C121.709,2.905 122.992,2.685 124.256,2.959 L124.284,2.964 C126.865,3.546 128.479,6.043 127.878,8.540 L127.878,8.540 ZM90.415,22.791 C90.373,22.752 90.339,22.708 90.306,22.661 C90.183,22.473 90.169,22.253 90.236,22.058 L90.236,22.058 L94.246,10.674 C94.918,8.760 92.854,7.050 91.017,7.925 C90.486,8.179 90.051,8.630 89.842,9.216 L84.554,24.236 L90.415,22.791 L90.415,22.791 ZM89.800,9.315 L89.842,9.230 C89.828,9.259 89.814,9.287 89.800,9.315 L89.800,9.315 ZM104.502,22.642 C104.923,23.009 104.663,24.417 104.502,22.642 L104.502,22.642 Z"/>
</svg>