<svg
        xmlns="http://www.w3.org/2000/svg"
        xmlns:xlink="http://www.w3.org/1999/xlink"
        width="70px" height="93px">
    <path fill-rule="evenodd"  fill="rgb(255, 255, 255)"
          d="M52.798,18.784 C51.059,17.074 59.230,12.296 61.042,10.993 C59.614,12.636 54.871,20.822 52.798,18.784 ZM44.221,12.721 C42.366,11.725 47.841,4.446 49.028,2.529 C48.323,4.608 46.358,13.869 44.221,12.721 ZM34.448,10.645 C32.208,10.644 34.331,1.998 34.479,-0.001 C34.748,2.093 36.576,10.646 34.448,10.645 ZM57.112,46.292 C54.722,53.702 49.799,59.166 46.900,60.500 C65.125,35.943 50.214,16.721 34.646,17.010 C14.876,17.377 5.784,37.902 17.137,55.332 C8.934,47.291 6.680,30.938 15.419,20.873 C21.690,13.650 33.081,10.058 45.909,16.342 C59.344,22.922 60.377,36.167 57.112,46.292 ZM24.367,13.401 C22.144,14.364 21.280,5.657 20.744,3.525 C21.773,5.537 26.295,12.566 24.367,13.401 ZM8.702,11.615 C10.335,12.897 16.656,17.066 15.349,18.546 C13.844,20.251 9.722,13.313 8.702,11.615 ZM8.901,26.739 C8.130,29.073 1.541,24.420 -0.010,23.405 C1.897,23.805 9.492,24.945 8.901,26.739 ZM30.935,69.191 C33.675,68.783 52.086,68.308 39.893,66.593 C38.256,66.363 34.449,65.890 32.823,65.609 C28.838,64.901 23.563,62.762 31.393,59.073 C36.089,56.196 38.301,54.374 41.549,49.469 C42.137,47.992 44.971,44.802 40.871,39.252 C40.610,40.405 39.802,41.482 39.246,42.336 C37.839,41.950 36.115,39.248 35.278,37.962 C34.136,38.748 33.533,40.052 33.176,41.627 C30.951,41.437 31.038,39.197 29.007,37.798 C22.620,44.364 29.705,44.769 29.705,45.875 C18.191,46.639 27.443,36.437 29.705,35.508 C29.733,35.527 32.717,38.883 32.769,38.883 C33.124,37.318 34.453,35.980 35.166,34.592 C37.470,34.790 37.824,37.252 39.328,38.598 C40.078,36.794 40.532,35.708 41.307,35.174 C43.694,36.820 45.997,38.131 45.987,42.286 C45.968,49.732 41.359,53.184 36.648,56.974 C22.077,66.882 34.975,62.351 45.192,66.319 C59.617,72.987 22.570,71.845 27.282,73.038 C29.811,73.678 33.306,73.407 35.670,73.621 C40.100,74.021 43.189,74.888 44.420,75.429 C49.357,77.601 41.897,79.793 36.027,79.914 C33.261,79.971 31.020,80.139 31.350,80.876 C31.637,81.519 34.433,80.989 38.331,81.609 C46.332,81.722 45.921,87.281 40.988,91.447 C40.129,92.171 36.629,94.435 32.784,91.566 C24.566,85.437 32.545,88.980 33.903,89.205 C36.021,89.557 36.481,90.058 37.798,89.511 C39.493,88.808 41.117,86.379 41.672,84.576 C42.014,83.464 39.567,83.386 33.078,82.551 C26.732,81.735 24.110,77.465 32.127,77.456 C33.128,77.455 47.047,76.723 40.467,75.831 C30.312,75.964 13.017,71.855 30.935,69.191 ZM69.338,23.572 C67.489,24.698 59.629,29.823 58.711,27.543 C58.005,25.792 67.064,24.109 69.338,23.572 Z"/>
</svg>