<svg
        xmlns="http://www.w3.org/2000/svg"
        xmlns:xlink="http://www.w3.org/1999/xlink"
        width="110px" height="87px">
    <path fill-rule="evenodd"  fill="rgb(255, 255, 255)"
          d="M34.825,19.429 L32.604,21.651 L25.642,14.685 C23.940,12.983 21.678,12.047 19.273,12.047 C17.953,12.047 16.708,12.346 15.577,12.861 C14.359,10.118 13.702,7.130 13.702,4.038 L13.702,3.448 L22.294,3.448 L22.294,3.446 C23.201,3.399 23.923,2.648 23.923,1.728 C23.923,0.809 23.201,0.057 22.294,0.011 L22.294,0.009 L22.204,0.009 L1.730,0.009 L1.671,0.009 L1.671,0.011 C0.750,0.043 0.013,0.798 0.013,1.728 C0.013,2.658 0.750,3.414 1.671,3.446 L1.671,3.448 L10.264,3.448 L10.264,4.038 C10.264,7.863 11.137,11.542 12.738,14.895 C11.215,16.508 10.264,18.670 10.264,21.061 C10.264,23.469 11.200,25.734 12.902,27.436 L19.863,34.400 L17.642,36.625 L20.070,39.055 L37.256,21.859 L34.825,19.429 L34.825,19.429 ZM56.372,50.023 L75.138,28.657 L72.559,26.387 L22.721,83.128 L22.725,83.136 C22.440,83.437 22.267,83.853 22.267,84.301 C22.267,85.253 23.036,86.018 23.986,86.018 C24.533,86.018 25.023,85.765 25.339,85.359 L32.452,77.258 L34.321,84.479 C34.463,85.285 35.165,85.896 36.011,85.896 C36.961,85.896 37.730,85.123 37.730,84.178 C37.730,84.064 37.718,83.951 37.696,83.836 L37.704,83.836 L35.191,74.140 L54.086,52.632 L72.978,74.140 L70.464,83.836 L70.472,83.836 C70.452,83.951 70.440,84.064 70.440,84.178 C70.440,85.123 71.208,85.896 72.156,85.896 C72.990,85.896 73.685,85.302 73.840,84.512 L75.720,77.258 L82.815,85.342 C83.127,85.750 83.624,86.018 84.186,86.018 C85.133,86.018 85.902,85.253 85.902,84.301 C85.902,83.853 85.727,83.446 85.446,83.136 L85.451,83.128 L56.372,50.023 L56.372,50.023 ZM33.530,67.741 C33.583,67.905 33.609,68.076 33.609,68.254 C33.609,69.207 32.840,69.973 31.892,69.973 C31.050,69.973 30.353,69.370 30.202,68.572 L22.351,38.269 L25.678,37.406 L33.538,67.733 L33.530,67.741 L33.530,67.741 ZM87.594,3.436 C86.740,3.338 86.077,2.611 86.077,1.728 C86.077,0.845 86.740,0.119 87.594,0.021 L87.594,0.009 L87.794,0.009 L108.220,0.009 L108.220,0.011 L108.268,0.009 C109.216,0.009 109.989,0.780 109.989,1.728 C109.989,2.677 109.216,3.446 108.268,3.446 L108.220,3.446 L108.220,3.448 L99.624,3.448 L99.624,4.038 C99.624,7.863 98.753,11.542 97.150,14.892 C98.676,16.506 99.624,18.670 99.624,21.061 C99.624,23.471 98.688,25.734 96.983,27.436 L90.023,34.400 L92.248,36.625 L89.815,39.055 L72.632,21.859 L75.065,19.429 L77.286,21.651 L84.246,14.687 C85.947,12.983 88.213,12.047 90.613,12.047 C91.935,12.047 93.180,12.346 94.311,12.861 C95.531,10.118 96.186,7.130 96.186,4.038 L96.186,3.448 L87.594,3.448 L87.594,3.436 L87.594,3.436 ZM94.555,25.003 L87.594,31.968 L79.714,24.084 L86.675,17.119 C87.728,16.065 89.128,15.487 90.613,15.487 C91.345,15.487 92.037,15.635 92.675,15.891 C91.854,17.152 90.906,18.340 89.815,19.429 L92.248,21.859 C93.408,20.701 94.433,19.445 95.328,18.118 C95.865,18.975 96.186,19.979 96.186,21.061 C96.186,22.551 95.608,23.951 94.555,25.003 L94.555,25.003 ZM51.911,44.943 C52.212,45.252 52.400,45.676 52.400,46.144 C52.400,47.092 51.631,47.861 50.681,47.861 C50.135,47.861 49.651,47.607 49.336,47.212 L49.332,47.216 L33.034,28.657 L35.615,26.387 L51.911,44.943 L51.911,44.943 ZM78.108,68.002 C77.924,68.751 77.249,69.305 76.444,69.305 C75.492,69.305 74.727,68.539 74.727,67.587 C74.727,67.391 74.760,67.204 74.821,67.025 L82.497,37.404 L85.825,38.265 L78.116,68.010 L78.108,68.002 L78.108,68.002 ZM15.122,79.522 L17.552,77.096 L15.122,74.662 L12.691,77.096 L15.122,79.522 L15.122,79.522 ZM53.225,17.204 L56.665,17.204 L56.665,13.765 L53.225,13.765 L53.225,17.204 L53.225,17.204 ZM50.079,15.906 L52.510,13.474 L50.081,11.042 L47.648,13.474 L50.079,15.906 L50.079,15.906 ZM46.350,10.327 L49.788,10.327 L49.788,6.888 L46.350,6.888 L46.350,10.327 L46.350,10.327 ZM50.081,6.180 L52.513,3.747 L50.081,1.317 L47.650,3.750 L50.081,6.180 L50.081,6.180 ZM53.225,3.448 L56.665,3.448 L56.665,0.009 L53.225,0.009 L53.225,3.448 L53.225,3.448 ZM59.801,6.178 L62.234,3.745 L59.801,1.313 L57.373,3.745 L59.801,6.178 L59.801,6.178 ZM60.098,10.327 L63.536,10.327 L63.536,6.888 L60.098,6.888 L60.098,10.327 L60.098,10.327 ZM59.805,15.908 L62.234,13.476 L59.805,11.044 L57.373,13.476 L59.805,15.908 L59.805,15.908 ZM97.907,65.356 L101.344,65.356 L101.344,61.913 L97.907,61.913 L97.907,65.356 L97.907,65.356 ZM94.758,68.083 L97.191,65.658 L94.758,63.223 L92.329,65.658 L94.758,68.083 L94.758,68.083 ZM91.032,72.227 L94.469,72.227 L94.469,68.792 L91.032,68.792 L91.032,72.227 L91.032,72.227 ZM94.758,77.804 L97.191,75.370 L94.758,72.943 L92.329,75.370 L94.758,77.804 L94.758,77.804 ZM97.907,79.107 L101.344,79.107 L101.344,75.671 L97.907,75.671 L97.907,79.107 L97.907,79.107 ZM104.485,77.804 L106.914,75.370 L104.485,72.935 L102.052,75.370 L104.485,77.804 L104.485,77.804 ZM104.782,72.227 L108.220,72.227 L108.220,68.792 L104.782,68.792 L104.782,72.227 L104.782,72.227 ZM104.481,68.083 L106.909,65.658 L104.481,63.223 L102.048,65.658 L104.481,68.083 L104.481,68.083 ZM15.419,73.953 L18.856,73.953 L18.856,70.510 L15.419,70.510 L15.419,73.953 L15.419,73.953 ZM15.120,69.801 L17.551,67.367 L15.120,64.933 L12.691,67.367 L15.120,69.801 L15.120,69.801 ZM8.544,67.074 L11.981,67.074 L11.981,63.631 L8.544,63.631 L8.544,67.074 L8.544,67.074 ZM5.399,69.793 L7.830,67.359 L5.399,64.925 L2.971,67.359 L5.399,69.793 L5.399,69.793 ZM1.671,73.953 L5.108,73.953 L5.108,70.510 L1.671,70.510 L1.671,73.953 L1.671,73.953 ZM5.403,79.522 L7.834,77.087 L5.403,74.662 L2.972,77.087 L5.403,79.522 L5.403,79.522 ZM8.544,80.824 L11.981,80.824 L11.981,77.389 L8.544,77.389 L8.544,80.824 L8.544,80.824 ZM22.294,31.968 L15.331,25.002 C14.280,23.951 13.702,22.551 13.702,21.061 C13.702,19.976 14.024,18.975 14.561,18.118 C15.457,19.445 16.483,20.701 17.642,21.859 L20.070,19.429 C18.982,18.340 18.035,17.152 17.213,15.891 C17.853,15.635 18.543,15.487 19.273,15.487 C20.760,15.487 22.160,16.065 23.213,17.117 L30.173,24.084 L22.294,31.968 L22.294,31.968 Z"/>
</svg>