<?xml version="1.0" encoding="UTF-8" standalone="no"?>
<!-- Created with Inkscape (http://www.inkscape.org/) -->

<svg
   xmlns:dc="http://purl.org/dc/elements/1.1/"
   xmlns:cc="http://creativecommons.org/ns#"
   xmlns:rdf="http://www.w3.org/1999/02/22-rdf-syntax-ns#"
   xmlns:svg="http://www.w3.org/2000/svg"
   xmlns="http://www.w3.org/2000/svg"
   xmlns:sodipodi="http://sodipodi.sourceforge.net/DTD/sodipodi-0.dtd"
   xmlns:inkscape="http://www.inkscape.org/namespaces/inkscape"
   width="150"
   height="150"
   viewBox="0 0 39.6875 39.6875"
   version="1.1"
   id="svg8"
   inkscape:version="0.92.4 (5da689c313, 2019-01-14)"
   sodipodi:docname="principe-1.svg">
  <defs
     id="defs2" />
  <sodipodi:namedview
     id="base"
     pagecolor="#ffffff"
     bordercolor="#666666"
     borderopacity="1.0"
     inkscape:pageopacity="0.0"
     inkscape:pageshadow="2"
     inkscape:zoom="2.8284271"
     inkscape:cx="-12.664836"
     inkscape:cy="78.190849"
     inkscape:document-units="mm"
     inkscape:current-layer="layer1"
     showgrid="false"
     inkscape:pagecheckerboard="true"
     units="px"
     showguides="true"
     inkscape:guide-bbox="true"
     inkscape:window-width="1366"
     inkscape:window-height="715"
     inkscape:window-x="565"
     inkscape:window-y="1072"
     inkscape:window-maximized="1">
    <sodipodi:guide
       position="19.84375,19.84375"
       orientation="0,1"
       id="guide3735"
       inkscape:locked="false"
       inkscape:label=""
       inkscape:color="rgb(0,0,255)" />
    <sodipodi:guide
       position="19.84375,19.84375"
       orientation="1,0"
       id="guide3737"
       inkscape:locked="false"
       inkscape:label=""
       inkscape:color="rgb(0,0,255)" />
  </sodipodi:namedview>
  <metadata
     id="metadata5">
    <rdf:RDF>
      <cc:Work
         rdf:about="">
        <dc:format>image/svg+xml</dc:format>
        <dc:type
           rdf:resource="http://purl.org/dc/dcmitype/StillImage" />
        <dc:title></dc:title>
      </cc:Work>
    </rdf:RDF>
  </metadata>
  <g
     inkscape:label="Layer 1"
     inkscape:groupmode="layer"
     id="layer1"
     transform="translate(0,-257.3125)">
    <g
       transform="translate(4.4875692,-3.6422053)"
       id="layer1-7"
       inkscape:label="Layer 1">
      <path
         style="fill:#ffffff;fill-rule:evenodd;stroke-width:0.26458332"
         inkscape:connector-curvature="0"
         d="m 12.593017,291.45317 c -0.370416,-0.11403 -0.531812,0.42995 -0.142081,0.54981 l 0.536311,0.15107 c 0.357981,0.0926 0.53975,-0.44476 0.09102,-0.56197 -0.162984,-0.0431 -0.32438,-0.0889 -0.485247,-0.13891 z m 10.092796,-1.82774 c -0.284162,0.2249 0.02937,0.70194 0.405077,0.40561 0.234421,-0.18468 0.578115,-0.39159 0.483923,-0.644 -0.06959,-0.18574 -0.308239,-0.24739 -0.458523,-0.11509 z m -6.530181,-19.30876 c 0.396346,0.008 0.373062,-0.5588 -0.0053,-0.567 l -0.569383,0.001 c -0.351631,0.008 -0.421746,0.57547 0.08281,0.56488 l 0.491861,8e-4 z m -7.4310868,18.98888 c -0.29845,-0.25162 -0.645054,0.19791 -0.373856,0.42968 l 0.452967,0.36936 c 0.303477,0.23442 0.655108,-0.21061 0.322262,-0.47043 z m 6.5833618,3.19828 c 0.344752,0.0172 0.474927,-0.54081 -0.04207,-0.56965 l -0.488156,-0.0378 c -0.361156,-0.0347 -0.477044,0.5244 0.01243,0.57044 l 0.51779,0.037 z m 1.203325,-0.56912 c -0.331258,0.0217 -0.436827,0.59584 0.121179,0.56066 l 0.497417,-0.0423 c 0.360098,-0.0384 0.358775,-0.60563 -0.121709,-0.55695 l -0.496887,0.0386 z m 2.202656,-0.34766 c -0.355864,0.0947 -0.230452,0.64849 0.1778,0.53975 l 0.535252,-0.1569 c 0.349779,-0.11324 0.220134,-0.66331 -0.234421,-0.5207 z m 2.084123,-0.78396 c -0.336021,0.1696 -0.09948,0.68633 0.313002,0.47837 l 0.464873,-0.24792 c 0.329935,-0.18706 0.05688,-0.68209 -0.318294,-0.47281 z m 3.480329,-2.72441 c -0.231775,0.27728 0.173567,0.6813 0.480484,0.31538 0.191558,-0.22834 0.485245,-0.4998 0.340783,-0.72761 -0.106098,-0.16774 -0.352954,-0.17991 -0.472811,-0.0204 l -0.348456,0.4326 z m 1.295929,-1.4986 c 0.170657,0.17832 0.382588,0.0899 0.497152,-0.12383 l 0.230717,-0.45508 c 0.168011,-0.3519 -0.362744,-0.56542 -0.528373,-0.22172 -0.103187,0.21457 -0.401637,0.58393 -0.199496,0.80063 z m 0.806186,-2.36485 c -0.105304,0.3556 0.43815,0.54054 0.564885,0.11007 0.06244,-0.21193 0.214842,-0.58235 0.08758,-0.74957 -0.166687,-0.21854 -0.456935,-0.0987 -0.514879,0.13626 l -0.137583,0.50324 z m 0.411956,-2.16826 c -0.03175,0.39264 0.542131,0.40084 0.573352,0.0236 l 0.03254,-0.55695 c 0.01058,-0.37862 -0.558271,-0.40296 -0.574411,0.0225 l -0.03148,0.51091 z m -0.03757,-2.20557 c 0.0471,0.36539 0.615421,0.31168 0.567002,-0.0878 l -0.07144,-0.49212 c -0.07647,-0.45615 -0.644261,-0.37598 -0.565679,0.0926 l 0.07011,0.48736 z m -0.489214,-2.15106 c 0.10742,0.31856 0.693737,0.24739 0.515937,-0.26088 l -0.174625,-0.46725 c -0.123296,-0.30269 -0.700352,-0.2204 -0.50456,0.28072 z m -0.922867,-2.00686 c 0.195792,0.32464 0.691092,0.0431 0.476779,-0.31671 l -0.291835,-0.46408 c -0.2159,-0.32332 -0.675217,0.014 -0.479425,0.31062 z m -1.315508,-1.78144 c 0.266964,0.28628 0.677068,-0.10531 0.402166,-0.40535 l -0.380206,-0.39608 c -0.07885,-0.0778 -0.196056,-0.10451 -0.300831,-0.0669 -0.500327,0.17939 0.08387,0.65432 0.278871,0.86837 z m -1.652059,-1.48246 c 0.304007,0.21748 0.652992,-0.23019 0.310886,-0.47758 l -0.453232,-0.31194 c -0.299508,-0.19659 -0.670718,0.23759 -0.263789,0.50721 z m -1.92061,-1.12051 c 0.340519,0.15134 0.607483,-0.35031 0.187589,-0.53843 L 20.15137,270.554 c -0.359568,-0.14102 -0.565414,0.38576 -0.176741,0.54081 z m -2.112169,-0.71015 c 0.373856,0.0799 0.510911,-0.46804 0.07805,-0.56356 l -0.522552,-0.096 c -0.398727,-0.0659 -0.465667,0.48604 -0.07488,0.55483 l 0.519377,0.10477 z m -4.439708,-0.0976 c 0.389731,-0.0717 0.250296,-0.62203 -0.121973,-0.55404 l -0.557213,0.11616 c -0.34237,0.0794 -0.294481,0.64823 0.197644,0.53631 l 0.481542,-0.0984 z m -2.13995,0.61728 c 0.260085,-0.10875 0.224367,-0.48102 -0.05265,-0.53949 -0.174625,-0.0349 -0.526256,0.16589 -0.70485,0.24871 -0.337873,0.15716 -0.108215,0.67495 0.272521,0.4998 z m -1.9706155,1.0369 c 0.2894535,-0.19183 0.04736,-0.71782 -0.3841753,-0.4273 l -0.416189,0.29368 c -0.29554,0.22172 0.03254,0.6821 0.364066,0.43842 z m -1.7174103,1.40864 c 0.244739,-0.24765 -0.100806,-0.71173 -0.461963,-0.34343 l -0.348985,0.37174 c -0.256381,0.29025 0.180446,0.6514 0.44741,0.3556 z m -1.393825,1.72191 c 0.186796,-0.28655 -0.241036,-0.68289 -0.525198,-0.24051 l -0.263525,0.43074 c -0.194733,0.33602 0.315648,0.59293 0.507471,0.26485 z m -1.010973,1.96426 c 0.135995,-0.35457 -0.39767,-0.55988 -0.55007,-0.16486 l -0.182827,0.51038 c -0.116417,0.35031 0.417777,0.5543 0.560388,0.13017 l 0.172508,-0.47572 z m -0.5842,2.12778 c 0.05768,-0.37068 -0.503502,-0.47995 -0.57494,-0.0365 l -0.0717,0.52308 c -0.04313,0.38629 0.528902,0.41725 0.572294,0.0426 l 0.07435,-0.52917 z m -0.137583,2.20134 c -0.01958,-0.37121 -0.59108,-0.37465 -0.570178,0.0857 l 0.03546,0.51938 c 0.01138,0.11509 0.09234,0.21272 0.204523,0.245 0.486568,0.1405 0.343164,-0.54451 0.3302,-0.8501 z m 0.314854,2.1844 c -0.09684,-0.37786 -0.643468,-0.20747 -0.553774,0.14707 l 0.154781,0.55166 c 0.09842,0.31062 0.680508,0.27596 0.525463,-0.24103 l -0.126471,-0.45773 z m 0.758296,2.07221 c -0.170128,-0.34554 -0.683155,-0.0913 -0.496623,0.28708 l 0.249766,0.4773 c 0.180182,0.32385 0.695854,0.081 0.477044,-0.31935 z m 1.169193,1.87854 c -0.235479,-0.29792 -0.695325,0.0378 -0.424391,0.38418 0.110331,0.14049 0.222779,0.27755 0.338931,0.41354 0.252148,0.29396 0.66966,-0.096 0.436827,-0.36724 z m 3.3538578,2.87417 c -0.343958,-0.186 -0.5905485,0.32359 -0.277284,0.4961 l 0.519642,0.2704 c 0.345281,0.16801 0.597694,-0.33867 0.218281,-0.52546 z"
         id="path3724" />
      <path
         style="fill:#ffffff;fill-rule:evenodd;stroke-width:0.26458332"
         inkscape:connector-curvature="0"
         d="m 22.461447,292.10037 c 0.0087,0.0315 0.01323,0.0643 0.01323,0.0987 0,0.20241 -0.162189,0.36645 -0.36195,0.36645 -0.19976,0 -0.36195,-0.16404 -0.36195,-0.36645 0,-0.0357 0.005,-0.0701 0.01455,-0.10266 v -0.68289 c 0,-0.62865 0.33655,-1.20015 0.586052,-1.75233 0.0934,-0.20664 0.110066,-0.37809 0.110066,-0.60219 0,-0.14553 -0.02434,-0.28814 -0.0725,-0.42387 l -0.425714,-1.19644 c -0.05186,-0.14579 -0.182033,-0.24395 -0.323586,-0.24395 h -1.3335 c -0.347133,0 -0.629443,0.31247 -0.629443,0.69691 0,0.71861 0.818621,0.77021 1.31445,0.90752 l 0.400579,1.33165 c 0.04445,0.0609 0.07064,0.13626 0.07064,0.21775 0,0.20215 -0.16219,0.36619 -0.36195,0.36619 -0.182827,0 -0.333905,-0.13706 -0.358246,-0.31512 l -0.0026,7.9e-4 -0.287867,-0.95541 c -0.384439,-0.10662 -0.723371,-0.1561 -1.03161,-0.46355 -0.203465,0.21564 -0.461963,0.32544 -0.742421,0.30877 -0.0762,0.576 -0.561446,1.05384 -1.08929,1.05384 -0.267229,0 -0.534458,-0.11245 -0.738187,-0.33788 l -1.308629,-1.44938 c 0.19685,1.30598 1.002771,2.1164 1.002771,3.59754 v 0.0519 h -0.0024 v 0 c 0,0.20241 -0.162189,0.36645 -0.36195,0.36645 -0.200025,0 -0.36195,-0.16404 -0.36195,-0.36645 0,-0.0505 0.01032,-0.099 0.02858,-0.14261 -0.02831,-0.86492 -0.447939,-1.6965 -0.755914,-2.4839 -0.1905,-0.48657 -0.286809,-1.00225 -0.286809,-1.53247 v -0.85249 -0.0304 c 0,-0.64637 0.468313,-1.12606 1.044046,-1.12606 v -0.0304 c 0,-1.35599 1.244865,-1.24513 1.392238,-1.15649 0,-0.97579 1.026848,-1.36393 1.740429,-1.02791 v -1.83277 c 0,-1.77429 2.436548,-1.77429 2.436548,0 v 4.4331 h 0.22225 c 0.4318,0 0.813064,0.2876 0.97155,0.73263 l 0.42545,1.19644 c 0.09684,0.27226 0.121179,0.50271 0.121179,0.79084 0,0.29713 -0.06377,0.59558 -0.183885,0.86122 -0.17489,0.38788 -0.512234,0.98293 -0.512234,1.40864 v 0.68686 z M 4.744418,279.87503 v 0 c -0.1778,0.0921 -0.3958167,0.0212 -0.4870979,-0.15901 -0.091017,-0.17992 -0.020638,-0.40058 0.1571624,-0.49318 v 0 l 1.4250459,-0.73846 v 0 c 0.1778,-0.0923 0.3960812,-0.0212 0.4870979,0.15902 0.091017,0.17991 0.020638,0.40084 -0.1571625,0.49292 v 0 z m 9.498277,-3.68167 c 0,-2.20848 -1.775089,-4.005 -3.956844,-4.005 -2.1820185,0 -3.957108,1.79652 -3.957108,4.005 0,1.33429 0.6680729,2.58603 1.75895,3.32581 v 0.70141 c -0.5013855,0.10345 -0.879475,0.55245 -0.879475,1.08955 0,0.39608 0.2066395,0.74137 0.5148791,0.93901 -0.046831,0.1233 -0.075142,0.25585 -0.075142,0.39608 0,0.61357 0.4929187,1.11231 1.0990791,1.11231 h 3.0776338 c 0.60616,0 1.099079,-0.49874 1.099079,-1.11231 0,-0.14023 -0.02858,-0.27278 -0.07514,-0.39608 0.308239,-0.19738 0.514879,-0.54293 0.514879,-0.93901 0,-0.53737 -0.37809,-0.9861 -0.879475,-1.08955 v -0.70141 c 1.090877,-0.73978 1.758685,-1.99152 1.758686,-3.32581 z m -3.956844,-0.66305 c 0.359569,0 0.65114,0.29475 0.65114,0.65908 0,0.3638 -0.291571,0.65907 -0.65114,0.65907 -0.3595685,0 -0.6514039,-0.29527 -0.6514039,-0.65907 0,-0.36433 0.2918354,-0.65908 0.6514039,-0.65908 z m -1.9629435,6.11505 v 0 c -0.200025,0 -0.36195,-0.16404 -0.36195,-0.36618 0,-0.20241 0.161925,-0.36645 0.36195,-0.36645 v 0 h 3.8573605 v 0 c 0.200025,0 0.36195,0.16404 0.36195,0.36645 0,0.20214 -0.161925,0.36618 -0.36195,0.36618 v 0 z m 0.3466042,1.48299 v 0 c -0.200025,0 -0.36195,-0.16404 -0.36195,-0.36645 0,-0.2024 0.161925,-0.36618 0.36195,-0.36645 v 0 h 3.1030333 v 0 c 0.199761,0 0.36195,0.16405 0.36195,0.36645 0,0.20241 -0.162189,0.36645 -0.36195,0.36645 v 0 z m 3.1546273,-4.24048 c -0.178329,0.10451 -0.21934,0.068 -0.21934,0.263 v 1.04696 h -0.87921 v -2.75167 c 0.510381,-0.18415 0.87921,-0.67363 0.87921,-1.25307 0,-0.73607 -0.591873,-1.33509 -1.318948,-1.33509 -0.7273393,0 -1.3192122,0.59902 -1.3192122,1.33509 0,0.57944 0.3690937,1.06865 0.879475,1.25307 v 2.75167 h -0.879475 v -1.0504 c 0,-0.19129 -0.04445,-0.15716 -0.2193396,-0.25956 -0.9490604,-0.55668 -1.5390812,-1.58935 -1.5390812,-2.69451 0,-1.71741 1.3808604,-3.11494 3.077633,-3.11494 1.696509,0 3.077369,1.39753 3.077369,3.11494 0,1.10516 -0.590021,2.13783 -1.539081,2.69451 z m 4.076435,0.98716 v 0 c 0.178065,0.0923 0.396082,0.0212 0.487098,-0.15901 0.09128,-0.17992 0.0209,-0.40058 -0.157162,-0.49292 v 0 l -1.424781,-0.73872 v 0 c -0.178065,-0.0923 -0.396082,-0.0209 -0.487363,0.15902 -0.09102,0.18018 -0.02064,0.40084 0.157163,0.49292 v 0 z m -1.997868,-9.38371 v 0 c 0.09763,-0.17648 0.03572,-0.39978 -0.138907,-0.49847 -0.17436,-0.0992 -0.394758,-0.0362 -0.492654,0.13996 v 2.7e-4 l -0.782637,1.4134 v 2.6e-4 c -0.0979,0.17648 -0.03572,0.39952 0.138641,0.49848 0.174361,0.099 0.395023,0.036 0.492654,-0.14049 v 0 z m 2.293143,2.52571 v 0 c 0.166159,-0.11244 0.210609,-0.33999 0.09948,-0.508 -0.111125,-0.16854 -0.336021,-0.21325 -0.502179,-0.1008 v 0 l -1.33059,0.90117 v 2.6e-4 c -0.165894,0.11219 -0.210608,0.33999 -0.09948,0.508 0.111389,0.16801 0.33602,0.21326 0.502179,0.10081 v 0 z m 0.770996,3.60231 v 0 c 0.200025,5.2e-4 0.362479,-0.16299 0.363009,-0.36513 7.93e-4,-0.20241 -0.160603,-0.36671 -0.360628,-0.36751 v 0 l -1.600993,-0.006 v 0 c -0.199761,-5.3e-4 -0.362479,0.16272 -0.363273,0.36539 -5.29e-4,0.20214 0.161131,0.36671 0.360891,0.36724 v 0 l 1.600994,0.006 z m -7.0043145,-7.22816 v -2.6e-4 c 0,-0.20188 0.1619255,-0.36618 0.3616855,-0.36618 0.200025,0 0.362215,0.1643 0.362215,0.36644 v 0 1.62031 0 c 0,0.20241 -0.16219,0.36619 -0.362215,0.36619 -0.19976,0 -0.3616855,-0.16378 -0.3616855,-0.36619 v 0 z m -3.2202438,1.10014 v 0 c -0.097631,-0.17674 -0.035454,-0.39978 0.1389063,-0.49847 0.1743604,-0.0992 0.3947583,-0.0362 0.4926541,0.13996 v 0 l 0.7829021,1.41367 v 0 c 0.097631,0.17621 0.035454,0.39978 -0.1389062,0.49874 -0.1740959,0.0987 -0.3947584,0.036 -0.4926542,-0.14049 v 0 z m -2.2931437,2.52571 v 0 c -0.1658938,-0.11271 -0.2103438,-0.33999 -0.099219,-0.50826 0.111125,-0.16828 0.3357563,-0.21299 0.5019146,-0.10054 v 0 l 1.3305896,0.90117 v 0 c 0.1661583,0.11245 0.2106083,0.33999 0.099483,0.508 -0.111125,0.16827 -0.3360208,0.21352 -0.5021792,0.10107 v -2.7e-4 z m -0.7709959,3.60231 v 0 c -0.1997604,5.2e-4 -0.3624791,-0.16299 -0.3630083,-0.36539 -7.937e-4,-0.20215 0.1608667,-0.36672 0.3606271,-0.36751 v 0 l 1.6009937,-0.005 v 0 c 0.200025,-5.3e-4 0.3624792,0.16272 0.3632729,0.36512 5.292e-4,0.20214 -0.1608666,0.36672 -0.3608916,0.36751 v 0 l -1.6009938,0.006 z m 13.6641419,12.84181 -1.748367,-1.93622 c -0.327289,-0.36274 0.184415,-1.02076 0.551657,-0.61145 l 1.748366,1.93622 c 0.332052,0.36671 -0.223044,0.97525 -0.551656,0.61145 z m 1.559719,-1.00118 -0.0071,0.005 c -0.126735,0.0934 -0.296333,0.0749 -0.404019,-0.0442 l -1.853141,-2.05264 c -0.06006,-0.0669 -0.0934,-0.15637 -0.0934,-0.25135 0,-0.70829 0.843756,-0.50112 0.964935,-0.32306 l 1.465527,2.16165 c 0.0026,0.004 0.005,0.0103 0.0079,0.0103 5.29e-4,0 5.29e-4,0 7.93e-4,0 5.3e-4,0.001 0.03413,0.25056 0.04392,0.29236 -0.04657,0.0701 -0.01799,0.11854 -0.125412,0.20188 z m 0.774435,-1.92352 c 2.65e-4,0.10663 -0.305064,0.27278 -0.448733,0.65828 -2.65e-4,0 -5.29e-4,0 -0.0011,0 l -1.159139,-1.8243 c -0.506413,-0.96282 0.540808,-1.08691 0.738717,-0.69136 0.07646,0.16299 0.870214,1.85288 0.870214,1.85738 z m 1.044575,-0.11271 h -0.182033 l -0.862277,-1.71847 v -2.71463 c 0,-0.76041 1.04431,-0.76041 1.04431,0 z"
         id="path3739" />
    </g>
  </g>
</svg>
