<?xml version="1.0" encoding="UTF-8" standalone="no"?>
<!-- Created with Inkscape (http://www.inkscape.org/) -->

<svg
   xmlns:dc="http://purl.org/dc/elements/1.1/"
   xmlns:cc="http://creativecommons.org/ns#"
   xmlns:rdf="http://www.w3.org/1999/02/22-rdf-syntax-ns#"
   xmlns:svg="http://www.w3.org/2000/svg"
   xmlns="http://www.w3.org/2000/svg"
   xmlns:sodipodi="http://sodipodi.sourceforge.net/DTD/sodipodi-0.dtd"
   xmlns:inkscape="http://www.inkscape.org/namespaces/inkscape"
   width="150"
   height="150"
   viewBox="0 0 39.6875 39.6875"
   version="1.1"
   id="svg8"
   inkscape:version="0.92.4 (5da689c313, 2019-01-14)"
   sodipodi:docname="principe-3.svg">
  <defs
     id="defs2" />
  <sodipodi:namedview
     id="base"
     pagecolor="#ffffff"
     bordercolor="#666666"
     borderopacity="1.0"
     inkscape:pageopacity="0.0"
     inkscape:pageshadow="2"
     inkscape:zoom="2.8284271"
     inkscape:cx="154.80493"
     inkscape:cy="73.771786"
     inkscape:document-units="mm"
     inkscape:current-layer="layer1"
     showgrid="false"
     inkscape:pagecheckerboard="true"
     units="px"
     showguides="true"
     inkscape:guide-bbox="true"
     inkscape:window-width="1366"
     inkscape:window-height="715"
     inkscape:window-x="565"
     inkscape:window-y="1072"
     inkscape:window-maximized="1">
    <sodipodi:guide
       position="19.84375,19.84375"
       orientation="0,1"
       id="guide3735"
       inkscape:locked="false"
       inkscape:label=""
       inkscape:color="rgb(0,0,255)" />
    <sodipodi:guide
       position="19.84375,19.84375"
       orientation="1,0"
       id="guide3737"
       inkscape:locked="false"
       inkscape:label=""
       inkscape:color="rgb(0,0,255)" />
  </sodipodi:namedview>
  <metadata
     id="metadata5">
    <rdf:RDF>
      <cc:Work
         rdf:about="">
        <dc:format>image/svg+xml</dc:format>
        <dc:type
           rdf:resource="http://purl.org/dc/dcmitype/StillImage" />
        <dc:title></dc:title>
      </cc:Work>
    </rdf:RDF>
  </metadata>
  <g
     inkscape:label="Layer 1"
     inkscape:groupmode="layer"
     id="layer1"
     transform="translate(0,-257.3125)">
    <path
       id="path3784"
       d="m 36.310506,278.60557 -5.784056,3.42212 c -1.062567,0.58367 -6.490759,-0.1233 -7.863681,-0.11086 -1.635125,0.0127 -1.077648,0.56277 -2.153709,0.56277 -1.895475,0 -1.778794,0.0669 -2.102644,-0.004 -0.178064,-0.0378 -0.225954,-0.88503 -0.27305,-1.63592 -0.205581,-3.28004 -1.140089,-4.01029 2.555611,-4.01029 0.959114,0 -0.08678,0.62548 1.20015,0.14658 1.757098,-0.65696 2.536296,-0.24289 4.064529,-0.006 1.828006,0.28231 5.360194,-0.58155 5.360194,0.95382 0,1.25307 -0.56224,1.18825 -2.335742,1.28032 -1.441979,0.0754 -2.343414,0.0397 -2.706158,0.54187 1.613958,0 4.643173,-0.23231 5.707591,-0.78476 0.893234,-0.46646 1.94945,-1.28852 3.051175,-1.76741 0.851694,-0.37254 1.207294,-0.60034 1.732492,0.16086 0.239713,0.3474 0.316177,0.72814 -0.452702,1.25122 z m -16.359981,1.91611 c -0.33655,0 -0.608806,0.27596 -0.608806,0.61701 0,0.34105 0.272256,0.61727 0.608806,0.61727 0.33655,0 0.609335,-0.27622 0.609335,-0.61727 0,-0.34105 -0.272785,-0.61701 -0.609335,-0.61701 z m 13.765477,-3.08557 -1.680633,0.85143 c 0,-0.92684 -0.186003,-0.68395 0.403225,-1.05013 0.578643,-0.35983 1.269206,-0.70088 1.998927,-0.8599 0.262466,-0.0564 1.246452,-0.17356 0.688445,0.34317 -0.115887,0.10662 -0.40931,0.15266 -1.409964,0.71543 z m -2.402152,-0.97049 c 0.471487,-0.11113 2.522008,-1.14036 2.522008,-0.1823 -0.870214,0.20532 -1.459442,0.53552 -2.162175,0.91017 -0.05159,-0.29925 -0.103452,-0.33047 -0.359833,-0.72787 z m -3.193256,-0.63183 c -2.799028,0 -5.068623,-2.29711 -5.068623,-5.12947 0,-2.83237 2.269595,-5.12948 5.068623,-5.12948 2.798497,0 5.068358,2.29711 5.068358,5.12948 0,2.83236 -2.269861,5.12947 -5.068358,5.12947 z m 0,-9.32391 c -2.28944,0 -4.145228,1.87827 -4.145228,4.19444 0,2.31669 1.855788,4.19417 4.145228,4.19417 2.289968,0 4.144433,-1.87748 4.144433,-4.19417 0,-2.31617 -1.854465,-4.19444 -4.144433,-4.19444 z m -0.271728,4.62888 h -0.115887 v 0.35745 h 1.154112 v 0.653 h -1.154112 v 0.79824 h -0.86704 v -0.79824 h -0.286808 v -0.653 h 0.286808 v -0.35745 h -0.286808 v -0.68897 h 0.286808 v -1.46447 c 0.01376,-0.36724 -0.06614,-0.37227 0.228336,-0.37068 0.608806,0.004 1.575858,-0.0389 1.997339,0.12012 0.452702,0.17118 0.684477,0.62494 0.684477,1.09617 0,0.32332 -0.06218,0.65643 -0.287602,0.9009 -0.388408,0.41487 -1.114689,0.40693 -1.639623,0.40693 z m 0.599546,-1.77482 c -0.22225,-0.0262 -0.490008,-0.0153 -0.715433,-0.0153 v 1.1012 c 0.203729,0 0.639762,0.009 0.8255,-0.0534 0.458787,-0.15557 0.46699,-0.94774 -0.110067,-1.0324 z m -5.604404,-2.42438 -0.519377,-0.10477 c -0.39079,-0.0688 -0.32385,-0.62072 0.07488,-0.55484 l 0.522552,0.096 c 0.432859,0.0955 0.295804,0.64346 -0.07805,0.56356 z m -2.186781,-0.27226 -0.491861,-7.9e-4 c -0.50456,0.0106 -0.434445,-0.55642 -0.08281,-0.56488 l 0.569383,-10e-4 c 0.378354,0.008 0.401638,0.57494 0.0053,0.567 z m -2.252927,0.17463 -0.481542,0.0984 c -0.492125,0.11192 -0.540015,-0.45693 -0.197644,-0.53631 l 0.557213,-0.11615 c 0.372269,-0.068 0.511704,0.48234 0.121973,0.55404 z m -0.915459,21.66276 -0.53631,-0.15108 c -0.389731,-0.11985 -0.228335,-0.66384 0.141817,-0.5498 0.161131,0.05 0.322527,0.0958 0.48551,0.1389 0.448733,0.11722 0.266965,0.65458 -0.09102,0.56198 z m -1.224491,-21.04549 -0.484982,0.20902 c -0.380735,0.17516 -0.610393,-0.34263 -0.27252,-0.49979 0.178593,-0.0828 0.530225,-0.28364 0.70485,-0.24871 0.277018,0.0585 0.312737,0.43074 0.05265,0.53948 z m -0.976048,20.23666 -0.519906,-0.27041 c -0.313003,-0.1725 -0.06641,-0.68209 0.277547,-0.49609 l 0.46064,0.24104 c 0.379413,0.18679 0.127,0.69347 -0.218281,0.52546 z M 13.857435,268.8009 c -0.331523,0.24369 -0.659606,-0.21669 -0.364067,-0.43841 l 0.41619,-0.29369 c 0.431535,-0.29051 0.673629,0.23548 0.384175,0.4273 z m -0.552185,17.65433 -0.452967,-0.36936 c -0.271198,-0.23178 0.07541,-0.6813 0.373856,-0.42968 l 0.401373,0.32861 c 0.332846,0.25982 -0.01879,0.70485 -0.322262,0.47043 z m -1.092465,-16.16657 c -0.266964,0.2958 -0.704056,-0.0654 -0.44741,-0.3556 l 0.348985,-0.37174 c 0.361156,-0.3683 0.706702,0.0958 0.461963,0.34343 z m -0.169598,14.19701 c 0.233098,0.2712 -0.184414,0.66119 -0.436562,0.36724 -0.116152,-0.136 -0.2286,-0.27305 -0.338932,-0.41354 -0.270933,-0.34634 0.188913,-0.6821 0.424128,-0.38418 z m -1.141941,-12.40393 c -0.191824,0.32808 -0.702206,0.0712 -0.507472,-0.26485 l 0.263525,-0.43074 c 0.284163,-0.44239 0.711994,-0.046 0.525199,0.2405 z m -0.378356,10.09491 0.230188,0.44503 c 0.218811,0.40031 -0.296863,0.6432 -0.477044,0.31935 l -0.249767,-0.47731 c -0.1865315,-0.37835 0.326496,-0.63262 0.496623,-0.28707 z m -0.5238759,-8.11001 c -0.1426096,0.42413 -0.6768036,0.22014 -0.5603866,-0.13017 l 0.182827,-0.51038 c 0.1524,-0.39503 0.6860655,-0.18971 0.5500695,0.16483 z m -0.4116906,1.65206 -0.07435,0.52917 c -0.04339,0.37465 -0.615421,0.34369 -0.572294,-0.0426 l 0.0717,-0.52308 c 0.07144,-0.44344 0.632619,-0.33417 0.57494,0.0365 z m -0.137584,2.20133 c 0.01297,0.3056 0.156369,0.9906 -0.3302,0.85011 -0.112448,-0.0323 -0.193145,-0.12991 -0.204523,-0.245 l -0.03545,-0.51938 c -0.0209,-0.46038 0.550598,-0.45694 0.570177,-0.0857 z m 0.314855,2.1844 0.12647,0.45773 c 0.1550465,0.517 -0.427037,0.55166 -0.525462,0.24104 l -0.154781,-0.55166 c -0.08969,-0.35454 0.456935,-0.52493 0.553773,-0.14711 z m 9.5146825,8.14256 0.488156,0.0378 c 0.516996,0.0288 0.386821,0.58685 0.04207,0.56965 l -0.51779,-0.037 c -0.489479,-0.046 -0.373591,-0.6051 -0.01243,-0.57044 z m 1.73355,0.0384 0.496623,-0.0386 c 0.480748,-0.0487 0.482071,0.51858 0.121973,0.55695 l -0.497682,0.0423 c -0.557741,0.0352 -0.452172,-0.53895 -0.120914,-0.56065 z m 2.202656,-0.34766 0.478631,-0.13785 c 0.454555,-0.14261 0.5842,0.40746 0.234421,0.5207 l -0.535252,0.1569 c -0.408252,0.10874 -0.533929,-0.44503 -0.1778,-0.53975 z m 2.084123,-0.78396 0.459581,-0.24236 c 0.375179,-0.20929 0.648229,0.28575 0.318294,0.47281 l -0.464873,0.24791 c -0.412485,0.20797 -0.649023,-0.30876 -0.313002,-0.47836 z m 2.318279,-1.53115 c 0.150019,-0.13229 0.388938,-0.0706 0.458523,0.1151 0.09419,0.25241 -0.249502,0.45931 -0.483923,0.64399 -0.375708,0.29634 -0.689239,-0.18071 -0.405077,-0.4056 z m 1.510506,-1.62586 c 0.119857,-0.15954 0.366448,-0.14737 0.472546,0.0204 0.144463,0.22781 -0.14896,0.49927 -0.340518,0.72761 -0.306917,0.36591 -0.712523,-0.0381 -0.480484,-0.31539 z"
       inkscape:connector-curvature="0"
       style="fill:#ffffff;fill-rule:evenodd;stroke-width:0.26458332" />
  </g>
</svg>
