<?xml version="1.0" encoding="UTF-8" standalone="no"?>
<!-- Created with Inkscape (http://www.inkscape.org/) -->

<svg
   xmlns:dc="http://purl.org/dc/elements/1.1/"
   xmlns:cc="http://creativecommons.org/ns#"
   xmlns:rdf="http://www.w3.org/1999/02/22-rdf-syntax-ns#"
   xmlns:svg="http://www.w3.org/2000/svg"
   xmlns="http://www.w3.org/2000/svg"
   xmlns:sodipodi="http://sodipodi.sourceforge.net/DTD/sodipodi-0.dtd"
   xmlns:inkscape="http://www.inkscape.org/namespaces/inkscape"
   width="150"
   height="150"
   viewBox="0 0 39.6875 39.6875"
   version="1.1"
   id="svg8"
   inkscape:version="0.92.4 (5da689c313, 2019-01-14)"
   sodipodi:docname="principe-4.svg">
  <defs
     id="defs2" />
  <sodipodi:namedview
     id="base"
     pagecolor="#ffffff"
     bordercolor="#666666"
     borderopacity="1.0"
     inkscape:pageopacity="0.0"
     inkscape:pageshadow="2"
     inkscape:zoom="8"
     inkscape:cx="86.63971"
     inkscape:cy="74.690806"
     inkscape:document-units="mm"
     inkscape:current-layer="layer1"
     showgrid="false"
     inkscape:pagecheckerboard="true"
     units="px"
     showguides="true"
     inkscape:guide-bbox="true"
     inkscape:window-width="1366"
     inkscape:window-height="715"
     inkscape:window-x="565"
     inkscape:window-y="1072"
     inkscape:window-maximized="1">
    <sodipodi:guide
       position="19.84375,19.84375"
       orientation="0,1"
       id="guide3735"
       inkscape:locked="false"
       inkscape:label=""
       inkscape:color="rgb(0,0,255)" />
    <sodipodi:guide
       position="19.84375,19.84375"
       orientation="1,0"
       id="guide3737"
       inkscape:locked="false"
       inkscape:label=""
       inkscape:color="rgb(0,0,255)" />
  </sodipodi:namedview>
  <metadata
     id="metadata5">
    <rdf:RDF>
      <cc:Work
         rdf:about="">
        <dc:format>image/svg+xml</dc:format>
        <dc:type
           rdf:resource="http://purl.org/dc/dcmitype/StillImage" />
        <dc:title></dc:title>
      </cc:Work>
    </rdf:RDF>
  </metadata>
  <g
     inkscape:label="Layer 1"
     inkscape:groupmode="layer"
     id="layer1"
     transform="translate(0,-257.3125)">
    <path
       id="path3795"
       d="m 36.388557,272.66041 -3.391694,3.37661 c -0.620448,-0.42148 -2.423848,-2.48153 -3.234531,-3.23903 -0.174625,-0.16325 -0.331523,-0.32967 -0.477044,-0.47493 -0.775758,-0.77496 -1.90447,-0.66278 -2.904595,-0.43841 -0.345017,0 -2.126192,2.15344 -3.134519,1.10913 -0.568325,-0.68791 -0.261938,-1.55495 0.433652,-2.17276 1.350433,-1.19988 0.927629,-1.5187 2.602971,-1.50786 0.630766,0.005 3.717925,0.0828 4.038071,-0.0482 0.461433,-0.18812 2.557727,-2.60429 3.162829,-3.01572 0.188118,0.12753 3.988858,3.83249 3.988858,4.1521 0,2.0619 -0.166687,1.06839 -1.083998,2.25902 z m -9.508596,-3.87721 -0.406135,-0.28231 c -0.406929,-0.26961 -0.03572,-0.70379 0.263525,-0.5072 l 0.453496,0.31194 c 0.342106,0.24739 -0.0069,0.69506 -0.310886,0.47757 z M 18.2855,266.30088 c 0.372269,-0.068 0.511705,0.48234 0.121973,0.55404 l -0.481541,0.0984 c -0.492125,0.11192 -0.540015,-0.45693 -0.197644,-0.53631 z m 4.09628,5.57821 c 0,1.00092 0.612246,1.33747 0.897202,1.64492 0.390261,0.42068 0.07567,0.53498 -0.739246,1.26391 -0.558006,0.49953 -0.744273,-0.4818 -2.121164,-1.56051 -4.369859,0.87683 -8.146522,-3.49753 -6.291263,-7.91845 0.679714,-1.61872 3.808677,5.28399 5.692511,2.4294 0.537633,-0.81518 -0.424657,-2.09444 -1.01309,-2.75748 -1.297252,-1.46262 -2.902215,-2.06958 -2.054225,-2.5453 3.352006,-1.88171 8.597635,1.17026 8.201025,5.73617 -0.179387,2.06402 -2.57175,2.10238 -2.57175,3.70734 z m 1.096963,-6.50425 c -0.940594,-1.40917 -2.510367,-2.58022 -3.999707,-2.71357 -0.586052,-0.0527 -1.172104,0.0116 -1.720056,0.2122 1.423458,1.1213 4.281752,3.83196 2.427817,5.69436 -1.970617,1.97988 -4.093105,-0.79692 -5.514182,-2.35161 -1.033992,3.937 2.330715,6.96859 5.777178,6.15262 0.371739,-0.0884 1.361281,1.05066 1.876954,1.54622 l 0.129646,-0.0966 c -1.549665,-1.46553 -1.091407,-2.82602 0.586052,-4.12353 1.427691,-1.10543 1.429279,-2.8329 0.436298,-4.32012 z m -10.17032,21.09338 -0.452966,-0.36936 c -0.271198,-0.23178 0.07541,-0.6813 0.373856,-0.42968 l 0.401373,0.32861 c 0.332846,0.25982 -0.01879,0.70485 -0.322263,0.47043 z m -1.092464,-16.16657 c -0.266965,0.2958 -0.704056,-0.0654 -0.447411,-0.3556 l 0.348986,-0.37174 c 0.361156,-0.3683 0.706702,0.0958 0.461962,0.34343 z m -0.169598,14.19701 c 0.233098,0.2712 -0.184415,0.66119 -0.436563,0.36724 -0.116152,-0.136 -0.2286,-0.27305 -0.338931,-0.41354 -0.270933,-0.34634 0.188913,-0.6821 0.424392,-0.38418 z m -1.141942,-12.40393 c -0.191823,0.32808 -0.702204,0.0712 -0.507471,-0.26485 l 0.263525,-0.43074 c 0.284163,-0.44239 0.711994,-0.046 0.525198,0.2405 z m -0.378354,10.09491 0.230188,0.44503 c 0.21881,0.40031 -0.296863,0.6432 -0.477044,0.31935 l -0.249767,-0.47731 c -0.1865305,-0.37835 0.326496,-0.63262 0.496623,-0.28707 z m -0.523875,-8.11001 c -0.1426095,0.42413 -0.6768034,0.22014 -0.5603864,-0.13017 l 0.182827,-0.51038 c 0.1524,-0.39503 0.6860634,-0.18971 0.5500674,0.16483 z m -0.4116914,1.65206 -0.07435,0.52917 c -0.04339,0.37465 -0.61542,0.34369 -0.572293,-0.0426 l 0.0717,-0.52308 c 0.07144,-0.44344 0.632619,-0.33417 0.574939,0.0365 z m -0.137583,2.20133 c 0.01297,0.3056 0.156369,0.9906 -0.3302,0.85011 -0.112448,-0.0323 -0.193146,-0.12991 -0.204523,-0.245 l -0.03545,-0.51938 c -0.0209,-0.46038 0.550598,-0.45694 0.570177,-0.0857 z m 0.314854,2.1844 0.1264708,0.45773 c 0.1550456,0.517 -0.4270368,0.55166 -0.5254618,0.24104 l -0.154782,-0.55166 c -0.08969,-0.35454 0.456936,-0.52493 0.553773,-0.14711 z m 5.2813474,6.82493 0.46064,0.24104 c 0.379412,0.18679 0.127,0.69347 -0.218282,0.52546 l -0.519641,-0.27041 c -0.313267,-0.1725 -0.06668,-0.68209 0.277283,-0.49609 z m 2.048669,0.87445 c 0.160867,0.05 0.322262,0.0958 0.485246,0.1389 0.448733,0.11722 0.266964,0.65458 -0.09102,0.56198 l -0.536311,-0.15108 c -0.389731,-0.11985 -0.228335,-0.66384 0.142082,-0.5498 z m 2.184665,0.44318 0.488156,0.0378 c 0.516996,0.0288 0.386821,0.58685 0.04207,0.56965 l -0.51779,-0.037 c -0.489479,-0.046 -0.373591,-0.6051 -0.01243,-0.57044 z m 1.73355,0.0384 0.496623,-0.0386 c 0.480748,-0.0487 0.482071,0.51858 0.121973,0.55695 l -0.497417,0.0423 c -0.558006,0.0352 -0.452437,-0.53895 -0.121179,-0.56065 z m 3.308614,-13.78426 c 0.353219,0.0788 0.458259,0.18335 0.599282,0.4355 0.255058,0.45509 -0.05186,0.79904 0.08202,0.93689 0.13626,0.1397 0.92022,-0.76279 1.593585,-0.26987 0.799042,0.64611 0.312208,1.56342 0.364596,1.60681 0.108479,0.0886 0.789252,-0.40217 1.351491,0.50641 0.219075,0.35349 0.09896,0.75751 -0.02514,1.09247 -0.09895,0.25797 -0.12409,0.27993 0.114565,0.29342 1.368954,0.082 1.138237,1.46315 0.678656,1.94204 -0.77179,0.80195 -2.298171,1.86981 -2.974446,0.25321 -0.09393,-0.22384 0.01852,-0.21008 -0.278606,-0.17754 -0.427567,0.0474 -0.646377,0.14394 -1.087438,-0.23521 -0.268023,-0.23072 -0.389731,-0.65723 -0.311943,-1.06521 0.06218,-0.32121 0.202141,-0.25718 -0.115623,-0.25718 -1.346994,0.003 -1.482725,-0.86889 -1.285346,-1.54278 0.02487,-0.0857 0.0069,-0.072 -0.04154,-0.063 -1.532466,0.28389 -1.023937,-1.62269 -0.642408,-2.10424 0.545306,-0.61092 1.195387,-1.52823 1.978289,-1.35175 z m -1.105958,13.4366 0.478631,-0.13785 c 0.454555,-0.14261 0.5842,0.40746 0.234421,0.5207 l -0.535252,0.1569 c -0.408252,0.10874 -0.533929,-0.44503 -0.1778,-0.53975 z m 2.084123,-0.78396 0.459581,-0.24236 c 0.375179,-0.20929 0.648229,0.28575 0.318294,0.47281 l -0.464873,0.24791 c -0.412485,0.20797 -0.649023,-0.30876 -0.313002,-0.47836 z m 2.318279,-1.53115 c 0.150284,-0.13229 0.388938,-0.0706 0.458523,0.1151 0.09419,0.25241 -0.249502,0.45931 -0.483923,0.64399 -0.375708,0.29634 -0.689239,-0.18071 -0.405077,-0.4056 z m 1.510506,-1.62586 c 0.119857,-0.15954 0.366713,-0.14737 0.472811,0.0204 0.144462,0.22781 -0.149225,0.49927 -0.340783,0.72761 -0.306917,0.36591 -0.712259,-0.0381 -0.480484,-0.31539 z m 0.332053,-2.64663 c 0.880533,-0.68553 1.572683,-2.23229 -0.174361,-2.50058 -0.490802,-0.0757 -0.03307,-1.02446 -0.407194,-1.64412 -0.159014,-0.26511 -0.640027,-0.4699 -1.13665,-0.51937 -0.24421,-0.0246 -0.414866,-0.26485 -0.35851,-0.50827 l 0.03096,-0.94191 h -0.0019 c -0.372533,-1.592 -2.080948,0.7231 -2.03491,-0.66093 0.01561,-0.49266 -0.488157,-0.60484 -0.122238,-0.99113 h -5.29e-4 c 1.089554,-1.10781 2.564871,-1.64571 3.815556,-0.33893 l 0.0021,-10e-4 0.02302,0.0267 6.568281,6.88049 c 2.292085,2.40295 -1.764771,6.39498 -4.081992,4.0304 -1.165489,-1.18904 -2.738173,-2.35347 -2.121693,-2.83131 z m 5.331089,1.99999 c 0.690298,-0.68765 1.070504,-1.79705 0.284956,-2.61964 l -6.585743,-6.89637 0.0021,-0.001 c -0.795073,-0.84137 -1.632743,-0.54477 -2.385748,0.0897 0.91784,-0.49848 1.8796,0.16457 2.104496,1.12104 l -0.0019,10e-4 c 0.06773,0.28363 0.07752,0.59213 0.0426,0.90461 0.477044,0.15451 1.004623,0.38999 1.268148,0.79586 0.248444,0.37836 0.248444,0.91731 0.260085,1.3597 1.812925,0.50323 1.737519,2.3614 0.525463,3.59595 1.481402,1.51209 2.674144,3.4499 4.485481,1.64915 z"
       inkscape:connector-curvature="0"
       style="fill:#ffffff;fill-rule:evenodd;stroke-width:0.26458332" />
  </g>
</svg>
