<?xml-stylesheet href="@0AG5B A<5BK.css" type="text/css"?>
<svg xmlns="http://www.w3.org/2000/svg" viewBox="0 0 36025.1 36206.5" clip-rule="evenodd" fill-rule="evenodd" image-rendering="optimizeQuality" shape-rendering="geometricPrecision" text-rendering="geometricPrecision">
  <path fill="rgb(100, 101, 103)" d="M17995 15944c813 0 813 1235 0 1235h-4948c-813 0-813-1235 0-1235zm11810 10285c1299-344 2674-728 3978-728l1686-3c741 0 742 1127 0 1127h-1686c-1268 0-2702 430-3978 766v3192c0 916-748 1663-1663 1663h-3910v-1200h3910c255 0 464-209 464-464v-2940c-437 63-904 106-1260 106-1819 0-2854-641-4475-973l-428 1584v6195c0 916-748 1663-1663 1663H1663c-916 0-1663-747-1663-1663V5624c0-916 748-1663 1663-1663h19117c916 0 1663 747 1663 1663v6250l1098-3973c281-1037 1141-1516 2162-1516a2053 2053 0 011980 2587l-2340 8657h43c557 0 1096 164 1559 472l1660 1107V1652c0-255-209-464-464-464H9024a466 466 0 00-464 464v1152H7360V1652c0-916 748-1663 1663-1663h19117c916 0 1663 747 1663 1663v18355l1067 711c278 186 602 283 936 283h3602c782-78 835 1124 60 1124h-3663c-556 0-1095-164-1559-472-104-67-1987-1320-2173-1446-1255-834-2249-1455-2688-1455h-347l-462 1706c2087 248 1895 3353-197 3353h-6184c-930 0-1687 757-1687 1686h4906c909 0 1807 146 2670 433 1632 545 4005 843 5720 295zm-7362-9954v214h-58l-1676 6201h2102l2200-8141-1928-643-640 2368zm-1200-56V5626c0-255-209-464-464-464H1662a466 466 0 00-464 464v28930a462 462 0 00464 463h19117c255 0 464-209 464-464v-4799l-390 191c-189 40-341 49-531 49l-175 698-1091-273 177-705a2043 2043 0 01-965-2307l213-786h-1970c-620 0-1124-504-1124-1125 0-28 8-54 9-81-162 48-329 81-502 81a1756 1756 0 01-1241-2995l895-884h-1501c-813 0-813-1235 0-1235h2752l970-958h-3722c-813 0-813-1235 0-1235h4948l25 1 1-1c915-682 1775-562 2832-562l390-1411zm0 12173v-80h39c17-40 31-81 43-123l419-1550c-699-27-1399-13-2098-13-88 327-324 1013-324 1322 0 511 415 927 926 927h182c343 0 653-190 813-482zM3996 6387h12130c746 0 1355 609 1355 1355v3098c0 746-609 1355-1355 1355H3996c-694 0-1355-635-1355-1355V7742c0-746 609-1355 1355-1355zm12130 1200H3996c-42 0-82 18-109 46-28 28-46 67-46 109v3098c0 42 18 82 46 109l-1 1c28 27 67 44 111 44h12130c42 0 82-18 109-46 28-28 46-67 46-109V7741c0-42-18-82-46-109-28-28-67-46-109-46zm3041 23986a618 618 0 11-1 1237 618 618 0 011-1237zM4086 15344h2766v1200H4086c-61 0-120 24-163 67-40 41-65 98-65 161v4093c0 125 103 228 228 228h4130c128 0 228-101 228-228v-2110h1200v2110c0 783-645 1428-1428 1428H4086c-786 0-1428-642-1428-1428v-4093c0-783 645-1428 1428-1428zm8144-824l-5639 5604-1685-1662c-585-590 313-1480 898-890l774 781 4760-4730c589-586 1481 311 892 897zM4086 24767h2766v1200H4086c-61 0-120 24-163 67-40 41-65 98-65 161v4093c0 125 103 228 228 228h4130c128 0 228-101 228-228v-2110h1200v2110c0 783-645 1428-1428 1428H4086c-786 0-1428-642-1428-1428v-4093c0-783 645-1428 1428-1428zm8144-824l-5639 5604-1685-1662c-585-590 313-1480 898-890l774 781 4760-4730c589-586 1481 311 892 897zm4633 7630c813 0 813 1235 0 1235h-4948c-813 0-813-1235 0-1235zm1635-12325c607-605 1334-494 2110-494l-458 1697a2787 2787 0 00-1884 813l-2927 2927c-592 592-1475-308-891-891l4051-4052zm1334 2378l-288 1064h-1114c427-428 792-904 1402-1064zm6765-12946l-689 2547-1928-643 645-2388c316-1166 2303-753 1971 484zm-2910 2991l1928 643-311 1148-1928-643 310-1148zm694 9894c739 0 739 1124 0 1124h-405l304-1124z"/>
</svg>
