<svg xmlns="http://www.w3.org/2000/svg">
	<symbol id="logout" viewBox="0 0 512 512">
		<title>logout</title>
		<path d="M330.667,384h-21.333c-5.891,0-10.667,4.776-10.667,10.667v74.667h-256V42.667h256v74.667
          c0,5.891,4.776,10.667,10.667,10.667h21.333c5.891,0,10.667-4.776,10.667-10.667V42.667C341.333,19.103,322.231,0,298.667,0h-256
          C19.103,0,0,19.103,0,42.667v426.667C0,492.898,19.103,512,42.667,512h256c23.564,0,42.667-19.102,42.667-42.667v-74.667
          C341.333,388.776,336.558,384,330.667,384z"/>
		<path d="M508.542,248.135l-128-117.333c-3.125-2.844-7.656-3.625-11.5-1.896c-3.875,1.698-6.375,5.531-6.375,9.76V160
          c0,3.021,1.281,5.906,3.531,7.927l74.151,66.74H138.667c-5.896,0-10.667,4.771-10.667,10.667v21.333
          c0,5.896,4.771,10.667,10.667,10.667h301.682l-74.151,66.74c-2.25,2.021-3.531,4.906-3.531,7.927v21.333
          c0,4.229,2.5,8.063,6.375,9.76c1.375,0.615,2.844,0.906,4.292,0.906c2.615,0,5.198-0.969,7.208-2.802l128-117.333
          C510.75,261.844,512,258.99,512,256S510.75,250.156,508.542,248.135z"/>
	</symbol>
	<symbol id="sitemap" viewBox="0 0 21 21">
		<title>sitemap</title>
		<path d="M16.000,21.000 L16.000,15.999 L18.000,15.999 L18.000,12.999 L11.000,12.999 L11.000,15.999 L13.000,15.999 L13.000,21.000 L8.000,21.000 L8.000,15.999 L10.000,15.999 L10.000,12.999 L3.000,12.999 L3.000,15.999 L5.000,15.999 L5.000,21.000 L-0.000,21.000 L-0.000,15.999 L2.000,15.999 L2.000,12.999 L2.000,11.999 L3.000,11.999 L10.000,11.999 L10.000,7.000 L7.000,7.000 L7.000,-0.000 L14.000,-0.000 L14.000,7.000 L11.000,7.000 L11.000,11.999 L18.000,11.999 L19.000,11.999 L19.000,12.999 L19.000,15.999 L21.000,15.999 L21.000,21.000 L16.000,21.000 Z" />
	</symbol>
	<symbol id="whatsapp" viewBox="0 0 15 15">
		<title>whatsapp</title>
		<path d="M14.994,7.303 C14.994,11.335 11.700,14.605 7.636,14.605 C6.345,14.605 5.133,14.275 4.079,13.696 L0.004,14.991 L1.332,11.074 C0.662,9.972 0.277,8.682 0.277,7.303 C0.277,3.270 3.571,0.000 7.636,0.000 C11.700,0.000 14.994,3.270 14.994,7.303 L14.994,7.303 ZM7.636,1.163 C4.223,1.163 1.448,3.917 1.448,7.303 C1.448,8.646 1.886,9.890 2.627,10.902 L1.854,13.182 L4.232,12.427 C5.208,13.068 6.378,13.442 7.636,13.442 C11.047,13.442 13.822,10.688 13.822,7.303 C13.822,3.917 11.047,1.163 7.636,1.163 L7.636,1.163 ZM11.352,8.985 C11.306,8.910 11.186,8.865 11.006,8.775 C10.826,8.686 9.938,8.253 9.773,8.194 C9.608,8.134 9.487,8.104 9.367,8.283 C9.247,8.462 8.901,8.865 8.796,8.985 C8.691,9.104 8.586,9.119 8.405,9.029 C8.225,8.940 7.643,8.750 6.954,8.141 C6.419,7.666 6.056,7.081 5.951,6.902 C5.846,6.723 5.940,6.626 6.030,6.537 C6.111,6.456 6.210,6.328 6.300,6.224 C6.391,6.119 6.421,6.044 6.481,5.925 C6.541,5.805 6.511,5.701 6.466,5.611 C6.421,5.522 6.060,4.641 5.909,4.282 C5.760,3.925 5.609,3.938 5.503,3.938 C5.399,3.938 5.204,3.969 5.204,3.969 C5.204,3.969 4.842,4.014 4.677,4.193 C4.512,4.372 4.046,4.805 4.046,5.685 C4.046,6.566 4.692,7.417 4.782,7.537 C4.872,7.656 6.030,9.522 7.863,10.239 C9.698,10.955 9.698,10.716 10.028,10.686 C10.359,10.657 11.096,10.254 11.246,9.835 C11.396,9.418 11.396,9.059 11.352,8.985 L11.352,8.985 Z" />
	</symbol>
	<symbol id="time" viewBox="0 0 20 20">
		<title>time</title>
		<path d="M9.999,19.989 C4.476,19.989 -0.001,15.511 -0.001,9.989 C-0.001,4.466 4.476,-0.011 9.999,-0.011 C15.522,-0.011 19.999,4.466 19.999,9.989 C19.999,15.511 15.522,19.989 9.999,19.989 ZM9.919,1.933 C5.458,1.933 1.842,5.549 1.842,10.009 C1.842,14.470 5.458,18.087 9.919,18.087 C14.379,18.087 17.996,14.470 17.996,10.009 C17.996,5.549 14.379,1.933 9.919,1.933 ZM12.253,11.997 L9.200,11.997 C8.779,11.997 8.438,11.656 8.438,11.235 L8.438,6.603 C8.438,6.183 8.779,5.842 9.200,5.842 C9.620,5.842 9.961,6.183 9.961,6.603 L9.961,10.474 L12.253,10.474 C12.673,10.474 13.014,10.815 13.014,11.235 C13.014,11.656 12.673,11.997 12.253,11.997 Z" />
	</symbol>
	<symbol id="phone-circle" viewBox="0 0 20 20">
		<title>phone-circle</title>
		<path d="M9.999,19.989 C4.476,19.989 -0.001,15.512 -0.001,9.989 C-0.001,4.466 4.476,-0.011 9.999,-0.011 C15.522,-0.011 19.999,4.466 19.999,9.989 C19.999,15.512 15.522,19.989 9.999,19.989 ZM9.919,1.933 C5.458,1.933 1.842,5.548 1.842,10.010 C1.842,14.470 5.458,18.087 9.919,18.087 C14.379,18.087 17.996,14.470 17.996,10.010 C17.996,5.548 14.379,1.933 9.919,1.933 ZM13.457,13.810 L13.456,13.810 C13.456,13.812 12.808,14.193 12.808,14.193 L11.449,11.896 L12.097,11.513 C12.238,11.430 12.418,11.474 12.502,11.616 C12.503,11.617 13.561,13.402 13.561,13.402 L13.560,13.403 C13.640,13.539 13.606,13.722 13.457,13.810 ZM8.324,11.180 C6.416,7.864 7.436,6.400 7.796,6.131 L9.187,8.477 C8.852,8.675 9.012,9.121 9.212,9.556 C9.215,9.577 10.178,11.199 10.187,11.205 C10.685,11.880 10.955,12.190 11.275,12.001 L12.630,14.292 C12.247,14.529 10.334,14.675 8.324,11.180 ZM10.012,7.989 L10.012,7.991 C10.012,7.992 9.364,8.373 9.364,8.373 L7.975,6.025 L8.623,5.641 C8.763,5.559 8.944,5.603 9.028,5.745 C9.028,5.745 10.117,7.582 10.117,7.582 L10.117,7.584 C10.196,7.719 10.161,7.902 10.012,7.989 Z" />
	</symbol>
	<symbol id="phone" viewBox="0 0 16 17">
		<title>phone</title>
		<path d="M15.651,15.927 L15.648,15.928 C15.649,15.929 14.027,16.625 14.027,16.625 L10.628,12.446 L12.249,11.748 C12.601,11.599 13.053,11.679 13.262,11.936 C13.263,11.938 15.910,15.184 15.910,15.184 L15.909,15.187 C16.109,15.435 16.023,15.767 15.651,15.927 ZM2.812,11.143 C-1.960,5.112 0.590,2.450 1.491,1.960 L4.969,6.228 C4.132,6.588 4.534,7.398 5.032,8.191 C5.040,8.229 7.450,11.178 7.471,11.189 C8.717,12.416 9.392,12.981 10.193,12.638 L13.583,16.805 C12.624,17.235 7.840,17.500 2.812,11.143 ZM7.035,5.341 L7.034,5.343 C7.033,5.344 5.412,6.038 5.412,6.038 L1.938,1.767 L3.560,1.069 C3.910,0.920 4.363,0.999 4.572,1.258 C4.574,1.259 7.297,4.600 7.297,4.600 L7.295,4.603 C7.494,4.848 7.407,5.180 7.035,5.341 Z" />
	</symbol>
	<symbol id="email" viewBox="0 0 15 11">
		<title>email</title>
		<path d="M0.794,10.758 L14.325,10.758 C14.363,10.758 14.398,10.750 14.430,10.735 L9.794,6.388 L7.560,9.093 L5.325,6.388 L0.689,10.735 C0.721,10.750 0.757,10.758 0.794,10.758 ZM0.547,10.383 L4.580,5.486 L0.547,0.604 L0.547,10.383 ZM0.869,0.240 L0.985,0.327 L7.560,7.340 L14.134,0.327 L14.250,0.240 L0.869,0.240 ZM14.572,0.604 L10.539,5.486 L14.572,10.383 L14.572,0.604 Z" />
	</symbol>
	<symbol id="menu-about" viewBox="0 0 18 18">
		<title>menu-about</title>
		<path d="M1.481,-0.001 L9.426,-0.001 C10.238,-0.001 10.906,0.668 10.906,1.481 L10.906,5.268 L16.519,5.268 C17.332,5.268 18.000,5.936 18.000,6.749 L18.000,8.418 L18.000,9.269 L18.000,16.519 C18.000,17.332 17.332,17.999 16.519,17.999 L15.906,17.999 L14.906,17.999 L14.901,17.999 L14.901,16.999 L14.906,16.999 L14.906,14.498 C14.906,14.233 14.691,14.018 14.425,14.018 L13.388,14.018 C13.121,14.018 12.906,14.233 12.906,14.498 L12.906,17.999 L12.904,17.999 L11.906,17.999 L10.543,17.999 L10.543,17.997 L1.481,17.999 C0.668,17.999 -0.000,17.332 -0.000,16.519 L-0.000,1.481 C-0.000,0.668 0.668,-0.001 1.481,-0.001 L1.481,-0.001 ZM10.906,6.268 L10.906,6.937 L16.519,6.937 C16.687,6.937 16.849,6.966 17.000,7.018 L17.000,6.749 C17.000,6.483 16.785,6.268 16.519,6.268 L10.906,6.268 L10.906,6.268 ZM10.906,7.938 L10.906,16.999 L11.906,16.999 L11.906,14.498 C11.906,13.685 12.574,13.018 13.388,13.018 L14.425,13.018 C15.238,13.018 15.906,13.685 15.906,14.498 L15.906,16.999 L16.519,16.999 C16.785,16.999 17.000,16.784 17.000,16.519 L17.000,9.269 L17.000,8.418 C17.000,8.152 16.785,7.938 16.519,7.938 L10.906,7.938 L10.906,7.938 ZM2.808,2.268 L4.216,2.268 C4.652,2.268 5.012,2.616 5.012,3.036 L5.012,4.500 C5.012,4.921 4.652,5.268 4.216,5.268 L2.808,5.268 C2.372,5.268 2.012,4.921 2.012,4.500 L2.012,3.036 C2.012,2.616 2.372,2.268 2.808,2.268 L2.808,2.268 ZM6.796,10.269 L8.204,10.269 C8.640,10.269 9.000,10.616 9.000,11.036 L9.000,12.500 C9.000,12.921 8.640,13.268 8.204,13.268 L6.796,13.268 C6.360,13.268 6.000,12.921 6.000,12.500 L6.000,11.036 C6.000,10.616 6.360,10.269 6.796,10.269 L6.796,10.269 ZM7.800,11.426 L7.200,11.426 L7.200,12.111 L7.800,12.111 L7.800,11.426 L7.800,11.426 ZM2.808,10.269 L4.216,10.269 C4.652,10.269 5.012,10.616 5.012,11.036 L5.012,12.500 C5.012,12.921 4.652,13.268 4.216,13.268 L2.808,13.268 C2.372,13.268 2.012,12.921 2.012,12.500 L2.012,11.036 C2.012,10.616 2.372,10.269 2.808,10.269 L2.808,10.269 ZM3.812,11.426 L3.212,11.426 L3.212,12.111 L3.812,12.111 L3.812,11.426 L3.812,11.426 ZM2.808,6.268 L4.216,6.268 C4.652,6.268 5.012,6.616 5.012,7.036 L5.012,8.500 C5.012,8.921 4.652,9.269 4.216,9.269 L2.808,9.269 C2.372,9.269 2.012,8.921 2.012,8.500 L2.012,7.036 C2.012,6.616 2.372,6.268 2.808,6.268 L2.808,6.268 ZM3.812,7.426 L3.212,7.426 L3.212,8.110 L3.812,8.110 L3.812,7.426 L3.812,7.426 ZM6.796,6.268 L8.204,6.268 C8.640,6.268 9.000,6.616 9.000,7.036 L9.000,8.500 C9.000,8.921 8.640,9.269 8.204,9.269 L6.796,9.269 C6.360,9.269 6.000,8.921 6.000,8.500 L6.000,7.036 C6.000,6.616 6.360,6.268 6.796,6.268 L6.796,6.268 ZM7.800,7.426 L7.200,7.426 L7.200,8.110 L7.800,8.110 L7.800,7.426 L7.800,7.426 ZM6.796,2.268 L8.204,2.268 C8.640,2.268 9.000,2.616 9.000,3.036 L9.000,4.500 C9.000,4.921 8.640,5.268 8.204,5.268 L6.796,5.268 C6.360,5.268 6.000,4.921 6.000,4.500 L6.000,3.036 C6.000,2.616 6.360,2.268 6.796,2.268 L6.796,2.268 ZM7.800,3.426 L7.200,3.426 L7.200,4.110 L7.800,4.110 L7.800,3.426 L7.800,3.426 ZM3.812,3.426 L3.212,3.426 L3.212,4.110 L3.812,4.110 L3.812,3.426 L3.812,3.426 ZM9.426,1.000 L1.481,1.000 C1.215,1.000 1.000,1.215 1.000,1.481 L1.000,16.519 C1.000,16.784 1.215,16.999 1.481,16.999 L9.426,16.999 C9.691,16.999 9.906,16.784 9.906,16.519 L9.906,1.481 C9.906,1.215 9.691,1.000 9.426,1.000 L9.426,1.000 Z" />
	</symbol>
	<symbol id="menu-lighting" viewBox="0 0 17 18">
		<title>menu-lighting</title>
		<path d="M8.432,2.845 C11.343,2.845 13.704,5.140 13.704,7.969 C13.704,10.294 12.108,12.257 9.924,12.884 C9.949,12.955 9.962,13.031 9.962,13.111 L9.962,14.091 C10.913,14.304 11.663,15.100 11.663,16.097 L11.663,15.911 C11.663,17.080 10.628,17.973 9.452,17.973 L7.410,17.973 C6.233,17.973 5.199,17.080 5.199,15.911 L5.199,16.097 C5.199,15.100 5.950,14.304 6.901,14.091 L6.901,13.111 C6.901,13.031 6.914,12.955 6.938,12.884 C4.754,12.257 3.159,10.294 3.159,7.969 C3.159,5.140 5.520,2.845 8.432,2.845 L8.432,2.845 ZM1.565,11.758 C0.967,12.056 0.501,11.173 1.099,10.876 L2.439,10.209 C3.036,9.912 3.502,10.794 2.904,11.090 L1.565,11.758 L1.565,11.758 ZM13.880,2.496 C14.335,2.016 13.584,1.345 13.130,1.825 L12.110,2.902 C11.656,3.382 12.406,4.054 12.861,3.574 L13.880,2.496 L13.880,2.496 ZM15.299,11.758 C15.896,12.056 16.361,11.173 15.764,10.875 L14.424,10.208 C13.827,9.911 13.360,10.794 13.958,11.092 L15.299,11.758 L15.299,11.758 ZM16.241,6.958 C16.911,6.913 16.840,5.924 16.171,5.969 L14.668,6.070 C13.998,6.115 14.069,7.105 14.738,7.059 L16.241,6.958 L16.241,6.958 ZM2.982,2.497 C2.527,2.017 3.278,1.346 3.733,1.825 L4.753,2.902 C5.207,3.382 4.456,4.054 4.002,3.574 L2.982,2.497 L2.982,2.497 ZM0.622,6.958 C-0.048,6.914 0.023,5.924 0.692,5.969 L2.195,6.070 C2.865,6.116 2.793,7.105 2.124,7.059 L0.622,6.958 L0.622,6.958 ZM7.921,0.609 C7.921,-0.043 8.942,-0.043 8.942,0.609 L8.942,2.072 C8.942,2.725 7.921,2.725 7.921,2.072 L7.921,0.609 L7.921,0.609 ZM8.432,6.317 C9.558,6.317 10.472,7.205 10.472,8.300 C10.472,9.206 9.840,9.996 8.942,10.222 L8.942,12.070 C11.049,11.826 12.683,10.083 12.683,7.969 C12.683,5.687 10.779,3.837 8.432,3.837 C6.083,3.837 4.180,5.687 4.180,7.969 C4.180,10.083 5.814,11.826 7.921,12.070 L7.921,10.222 C7.563,10.131 7.243,9.949 6.989,9.703 C6.619,9.344 6.391,8.847 6.391,8.300 C6.391,7.205 7.304,6.317 8.432,6.317 L8.432,6.317 ZM8.432,7.309 C7.868,7.309 7.411,7.752 7.411,8.300 C7.411,8.575 7.526,8.823 7.710,9.002 C7.894,9.181 8.149,9.292 8.432,9.292 C8.996,9.292 9.452,8.849 9.452,8.300 C9.452,7.752 8.996,7.309 8.432,7.309 L8.432,7.309 ZM8.126,14.034 L8.738,14.034 L8.738,13.497 L8.126,13.497 L8.126,14.034 L8.126,14.034 ZM6.220,16.097 L6.220,15.911 C6.220,16.535 6.794,16.982 7.410,16.982 L9.452,16.982 C10.068,16.982 10.643,16.535 10.643,15.911 L10.643,16.097 C10.643,15.473 10.068,15.026 9.452,15.026 L7.410,15.026 C6.794,15.026 6.220,15.473 6.220,16.097 L6.220,16.097 Z" />
	</symbol>
	<symbol id="menu-works" viewBox="0 0 18 15">
		<title>menu-works</title>
		<path d="M-0.000,13.514 C-0.000,10.147 -0.000,6.802 -0.000,3.466 C-0.000,2.652 0.668,1.984 1.481,1.984 L4.984,1.984 C5.133,0.869 6.095,-0.000 7.247,-0.000 L10.751,-0.000 C11.902,-0.000 12.864,0.869 13.013,1.984 L16.519,1.984 C17.332,1.984 18.000,2.652 18.000,3.466 L18.000,13.514 C18.000,14.329 17.332,14.998 16.519,14.998 L1.481,14.998 C0.668,14.998 -0.000,14.329 -0.000,13.514 L-0.000,13.514 ZM17.000,5.988 L1.000,5.988 L1.000,6.989 L3.007,6.989 C3.007,7.629 3.007,8.270 3.007,8.911 C3.007,9.506 3.494,9.992 4.087,9.992 L4.900,9.992 C5.494,9.992 5.980,9.506 5.980,8.911 C5.980,8.266 5.984,7.633 5.984,6.989 L11.984,6.989 C11.984,7.633 11.988,8.266 11.988,8.911 C11.988,9.506 12.475,9.992 13.068,9.992 L13.882,9.992 C14.476,9.992 14.962,9.506 14.962,8.911 C14.962,8.270 14.962,7.629 14.962,6.989 L17.000,6.989 L17.000,5.988 L17.000,5.988 ZM1.000,4.987 L17.000,4.987 L17.000,3.466 C17.000,3.200 16.785,2.985 16.519,2.985 L1.481,2.985 C1.215,2.985 1.000,3.200 1.000,3.466 L1.000,4.987 L1.000,4.987 ZM10.988,7.990 L6.980,7.990 L6.980,8.911 C6.980,10.055 6.044,10.993 4.900,10.993 L4.087,10.993 C2.942,10.993 2.007,10.057 2.007,8.911 L2.007,7.990 L1.000,7.990 L1.000,13.514 C1.000,13.782 1.215,13.997 1.481,13.997 L16.519,13.997 C16.785,13.997 17.000,13.782 17.000,13.514 L17.000,7.990 L15.962,7.990 L15.962,8.911 C15.962,10.055 15.025,10.993 13.882,10.993 L13.068,10.993 C11.924,10.993 10.988,10.057 10.988,8.911 L10.988,7.990 L10.988,7.990 ZM6.000,1.984 L11.997,1.984 C11.861,1.420 11.354,1.001 10.751,1.001 L7.247,1.001 C6.643,1.001 6.136,1.420 6.000,1.984 L6.000,1.984 Z" />
	</symbol>
	<symbol id="menu-prices" viewBox="0 0 15 18">
		<title>menu-prices</title>
		<path d="M0.002,16.433 C0.002,13.086 0.002,5.782 0.002,2.467 C0.002,1.657 0.627,0.992 1.389,0.992 L3.750,0.992 L3.750,1.988 L1.389,1.988 C1.140,1.988 0.939,2.202 0.939,2.467 L0.939,3.977 L0.939,16.433 C0.939,16.697 1.140,16.911 1.389,16.911 L4.701,16.911 L4.701,17.907 L1.389,17.907 C0.627,17.907 0.002,17.242 0.002,16.433 L0.002,16.433 ZM4.287,11.742 C5.204,12.555 5.914,13.242 6.618,14.306 C8.953,10.807 10.954,8.993 14.989,8.007 L14.998,12.789 C11.146,12.832 9.123,15.226 6.611,17.965 C4.906,16.195 5.207,15.893 2.710,15.404 C3.733,14.055 3.911,13.346 4.287,11.742 L4.287,11.742 ZM4.304,14.742 C5.495,15.107 5.839,15.655 6.605,16.548 C8.519,14.474 10.867,12.071 14.063,11.824 L14.058,9.271 C10.422,10.371 8.595,12.986 6.571,16.125 C6.027,15.136 5.545,14.347 4.787,13.534 C4.649,13.943 4.493,14.354 4.304,14.742 L4.304,14.742 ZM8.705,16.911 L10.793,16.911 C11.045,16.911 11.247,16.699 11.247,16.433 L11.247,14.768 L12.183,14.768 L12.183,16.433 C12.183,17.242 11.559,17.907 10.793,17.907 L8.705,17.907 L8.705,16.911 L8.705,16.911 ZM11.247,8.165 L11.247,2.467 C11.247,2.201 11.045,1.988 10.793,1.988 L8.435,1.988 L8.435,0.992 L10.793,0.992 C11.559,0.992 12.183,1.657 12.183,2.467 L12.183,8.165 L11.247,8.165 L11.247,8.165 ZM6.561,0.969 L5.623,0.969 L5.623,2.027 L6.561,2.027 L6.561,0.969 L6.561,0.969 ZM5.433,0.013 L6.752,0.013 C7.160,0.013 7.497,0.359 7.497,0.778 L7.497,2.972 L10.298,2.972 L10.307,4.974 L1.867,4.974 L1.869,2.972 L4.686,2.972 L4.686,0.778 C4.686,0.359 5.024,0.013 5.433,0.013 L5.433,0.013 Z" />
	</symbol>
	<symbol id="menu-stocks" viewBox="0 0 18 18">
		<title>menu-stocks</title>
		<path d="M13.830,3.984 C13.635,3.789 13.313,3.789 13.115,3.984 L13.115,3.982 C12.920,4.177 12.920,4.499 13.115,4.695 L13.115,4.695 C13.313,4.889 13.635,4.889 13.830,4.695 C14.026,4.499 14.026,4.179 13.830,3.984 L13.830,3.984 ZM12.695,9.518 C13.166,9.052 12.451,8.342 11.982,8.808 L7.510,13.260 C7.042,13.727 7.754,14.441 8.224,13.970 L12.695,9.518 L12.695,9.518 ZM10.928,7.762 C11.399,7.294 10.684,6.583 10.215,7.051 L5.743,11.501 C5.273,11.968 5.987,12.682 6.457,12.215 L10.928,7.762 L10.928,7.762 ZM9.162,6.002 C9.632,5.535 8.918,4.825 8.448,5.292 L3.976,9.742 C3.506,10.208 4.220,10.923 4.690,10.452 L9.162,6.002 L9.162,6.002 ZM9.020,17.508 L18.000,8.571 L18.014,0.057 L9.448,0.022 L0.452,8.979 C-0.129,9.557 -0.129,10.505 0.452,11.083 L6.905,17.508 C7.486,18.086 8.440,18.086 9.020,17.508 L9.020,17.508 ZM16.938,8.204 L8.306,16.798 C8.117,16.988 7.809,16.988 7.620,16.798 L1.166,10.374 C0.976,10.184 0.976,9.878 1.166,9.688 L9.798,1.096 L17.045,1.022 L16.938,8.204 L16.938,8.204 ZM14.543,3.273 C15.134,3.859 15.134,4.820 14.543,5.405 C14.248,5.698 13.860,5.847 13.474,5.847 C12.166,5.847 11.433,4.239 12.402,3.275 L12.402,3.273 C12.991,2.687 13.955,2.687 14.543,3.273 L14.543,3.273 Z" />
	</symbol>
	<symbol id="menu-articles" viewBox="0 0 15 18">
		<title>menu-articles</title>
		<path d="M13.006,0.931 L13.006,3.030 L13.519,3.000 C14.333,3.000 15.000,3.667 15.000,4.481 L15.000,16.519 C15.000,17.331 14.333,18.000 13.519,18.000 L1.481,18.000 C0.668,18.000 -0.000,17.331 -0.000,16.519 C-0.000,11.505 -0.000,6.493 -0.000,1.480 C-0.000,0.667 0.668,-0.001 1.481,-0.001 L13.006,-0.001 L13.006,0.931 L13.006,0.931 ZM13.006,13.867 C9.164,13.867 5.323,13.867 1.481,13.867 C1.215,13.867 1.000,14.081 1.000,14.349 L1.000,16.519 C1.000,16.785 1.215,16.999 1.481,16.999 L13.519,16.999 C13.786,16.999 14.000,16.785 14.000,16.519 L14.000,4.481 C14.000,4.215 13.785,4.000 13.519,4.000 L13.006,4.000 L13.006,13.867 L13.006,13.867 ZM12.006,12.867 L12.006,0.999 L1.481,0.999 C1.215,0.999 1.000,1.214 1.000,1.480 L1.000,12.948 C1.151,12.896 1.313,12.867 1.481,12.867 C4.989,12.867 8.497,12.867 12.006,12.867 L12.006,12.867 ZM13.006,15.964 L1.991,15.964 L1.991,14.964 L13.006,14.964 L13.006,15.964 L13.006,15.964 Z" />
	</symbol>
	<symbol id="menu-contacts" viewBox="0 0 14 18">
		<title>menu-contacts</title>
		<path d="M14.001,7.335 C14.001,9.287 13.237,11.150 11.897,12.515 L7.000,17.953 C5.168,15.919 1.501,12.484 0.548,10.145 C0.195,9.278 -0.002,8.327 -0.002,7.335 C-0.002,3.877 1.822,1.658 4.155,0.685 C5.955,-0.065 8.044,-0.066 9.845,0.685 C12.178,1.658 14.001,3.877 14.001,7.335 L14.001,7.335 ZM10.009,7.076 C10.009,10.999 3.991,10.999 3.991,7.076 C3.991,3.153 10.009,3.153 10.009,7.076 L10.009,7.076 ZM4.989,7.076 C4.989,9.697 9.010,9.697 9.010,7.076 C9.010,4.456 4.989,4.456 4.989,7.076 L4.989,7.076 ZM13.002,7.335 C13.002,4.368 11.454,2.471 9.474,1.645 C7.918,0.996 6.082,0.996 4.526,1.645 C2.545,2.471 0.997,4.368 0.997,7.335 C0.997,8.191 1.163,9.006 1.464,9.745 C2.218,11.594 5.806,15.113 7.000,16.439 L11.188,11.789 C12.350,10.611 13.002,9.023 13.002,7.335 L13.002,7.335 Z" />
	</symbol>
	<symbol id="novogodnee-osveshhenie" viewBox="0 0 17 18">
		<title>novogodnee-osveshhenie</title>
		<path d="M7.705,7.230 C7.981,7.230 8.204,7.454 8.204,7.729 C8.204,8.005 7.981,8.229 7.705,8.229 C7.430,8.229 7.206,8.005 7.206,7.729 C7.206,7.454 7.430,7.230 7.705,7.230 L7.705,7.230 ZM6.856,5.398 C7.197,4.755 8.176,5.274 7.834,5.918 C7.381,6.771 6.744,7.460 6.090,8.004 C6.090,8.026 5.542,8.426 5.480,8.469 C5.699,8.463 5.928,8.434 6.160,8.378 C6.290,8.348 6.421,8.365 6.533,8.421 L6.533,8.420 C7.610,8.952 9.272,8.994 10.348,8.441 C10.490,8.368 10.650,8.363 10.789,8.413 L10.791,8.414 L10.795,8.415 C10.998,8.488 11.261,8.541 11.546,8.537 C10.600,7.925 9.579,6.965 9.124,5.933 C8.832,5.267 9.844,4.821 10.138,5.487 C10.589,6.512 12.064,7.769 13.121,8.101 L13.121,8.102 C13.548,8.234 13.653,8.805 13.284,9.076 C12.893,9.363 12.445,9.538 11.979,9.609 C12.644,10.543 13.598,11.475 14.692,11.726 C15.183,11.839 15.282,12.510 14.830,12.752 C14.290,13.043 13.679,13.207 13.058,13.259 C13.971,14.339 15.190,15.299 16.539,15.576 L16.539,15.576 C17.052,15.681 17.146,16.387 16.667,16.615 C15.356,17.241 13.739,17.338 12.327,17.054 C10.029,18.282 6.759,18.272 4.472,17.022 C3.737,17.124 3.024,17.147 2.377,17.108 C1.610,17.062 0.921,16.929 0.385,16.736 C-0.122,16.580 -0.141,15.856 0.370,15.683 C1.809,15.193 2.873,14.279 3.841,13.197 L3.798,13.195 C3.345,13.163 2.082,13.044 1.890,12.540 C1.782,12.255 1.925,11.933 2.211,11.826 C3.377,11.379 4.212,10.509 4.952,9.552 C4.525,9.507 4.108,9.392 3.748,9.191 L3.749,9.190 C3.371,8.978 3.371,8.423 3.763,8.218 C4.998,7.573 6.191,6.649 6.856,5.398 L6.856,5.398 ZM8.488,-0.003 L9.285,1.661 L11.016,1.903 L9.738,3.205 L10.051,4.987 L8.462,4.128 L6.925,4.987 L7.222,3.155 L5.959,1.903 L7.731,1.630 L8.488,-0.003 L8.488,-0.003 ZM11.607,13.189 L11.457,13.158 C9.666,14.203 7.161,14.193 5.381,13.130 L5.348,13.134 C4.464,14.209 3.488,15.259 2.296,15.993 L2.442,16.003 C3.078,16.042 3.780,16.014 4.495,15.903 C4.626,15.882 4.753,15.909 4.859,15.971 L4.859,15.971 C6.873,17.155 9.945,17.161 11.965,15.989 C12.093,15.915 12.238,15.899 12.371,15.930 L12.371,15.929 C13.102,16.102 13.932,16.143 14.678,16.045 C13.458,15.381 12.402,14.324 11.607,13.189 L11.607,13.189 ZM10.625,9.533 C9.350,10.088 7.621,10.067 6.328,9.538 C6.313,9.570 6.295,9.601 6.273,9.632 C5.621,10.529 4.893,11.434 3.995,12.097 C4.432,12.116 4.910,12.091 5.400,12.003 C5.558,11.976 5.712,12.019 5.830,12.108 C7.319,13.070 9.576,13.072 11.062,12.104 C11.198,12.015 11.359,11.996 11.504,12.033 L11.504,12.033 C11.889,12.136 12.418,12.204 12.980,12.155 C12.043,11.535 11.248,10.591 10.678,9.644 C10.656,9.607 10.638,9.570 10.625,9.533 L10.625,9.533 ZM10.460,14.784 C10.736,14.784 10.959,15.008 10.959,15.283 C10.959,15.560 10.736,15.782 10.460,15.782 C10.185,15.782 9.961,15.560 9.961,15.283 C9.961,15.008 10.185,14.784 10.460,14.784 L10.460,14.784 ZM7.876,15.322 C8.152,15.322 8.375,15.546 8.375,15.821 C8.375,16.098 8.152,16.321 7.876,16.321 C7.600,16.321 7.377,16.098 7.377,15.821 C7.377,15.546 7.600,15.322 7.876,15.322 L7.876,15.322 ZM6.011,14.318 C6.286,14.318 6.510,14.540 6.510,14.817 C6.510,15.092 6.286,15.316 6.011,15.316 C5.735,15.316 5.511,15.092 5.511,14.817 C5.511,14.540 5.735,14.318 6.011,14.318 L6.011,14.318 ZM6.845,10.942 C7.121,10.942 7.344,11.164 7.344,11.442 C7.344,11.716 7.121,11.941 6.845,11.941 C6.569,11.941 6.346,11.716 6.346,11.442 C6.346,11.164 6.569,10.942 6.845,10.942 L6.845,10.942 ZM9.885,10.377 C10.160,10.377 10.384,10.599 10.384,10.876 C10.384,11.151 10.160,11.375 9.885,11.375 C9.609,11.375 9.386,11.151 9.386,10.876 C9.386,10.599 9.609,10.377 9.885,10.377 L9.885,10.377 Z" />
	</symbol>
	<symbol id="arhitekturnoe-osveshhenie" viewBox="0 0 18 19">
		<title>arhitekturnoe-osveshhenie</title>
		<path d="M1.123,7.065 L8.539,1.193 L8.839,0.955 L9.143,1.191 L16.683,7.063 L17.820,7.949 L16.383,7.949 L1.427,7.949 L0.006,7.949 L1.123,7.065 L1.123,7.065 ZM6.877,8.995 L10.870,8.995 L10.870,9.971 L9.858,9.971 L9.858,15.090 L7.888,15.090 L7.888,9.971 L6.877,9.971 L6.877,8.995 L6.877,8.995 ZM0.992,8.995 L4.985,8.995 L4.985,9.971 L3.973,9.971 L3.973,15.090 L2.004,15.090 L2.004,9.971 L0.992,9.971 L0.992,8.995 L0.992,8.995 ZM12.762,8.995 L16.754,8.995 L16.754,9.971 L15.743,9.971 L15.743,15.090 L13.773,15.090 L13.773,9.971 L12.762,9.971 L12.762,8.995 L12.762,8.995 ZM1.486,17.024 C0.843,17.024 0.843,16.033 1.486,16.033 L16.260,16.033 C16.904,16.033 16.904,17.024 16.260,17.024 L1.486,17.024 L1.486,17.024 ZM0.501,18.974 C-0.142,18.974 -0.142,17.983 0.501,17.983 L17.245,17.983 C17.889,17.983 17.889,18.974 17.245,18.974 L0.501,18.974 L0.501,18.974 ZM8.914,5.624 C7.618,5.624 7.618,3.642 8.914,3.642 C10.208,3.642 10.208,5.624 8.914,5.624 L8.914,5.624 ZM8.846,2.209 L2.847,6.959 L14.945,6.959 L8.846,2.209 L8.846,2.209 Z" />
	</symbol>
	<symbol id="ulichnoe-osveshhenie" viewBox="0 0 13 18">
		<title>ulichnoe-osveshhenie</title>
		<path d="M7.316,16.555 L7.316,17.984 L5.366,17.984 L5.366,16.555 C4.788,16.159 4.631,16.192 4.143,15.558 L8.539,15.558 C8.082,16.152 7.898,16.190 7.316,16.555 L7.316,16.555 ZM7.606,2.260 C9.270,2.458 10.696,3.033 11.610,3.825 L1.037,3.825 C1.952,3.033 3.378,2.458 5.042,2.260 C5.191,1.991 5.361,1.759 5.601,1.596 C5.640,1.569 5.680,1.545 5.721,1.523 C5.657,1.154 5.704,0.741 5.858,0.444 C6.105,-0.033 6.542,-0.033 6.789,0.444 C6.943,0.741 6.991,1.154 6.926,1.523 C6.967,1.545 7.007,1.569 7.046,1.596 C7.286,1.759 7.456,1.991 7.606,2.260 L7.606,2.260 ZM2.002,5.818 L4.053,13.566 L4.702,13.566 L3.470,5.818 L2.002,5.818 L2.002,5.818 ZM3.045,13.566 L0.994,5.818 L0.456,5.818 C-0.185,5.818 -0.185,4.826 0.456,4.826 L12.225,4.826 C12.866,4.826 12.866,5.818 12.225,5.818 L11.688,5.818 L9.637,13.566 C10.410,13.566 10.313,14.559 9.704,14.559 L2.978,14.559 C2.369,14.559 2.273,13.566 3.045,13.566 L3.045,13.566 ZM10.680,5.818 L9.212,5.818 L7.980,13.566 L8.628,13.566 L10.680,5.818 L10.680,5.818 ZM8.228,5.818 L4.453,5.818 L5.686,13.566 L6.996,13.566 L8.228,5.818 L8.228,5.818 Z" />
	</symbol>
	<symbol id="vk" viewBox="0 0 25 24">
		<title>vk</title>
		<path d="M21.171,24.000 L3.024,24.000 C1.354,24.000 -0.000,22.656 -0.000,20.999 L-0.000,2.999 C-0.000,1.342 1.354,-0.001 3.024,-0.001 L21.171,-0.001 C22.841,-0.001 24.195,1.342 24.195,2.999 L24.195,20.999 C24.195,22.656 22.841,24.000 21.171,24.000 ZM16.052,12.300 C15.668,11.882 15.108,11.605 14.506,11.470 L14.506,11.414 C14.936,11.228 15.311,10.936 15.563,10.539 C15.815,10.143 15.948,9.690 15.948,9.182 C15.948,8.743 15.860,8.356 15.677,8.020 C15.495,7.684 15.220,7.415 14.850,7.215 C14.508,7.028 14.143,6.900 13.752,6.842 C13.362,6.784 12.788,6.748 12.031,6.748 L8.317,6.748 L8.317,17.249 L12.516,17.249 C13.232,17.249 13.822,17.150 14.287,17.018 C14.752,16.889 15.178,16.652 15.566,16.344 C15.894,16.088 16.155,15.755 16.350,15.363 C16.544,14.971 16.634,14.511 16.634,13.994 C16.634,13.284 16.436,12.717 16.052,12.300 ZM13.292,15.068 C13.024,15.185 12.761,15.282 12.502,15.290 C12.243,15.301 11.776,15.340 11.102,15.340 L10.896,15.340 L10.896,12.649 L11.441,12.649 C11.903,12.649 12.272,12.659 12.547,12.666 C12.822,12.672 13.038,12.709 13.195,12.769 C13.454,12.863 13.648,13.001 13.777,13.183 C13.907,13.365 13.972,13.618 13.972,13.940 C13.972,14.192 13.917,14.417 13.809,14.615 C13.700,14.814 13.528,14.965 13.292,15.068 ZM12.772,10.714 C12.583,10.803 12.399,10.871 12.221,10.880 C12.043,10.890 11.732,10.914 11.289,10.914 L10.896,10.914 L10.896,8.658 L11.143,8.658 C11.605,8.658 11.953,8.668 12.186,8.675 C12.420,8.681 12.622,8.726 12.793,8.801 C12.973,8.880 13.106,9.009 13.192,9.187 C13.277,9.364 13.320,9.538 13.320,9.705 C13.320,9.934 13.281,10.135 13.202,10.307 C13.123,10.480 12.980,10.616 12.772,10.714 Z" />
	</symbol>
	<symbol id="ok" viewBox="0 0 25 24">
		<title>ok</title>
		<path d="M21.171,24.000 L3.024,24.000 C1.354,24.000 -0.000,22.656 -0.000,20.999 L-0.000,2.999 C-0.000,1.342 1.354,-0.001 3.024,-0.001 L21.171,-0.001 C22.841,-0.001 24.195,1.342 24.195,2.999 L24.195,20.999 C24.195,22.656 22.841,24.000 21.171,24.000 ZM11.999,4.999 C10.034,4.999 8.435,6.620 8.435,8.613 C8.435,10.604 10.034,12.225 11.999,12.225 C13.966,12.225 15.564,10.604 15.564,8.613 C15.564,6.620 13.966,4.999 11.999,4.999 ZM15.839,12.844 C15.532,12.348 14.887,12.199 14.399,12.510 C12.939,13.441 11.059,13.441 9.600,12.510 C9.111,12.199 8.467,12.348 8.160,12.844 C7.853,13.339 8.000,13.991 8.487,14.303 C9.132,14.713 9.831,15.005 10.557,15.172 L8.565,17.192 C8.157,17.606 8.157,18.275 8.565,18.689 C8.769,18.896 9.036,18.999 9.303,18.999 C9.570,18.999 9.838,18.896 10.042,18.689 L11.999,16.704 L13.958,18.689 C14.365,19.103 15.026,19.103 15.434,18.689 C15.842,18.275 15.842,17.605 15.434,17.192 L13.442,15.172 C14.167,15.005 14.867,14.714 15.511,14.303 C15.999,13.991 16.146,13.338 15.839,12.844 ZM11.999,10.108 C11.186,10.108 10.524,9.437 10.524,8.613 C10.524,7.787 11.186,7.116 11.999,7.116 C12.813,7.116 13.475,7.787 13.475,8.613 C13.475,9.437 12.813,10.108 11.999,10.108 Z" />
	</symbol>
	<symbol id="instagram" viewBox="0 0 25 24">
		<title>instagram</title>
		<path d="M21.230,10.151 L19.140,10.151 C19.293,10.742 19.382,11.360 19.382,11.998 C19.382,16.077 16.076,19.384 11.998,19.384 C7.920,19.384 4.613,16.077 4.613,11.998 C4.613,11.360 4.704,10.742 4.856,10.151 L2.766,10.151 L2.766,20.307 C2.766,20.815 3.180,21.229 3.690,21.229 L20.306,21.229 C20.816,21.229 21.230,20.815 21.230,20.307 L21.230,10.151 ZM21.230,3.690 C21.230,3.180 20.816,2.767 20.306,2.767 L17.537,2.767 C17.027,2.767 16.614,3.180 16.614,3.690 L16.614,6.460 C16.614,6.969 17.027,7.383 17.537,7.383 L20.306,7.383 C20.816,7.383 21.230,6.969 21.230,6.460 L21.230,3.690 ZM11.998,7.383 C9.449,7.383 7.382,9.449 7.382,11.998 C7.382,14.547 9.449,16.614 11.998,16.614 C14.547,16.614 16.614,14.547 16.614,11.998 C16.614,9.449 14.547,7.383 11.998,7.383 M21.230,23.999 L2.766,23.999 C1.237,23.999 -0.003,22.759 -0.003,21.229 L-0.003,2.767 C-0.003,1.237 1.237,-0.002 2.766,-0.002 L21.230,-0.002 C22.759,-0.002 23.999,1.237 23.999,2.767 L23.999,21.229 C23.999,22.759 22.759,23.999 21.230,23.999" />
	</symbol>
	<symbol id="youtube" viewBox="0 0 20 24">
		<title>youtube</title>
		<path d="M19.653,21.093 C19.413,22.116 18.558,22.869 17.529,22.982 C15.091,23.248 12.624,23.249 10.168,23.248 C7.712,23.249 5.244,23.248 2.807,22.982 C1.778,22.869 0.923,22.116 0.683,21.093 C0.341,19.637 0.341,18.048 0.341,16.550 C0.341,15.050 0.344,13.462 0.687,12.006 C0.927,10.983 1.782,10.230 2.811,10.118 C5.248,9.852 7.716,9.850 10.172,9.852 C12.628,9.850 15.095,9.852 17.533,10.118 C18.562,10.230 19.417,10.983 19.657,12.006 C20.000,13.462 19.998,15.050 19.998,16.550 C19.998,18.048 19.996,19.637 19.653,21.093 ZM5.947,12.104 L1.806,12.104 L1.806,13.315 L3.203,13.315 L3.203,20.708 L4.524,20.708 L4.524,13.315 L5.947,13.315 L5.947,12.104 ZM9.537,14.297 L8.348,14.297 L8.348,19.196 C8.084,19.561 7.835,19.741 7.597,19.741 C7.438,19.741 7.348,19.649 7.319,19.468 C7.308,19.430 7.308,19.289 7.308,19.017 L7.308,14.297 L6.120,14.297 L6.120,19.366 C6.120,19.818 6.160,20.125 6.225,20.319 C6.344,20.644 6.608,20.796 6.991,20.796 C7.427,20.796 7.875,20.538 8.348,20.008 L8.348,20.708 L9.537,20.708 L9.537,14.297 ZM14.049,16.231 C14.049,15.624 14.009,15.201 13.930,14.942 C13.771,14.463 13.453,14.219 12.980,14.219 C12.543,14.219 12.136,14.453 11.753,14.914 L11.753,12.104 L10.565,12.104 L10.565,20.708 L11.753,20.708 L11.753,20.086 C12.149,20.566 12.558,20.796 12.980,20.796 C13.453,20.796 13.771,20.552 13.930,20.075 C14.009,19.804 14.049,19.377 14.049,18.784 L14.049,16.231 ZM18.533,18.487 L17.321,18.487 C17.321,18.952 17.305,19.211 17.294,19.274 C17.227,19.584 17.056,19.741 16.764,19.741 C16.356,19.741 16.157,19.444 16.157,18.851 L16.157,17.714 L18.533,17.714 L18.533,16.387 C18.533,15.701 18.414,15.201 18.165,14.877 C17.832,14.437 17.359,14.219 16.764,14.219 C16.157,14.219 15.684,14.437 15.341,14.877 C15.089,15.201 14.974,15.701 14.974,16.387 L14.974,18.632 C14.974,19.313 15.103,19.818 15.356,20.139 C15.699,20.578 16.172,20.796 16.793,20.796 C17.414,20.796 17.901,20.566 18.230,20.101 C18.374,19.895 18.468,19.663 18.508,19.405 C18.518,19.289 18.533,19.031 18.533,18.657 L18.533,18.487 ZM16.157,16.154 C16.157,15.561 16.356,15.264 16.753,15.264 C17.146,15.264 17.345,15.561 17.345,16.154 L17.345,16.747 L16.157,16.747 L16.157,16.154 ZM12.345,19.741 C12.149,19.741 11.951,19.649 11.753,19.454 L11.753,15.547 C11.951,15.355 12.149,15.264 12.345,15.264 C12.687,15.264 12.861,15.561 12.861,16.140 L12.861,18.875 C12.861,19.454 12.687,19.741 12.345,19.741 ZM14.906,7.982 C14.428,8.517 13.972,8.777 13.535,8.777 C13.148,8.777 12.882,8.624 12.762,8.296 C12.696,8.101 12.656,7.790 12.656,7.333 L12.656,2.213 L13.852,2.213 L13.852,6.980 C13.852,7.255 13.852,7.399 13.866,7.437 C13.893,7.619 13.987,7.711 14.148,7.711 C14.387,7.711 14.640,7.530 14.906,7.162 L14.906,2.213 L16.106,2.213 L16.106,8.687 L14.906,8.687 L14.906,7.982 ZM9.896,8.777 C9.298,8.777 8.831,8.556 8.499,8.114 C8.244,7.790 8.123,7.279 8.123,6.592 L8.123,4.324 C8.123,3.632 8.244,3.126 8.499,2.798 C8.831,2.356 9.298,2.134 9.896,2.134 C10.497,2.134 10.963,2.356 11.296,2.798 C11.547,3.126 11.668,3.632 11.668,4.324 L11.668,6.592 C11.668,7.279 11.547,7.790 11.296,8.114 C10.963,8.556 10.497,8.777 9.896,8.777 ZM10.468,4.088 C10.468,3.490 10.283,3.191 9.896,3.191 C9.509,3.191 9.323,3.490 9.323,4.088 L9.323,6.813 C9.323,7.411 9.509,7.711 9.896,7.711 C10.283,7.711 10.468,7.411 10.468,6.813 L10.468,4.088 ZM6.511,8.687 L5.180,8.687 L5.180,5.169 C5.060,4.545 4.794,3.632 4.367,2.420 C4.087,1.614 3.794,0.804 3.514,-0.001 L4.914,-0.001 L5.859,3.411 L6.766,-0.001 L8.112,-0.001 L6.511,5.169 L6.511,8.687 Z" />
	</symbol>
	<symbol id="house" viewBox="0 0 14 14">
		<title>house</title>
		<path d="M11.375,0.875 L11.375,3.500 L14.000,6.000 L14.000,7.000 L12.000,7.000 L12.000,14.000 L9.000,14.000 L9.000,8.000 L5.000,8.000 L5.000,14.000 L2.000,14.000 L2.000,7.000 L-0.000,7.000 L-0.000,6.000 L6.125,-0.000 L7.875,-0.000 L9.625,1.750 L9.625,0.875 L11.375,0.875 Z" />
	</symbol>
	<symbol id="office" viewBox="0 0 11 14">
		<title>office</title>
		<path d="M7.000,14.000 L7.000,13.000 L4.000,13.000 L4.000,14.000 L-0.000,14.000 L-0.000,2.000 L1.000,2.000 L1.000,1.000 L2.000,1.000 L2.031,2.000 L3.000,2.000 L3.000,1.000 L4.000,1.000 L4.000,-0.000 L5.875,-0.000 L7.000,1.000 L8.000,1.000 L8.000,2.000 L9.000,2.000 L9.000,1.000 L10.000,1.000 L10.000,2.000 L11.000,2.000 L11.000,14.000 L7.000,14.000 ZM3.000,3.000 L1.000,3.000 L1.000,12.000 L3.000,12.000 L3.000,3.000 ZM7.000,3.000 L4.000,3.000 L4.000,4.000 L7.000,4.000 L7.000,3.000 ZM7.000,5.000 L4.000,5.000 L4.000,6.000 L7.000,6.000 L7.000,5.000 ZM7.000,7.000 L4.000,7.000 L4.000,9.000 L7.000,9.000 L7.000,7.000 ZM7.000,10.000 L4.000,10.000 L4.000,12.000 L7.000,12.000 L7.000,10.000 ZM10.000,3.000 L8.000,3.000 L8.000,12.000 L10.000,12.000 L10.000,3.000 Z" />
	</symbol>
	<symbol id="fb" viewBox="0 0 96.124 96.123">
		<title>fb</title>
		<path d="M72.089,0.02L59.624,0C45.62,0,36.57,9.285,36.57,23.656v10.907H24.037c-1.083,0-1.96,0.878-1.96,1.961v15.803
		c0,1.083,0.878,1.96,1.96,1.96h12.533v39.876c0,1.083,0.877,1.96,1.96,1.96h16.352c1.083,0,1.96-0.878,1.96-1.96V54.287h14.654
		c1.083,0,1.96-0.877,1.96-1.96l0.006-15.803c0-0.52-0.207-1.018-0.574-1.386c-0.367-0.368-0.867-0.575-1.387-0.575H56.842v-9.246
		c0-4.444,1.059-6.7,6.848-6.7l8.397-0.003c1.082,0,1.959-0.878,1.959-1.96V1.98C74.046,0.899,73.17,0.022,72.089,0.02z"/>
	</symbol>
	<symbol id="tw" viewBox="0 0 512 512">
		<title>tw</title>
		<path d="M512,97.248c-19.04,8.352-39.328,13.888-60.48,16.576c21.76-12.992,38.368-33.408,46.176-58.016
			c-20.288,12.096-42.688,20.64-66.56,25.408C411.872,60.704,384.416,48,354.464,48c-58.112,0-104.896,47.168-104.896,104.992
			c0,8.32,0.704,16.32,2.432,23.936c-87.264-4.256-164.48-46.08-216.352-109.792c-9.056,15.712-14.368,33.696-14.368,53.056
			c0,36.352,18.72,68.576,46.624,87.232c-16.864-0.32-33.408-5.216-47.424-12.928c0,0.32,0,0.736,0,1.152
			c0,51.008,36.384,93.376,84.096,103.136c-8.544,2.336-17.856,3.456-27.52,3.456c-6.72,0-13.504-0.384-19.872-1.792
			c13.6,41.568,52.192,72.128,98.08,73.12c-35.712,27.936-81.056,44.768-130.144,44.768c-8.608,0-16.864-0.384-25.12-1.44
			C46.496,446.88,101.6,464,161.024,464c193.152,0,298.752-160,298.752-298.688c0-4.64-0.16-9.12-0.384-13.568
			C480.224,136.96,497.728,118.496,512,97.248z"/>
	</symbol>
	<symbol id="pi" viewBox="0 0 310.05 310.05">
		<title>pi</title>
		<path id="XMLID_799_" d="M245.265,31.772C223.923,11.284,194.388,0,162.101,0c-49.32,0-79.654,20.217-96.416,37.176
		c-20.658,20.9-32.504,48.651-32.504,76.139c0,34.513,14.436,61.003,38.611,70.858c1.623,0.665,3.256,1,4.857,1
		c5.1,0,9.141-3.337,10.541-8.69c0.816-3.071,2.707-10.647,3.529-13.936c1.76-6.495,0.338-9.619-3.5-14.142
		c-6.992-8.273-10.248-18.056-10.248-30.788c0-37.818,28.16-78.011,80.352-78.011c41.412,0,67.137,23.537,67.137,61.425
		c0,23.909-5.15,46.051-14.504,62.35c-6.5,11.325-17.93,24.825-35.477,24.825c-7.588,0-14.404-3.117-18.705-8.551
		c-4.063-5.137-5.402-11.773-3.768-18.689c1.846-7.814,4.363-15.965,6.799-23.845c4.443-14.392,8.643-27.985,8.643-38.83
		c0-18.55-11.404-31.014-28.375-31.014c-21.568,0-38.465,21.906-38.465,49.871c0,13.715,3.645,23.973,5.295,27.912
		c-2.717,11.512-18.865,79.953-21.928,92.859c-1.771,7.534-12.44,67.039,5.219,71.784c19.841,5.331,37.576-52.623,39.381-59.172
		c1.463-5.326,6.582-25.465,9.719-37.845c9.578,9.226,25,15.463,40.006,15.463c28.289,0,53.73-12.73,71.637-35.843
		c17.367-22.418,26.932-53.664,26.932-87.978C276.869,77.502,265.349,51.056,245.265,31.772z"/>
	</symbol>
	<symbol id="vk2" viewBox="0 0 548.358 548.358">
		<title>vk2</title>
		<path d="M545.451,400.298c-0.664-1.431-1.283-2.618-1.858-3.569c-9.514-17.135-27.695-38.167-54.532-63.102l-0.567-0.571
		l-0.284-0.28l-0.287-0.287h-0.288c-12.18-11.611-19.893-19.418-23.123-23.415c-5.91-7.614-7.234-15.321-4.004-23.13
		c2.282-5.9,10.854-18.36,25.696-37.397c7.807-10.089,13.99-18.175,18.556-24.267c32.931-43.78,47.208-71.756,42.828-83.939
		l-1.701-2.847c-1.143-1.714-4.093-3.282-8.846-4.712c-4.764-1.427-10.853-1.663-18.278-0.712l-82.224,0.568
		c-1.332-0.472-3.234-0.428-5.712,0.144c-2.475,0.572-3.713,0.859-3.713,0.859l-1.431,0.715l-1.136,0.859
		c-0.952,0.568-1.999,1.567-3.142,2.995c-1.137,1.423-2.088,3.093-2.848,4.996c-8.952,23.031-19.13,44.444-30.553,64.238
		c-7.043,11.803-13.511,22.032-19.418,30.693c-5.899,8.658-10.848,15.037-14.842,19.126c-4,4.093-7.61,7.372-10.852,9.849
		c-3.237,2.478-5.708,3.525-7.419,3.142c-1.715-0.383-3.33-0.763-4.859-1.143c-2.663-1.714-4.805-4.045-6.42-6.995
		c-1.622-2.95-2.714-6.663-3.285-11.136c-0.568-4.476-0.904-8.326-1-11.563c-0.089-3.233-0.048-7.806,0.145-13.706
		c0.198-5.903,0.287-9.897,0.287-11.991c0-7.234,0.141-15.085,0.424-23.555c0.288-8.47,0.521-15.181,0.716-20.125
		c0.194-4.949,0.284-10.185,0.284-15.705s-0.336-9.849-1-12.991c-0.656-3.138-1.663-6.184-2.99-9.137
		c-1.335-2.95-3.289-5.232-5.853-6.852c-2.569-1.618-5.763-2.902-9.564-3.856c-10.089-2.283-22.936-3.518-38.547-3.71
		c-35.401-0.38-58.148,1.906-68.236,6.855c-3.997,2.091-7.614,4.948-10.848,8.562c-3.427,4.189-3.905,6.475-1.431,6.851
		c11.422,1.711,19.508,5.804,24.267,12.275l1.715,3.429c1.334,2.474,2.666,6.854,3.999,13.134c1.331,6.28,2.19,13.227,2.568,20.837
		c0.95,13.897,0.95,25.793,0,35.689c-0.953,9.9-1.853,17.607-2.712,23.127c-0.859,5.52-2.143,9.993-3.855,13.418
		c-1.715,3.426-2.856,5.52-3.428,6.28c-0.571,0.76-1.047,1.239-1.425,1.427c-2.474,0.948-5.047,1.431-7.71,1.431
		c-2.667,0-5.901-1.334-9.707-4c-3.805-2.666-7.754-6.328-11.847-10.992c-4.093-4.665-8.709-11.184-13.85-19.558
		c-5.137-8.374-10.467-18.271-15.987-29.691l-4.567-8.282c-2.855-5.328-6.755-13.086-11.704-23.267
		c-4.952-10.185-9.329-20.037-13.134-29.554c-1.521-3.997-3.806-7.04-6.851-9.134l-1.429-0.859c-0.95-0.76-2.475-1.567-4.567-2.427
		c-2.095-0.859-4.281-1.475-6.567-1.854l-78.229,0.568c-7.994,0-13.418,1.811-16.274,5.428l-1.143,1.711
		C0.288,140.146,0,141.668,0,143.763c0,2.094,0.571,4.664,1.714,7.707c11.42,26.84,23.839,52.725,37.257,77.659
		c13.418,24.934,25.078,45.019,34.973,60.237c9.897,15.229,19.985,29.602,30.264,43.112c10.279,13.515,17.083,22.176,20.412,25.981
		c3.333,3.812,5.951,6.662,7.854,8.565l7.139,6.851c4.568,4.569,11.276,10.041,20.127,16.416
		c8.853,6.379,18.654,12.659,29.408,18.85c10.756,6.181,23.269,11.225,37.546,15.126c14.275,3.905,28.169,5.472,41.684,4.716h32.834
		c6.659-0.575,11.704-2.669,15.133-6.283l1.136-1.431c0.764-1.136,1.479-2.901,2.139-5.276c0.668-2.379,1-5,1-7.851
		c-0.195-8.183,0.428-15.558,1.852-22.124c1.423-6.564,3.045-11.513,4.859-14.846c1.813-3.33,3.859-6.14,6.136-8.418
		c2.282-2.283,3.908-3.666,4.862-4.142c0.948-0.479,1.705-0.804,2.276-0.999c4.568-1.522,9.944-0.048,16.136,4.429
		c6.187,4.473,11.99,9.996,17.418,16.56c5.425,6.57,11.943,13.941,19.555,22.124c7.617,8.186,14.277,14.271,19.985,18.274
		l5.708,3.426c3.812,2.286,8.761,4.38,14.853,6.283c6.081,1.902,11.409,2.378,15.984,1.427l73.087-1.14
		c7.229,0,12.854-1.197,16.844-3.572c3.998-2.379,6.373-5,7.139-7.851c0.764-2.854,0.805-6.092,0.145-9.712
		C546.782,404.25,546.115,401.725,545.451,400.298z"/>
	</symbol>
	<symbol id="ok2" viewBox="0 0 95.481 95.481">
		<title>ok2</title>
		<path d="M43.041,67.254c-7.402-0.772-14.076-2.595-19.79-7.064c-0.709-0.556-1.441-1.092-2.088-1.713
			c-2.501-2.402-2.753-5.153-0.774-7.988c1.693-2.426,4.535-3.075,7.489-1.682c0.572,0.27,1.117,0.607,1.639,0.969
			c10.649,7.317,25.278,7.519,35.967,0.329c1.059-0.812,2.191-1.474,3.503-1.812c2.551-0.655,4.93,0.282,6.299,2.514
			c1.564,2.549,1.544,5.037-0.383,7.016c-2.956,3.034-6.511,5.229-10.461,6.761c-3.735,1.448-7.826,2.177-11.875,2.661
			c0.611,0.665,0.899,0.992,1.281,1.376c5.498,5.524,11.02,11.025,16.5,16.566c1.867,1.888,2.257,4.229,1.229,6.425
			c-1.124,2.4-3.64,3.979-6.107,3.81c-1.563-0.108-2.782-0.886-3.865-1.977c-4.149-4.175-8.376-8.273-12.441-12.527
			c-1.183-1.237-1.752-1.003-2.796,0.071c-4.174,4.297-8.416,8.528-12.683,12.735c-1.916,1.889-4.196,2.229-6.418,1.15
			c-2.362-1.145-3.865-3.556-3.749-5.979c0.08-1.639,0.886-2.891,2.011-4.014c5.441-5.433,10.867-10.88,16.295-16.322
			C42.183,68.197,42.518,67.813,43.041,67.254z"/>
		<path d="M47.55,48.329c-13.205-0.045-24.033-10.992-23.956-24.218C23.67,10.739,34.505-0.037,47.84,0
			c13.362,0.036,24.087,10.967,24.02,24.478C71.792,37.677,60.889,48.375,47.55,48.329z M59.551,24.143
			c-0.023-6.567-5.253-11.795-11.807-11.801c-6.609-0.007-11.886,5.316-11.835,11.943c0.049,6.542,5.324,11.733,11.896,11.709
			C54.357,35.971,59.573,30.709,59.551,24.143z"/>
	</symbol>
</svg>
